<?xml version="1.0" encoding="UTF-8" standalone="no"?>
<!DOCTYPE svg PUBLIC "-//W3C//DTD SVG 1.1//EN"
 "http://www.w3.org/Graphics/SVG/1.1/DTD/svg11.dtd">
<!-- Generated by graphviz version 2.50.0 (20211204.2007)
 -->
<!-- Title: fsm_tx_uart_sd Pages: 1 -->
<svg width="638pt" height="250pt"
 viewBox="0.00 0.00 637.90 250.39" xmlns="http://www.w3.org/2000/svg" xmlns:xlink="http://www.w3.org/1999/xlink">
<g id="graph0" class="graph" transform="scale(1 1) rotate(0) translate(4 246.39)">
<title>fsm_tx_uart_sd</title>
<polygon fill="white" stroke="transparent" points="-4,4 -4,-246.39 633.9,-246.39 633.9,4 -4,4"/>
<!-- a -->
<g id="node1" class="node">
<title>a</title>
<ellipse fill="none" stroke="white" cx="18" cy="-114.39" rx="18" ry="18"/>
</g>
<!-- sIDLE -->
<g id="node2" class="node">
<title>sIDLE</title>
<ellipse fill="none" stroke="black" cx="231.97" cy="-114.39" rx="86.95" ry="86.95"/>
<text text-anchor="middle" x="231.97" y="-141.19" font-family="Times,serif" font-size="14.00">sIDLE</text>
<text text-anchor="middle" x="231.97" y="-110.19" font-family="Times,serif" font-size="14.00"> tx_busy &lt;= &#39;0&#39;</text>
<text text-anchor="middle" x="231.97" y="-95.19" font-family="Times,serif" font-size="14.00"> tx_complete &lt;= &#39;0&#39;</text>
<text text-anchor="middle" x="231.97" y="-80.19" font-family="Times,serif" font-size="14.00"> tx_enable &lt;= &#39;0&#39;</text>
</g>
<!-- a&#45;&gt;sIDLE -->
<g id="edge1" class="edge">
<title>a:e&#45;&gt;sIDLE:w</title>
<path fill="none" stroke="black" d="M36,-114.39C80.85,-114.39 94.56,-114.39 134.78,-114.39"/>
<polygon fill="black" stroke="black" points="135,-117.89 145,-114.39 135,-110.89 135,-117.89"/>
<text text-anchor="middle" x="90.5" y="-118.19" font-family="Times,serif" font-size="14.00">areset_n = &#39;0&#39;</text>
</g>
<!-- sTRANSMIT -->
<g id="node3" class="node">
<title>sTRANSMIT</title>
<ellipse fill="none" stroke="black" cx="542.92" cy="-114.39" rx="86.95" ry="86.95"/>
<text text-anchor="middle" x="542.92" y="-141.19" font-family="Times,serif" font-size="14.00">sTRANSMIT</text>
<text text-anchor="middle" x="542.92" y="-110.19" font-family="Times,serif" font-size="14.00"> tx_busy &lt;= &#39;1&#39;</text>
<text text-anchor="middle" x="542.92" y="-95.19" font-family="Times,serif" font-size="14.00"> tx_complete &lt;= &#39;1&#39;</text>
<text text-anchor="middle" x="542.92" y="-80.19" font-family="Times,serif" font-size="14.00"> tx_enable &lt;= &#39;1&#39;</text>
</g>
<!-- sIDLE&#45;&gt;sTRANSMIT -->
<g id="edge2" class="edge">
<title>sIDLE:n&#45;&gt;sTRANSMIT:n</title>
<path fill="none" stroke="black" d="M231.97,-202.39C231.97,-234.04 492.89,-236.7 536.71,-210.37"/>
<polygon fill="black" stroke="black" points="539.54,-212.43 542.92,-202.39 534.02,-208.13 539.54,-212.43"/>
<text text-anchor="middle" x="387.45" y="-231.19" font-family="Times,serif" font-size="14.00">tx_data_valid = &#39;1&#39;</text>
</g>
<!-- sTRANSMIT&#45;&gt;sIDLE -->
<g id="edge3" class="edge">
<title>sTRANSMIT:s&#45;&gt;sIDLE:s</title>
<path fill="none" stroke="black" d="M542.92,-26.39C542.92,5.25 282.01,7.91 238.19,-18.42"/>
<polygon fill="black" stroke="black" points="235.36,-16.35 231.97,-26.39 240.88,-20.66 235.36,-16.35"/>
<text text-anchor="middle" x="387.45" y="-6.19" font-family="Times,serif" font-size="14.00">tx_complete = &#39;1&#39;</text>
</g>
</g>
</svg>
