<?xml version="1.0" encoding="UTF-8" standalone="no"?>
<!DOCTYPE svg PUBLIC "-//W3C//DTD SVG 1.1//EN"
 "http://www.w3.org/Graphics/SVG/1.1/DTD/svg11.dtd">
<!-- Generated by graphviz version 8.0.3 (20230416.2022)
 -->
<!-- Title: fsm_tx_uart_sd Pages: 1 -->
<svg width="595pt" height="252pt"
 viewBox="0.00 0.00 595.47 251.56" xmlns="http://www.w3.org/2000/svg" xmlns:xlink="http://www.w3.org/1999/xlink">
<g id="graph0" class="graph" transform="scale(1 1) rotate(0) translate(4 247.56)">
<title>fsm_tx_uart_sd</title>
<polygon fill="white" stroke="none" points="-4,4 -4,-247.56 591.47,-247.56 591.47,4 -4,4"/>
<!-- a -->
<g id="node1" class="node">
<title>a</title>
<ellipse fill="none" stroke="white" cx="18" cy="-126.56" rx="18" ry="18"/>
</g>
<!-- sIDLE -->
<g id="node2" class="node">
<title>sIDLE</title>
<ellipse fill="none" stroke="black" cx="221.37" cy="-126.56" rx="76.24" ry="76.24"/>
<text text-anchor="middle" x="221.37" y="-145.86" font-family="Times,serif" font-size="14.00">sIDLE</text>
<text text-anchor="middle" x="221.37" y="-114.86" font-family="Times,serif" font-size="14.00"> tx_busy &lt;= &#39;0&#39;</text>
<text text-anchor="middle" x="221.37" y="-99.86" font-family="Times,serif" font-size="14.00"> tx_enable &lt;= &#39;0&#39;</text>
</g>
<!-- a&#45;&gt;sIDLE -->
<g id="edge1" class="edge">
<title>a:e&#45;&gt;sIDLE:w</title>
<path fill="none" stroke="black" d="M36,-126.56C80.57,-126.56 94.38,-126.56 134.02,-126.56"/>
<polygon fill="black" stroke="black" points="134,-130.06 144,-126.56 134,-123.06 134,-130.06"/>
<text text-anchor="middle" x="90.5" y="-130.36" font-family="Times,serif" font-size="14.00">areset_n = &#39;0&#39;</text>
</g>
<!-- sTRANSMIT -->
<g id="node3" class="node">
<title>sTRANSMIT</title>
<ellipse fill="none" stroke="black" cx="511.1" cy="-126.56" rx="76.24" ry="76.24"/>
<text text-anchor="middle" x="511.1" y="-145.86" font-family="Times,serif" font-size="14.00">sTRANSMIT</text>
<text text-anchor="middle" x="511.1" y="-114.86" font-family="Times,serif" font-size="14.00"> tx_busy &lt;= &#39;1&#39;</text>
<text text-anchor="middle" x="511.1" y="-99.86" font-family="Times,serif" font-size="14.00"> tx_enable &lt;= &#39;1&#39;</text>
</g>
<!-- sIDLE&#45;&gt;sTRANSMIT -->
<g id="edge2" class="edge">
<title>sIDLE:n&#45;&gt;sTRANSMIT:n</title>
<path fill="none" stroke="black" d="M221.37,-204.56C221.37,-233.74 459.32,-236.47 503.94,-212.77"/>
<polygon fill="black" stroke="black" points="507.16,-215.4 511.1,-205.56 501.89,-210.8 507.16,-215.4"/>
<text text-anchor="middle" x="366.24" y="-232.36" font-family="Times,serif" font-size="14.00">tx_data_valid = &#39;1&#39;</text>
</g>
<!-- sTRANSMIT&#45;&gt;sIDLE -->
<g id="edge3" class="edge">
<title>sTRANSMIT:s&#45;&gt;sIDLE:s</title>
<path fill="none" stroke="black" d="M511.1,-48.56C511.1,12.17 253.26,15.61 224.05,-38.24"/>
<polygon fill="black" stroke="black" points="220.5,-37.01 221.37,-47.56 227.27,-38.77 220.5,-37.01"/>
<text text-anchor="middle" x="366.24" y="-6.36" font-family="Times,serif" font-size="14.00">tx_complete = &#39;1&#39;</text>
</g>
</g>
</svg>
