<?xml version="1.0" encoding="UTF-8" standalone="no"?>
<!DOCTYPE svg PUBLIC "-//W3C//DTD SVG 1.1//EN"
 "http://www.w3.org/Graphics/SVG/1.1/DTD/svg11.dtd">
<!-- Generated by graphviz version 9.0.0 (20230911.1827)
 -->
<!-- Title: fsm_tx_uart_sd Pages: 1 -->
<svg width="593pt" height="299pt"
 viewBox="0.00 0.00 592.56 299.06" xmlns="http://www.w3.org/2000/svg" xmlns:xlink="http://www.w3.org/1999/xlink">
<g id="graph0" class="graph" transform="scale(1 1) rotate(0) translate(4 295.06)">
<title>fsm_tx_uart_sd</title>
<polygon fill="white" stroke="none" points="-4,4 -4,-295.06 588.56,-295.06 588.56,4 -4,4"/>
<!-- a -->
<g id="node1" class="node">
<title>a</title>
<ellipse fill="none" stroke="white" cx="18" cy="-173.56" rx="18" ry="18"/>
</g>
<!-- sIDLE -->
<g id="node2" class="node">
<title>sIDLE</title>
<ellipse fill="none" stroke="black" cx="220.01" cy="-173.56" rx="76.01" ry="76.01"/>
<text text-anchor="middle" x="220.01" y="-193.01" font-family="Times,serif" font-size="14.00">sIDLE</text>
<text text-anchor="middle" x="220.01" y="-160.51" font-family="Times,serif" font-size="14.00"> tx_busy &lt;= &#39;0&#39;</text>
<text text-anchor="middle" x="220.01" y="-144.01" font-family="Times,serif" font-size="14.00"> tx_enable &lt;= &#39;0&#39;</text>
</g>
<!-- a&#45;&gt;sIDLE -->
<g id="edge1" class="edge">
<title>a:e&#45;&gt;sIDLE:w</title>
<path fill="none" stroke="black" d="M36,-173.56C80.06,-173.56 93.79,-173.56 132.87,-173.56"/>
<polygon fill="black" stroke="black" points="132.49,-177.06 142.49,-173.56 132.49,-170.06 132.49,-177.06"/>
<text text-anchor="middle" x="90" y="-176.76" font-family="Times,serif" font-size="14.00">areset_n = &#39;0&#39;</text>
</g>
<!-- sTRANSMIT -->
<g id="node3" class="node">
<title>sTRANSMIT</title>
<ellipse fill="none" stroke="black" cx="508.54" cy="-173.56" rx="76.01" ry="76.01"/>
<text text-anchor="middle" x="508.54" y="-193.01" font-family="Times,serif" font-size="14.00">sTRANSMIT</text>
<text text-anchor="middle" x="508.54" y="-160.51" font-family="Times,serif" font-size="14.00"> tx_busy &lt;= &#39;1&#39;</text>
<text text-anchor="middle" x="508.54" y="-144.01" font-family="Times,serif" font-size="14.00"> tx_enable &lt;= &#39;1&#39;</text>
</g>
<!-- sIDLE&#45;&gt;sTRANSMIT -->
<g id="edge2" class="edge">
<title>sIDLE:n&#45;&gt;sTRANSMIT:n</title>
<path fill="none" stroke="black" d="M220.01,-250.56C220.01,-279.49 454.94,-282.31 500.82,-259.03"/>
<polygon fill="black" stroke="black" points="503.38,-261.43 507.52,-251.68 498.2,-256.71 503.38,-261.43"/>
<text text-anchor="middle" x="364.28" y="-277.76" font-family="Times,serif" font-size="14.00">tx_data_valid = &#39;1&#39;</text>
</g>
<!-- sTRANSMIT&#45;&gt;sIDLE -->
<g id="edge3" class="edge">
<title>sTRANSMIT:s&#45;&gt;sIDLE:s</title>
<path fill="none" stroke="black" d="M508.54,-96.56C508.54,27.79 237.22,31.56 220.79,-85.26"/>
<polygon fill="black" stroke="black" points="217.31,-84.83 220.12,-95.05 224.3,-85.31 217.31,-84.83"/>
<text text-anchor="middle" x="364.28" y="-7.76" font-family="Times,serif" font-size="14.00">tx_complete = &#39;1&#39;</text>
</g>
</g>
</svg>
