<?xml version="1.0" encoding="utf-8" standalone="no"?>
<!DOCTYPE svg PUBLIC "-//W3C//DTD SVG 1.1//EN"
  "http://www.w3.org/Graphics/SVG/1.1/DTD/svg11.dtd">
<svg xmlns:xlink="http://www.w3.org/1999/xlink" width="751.452922pt" height="122.04pt" viewBox="0 0 751.452922 122.04" xmlns="http://www.w3.org/2000/svg" version="1.1">
 <metadata>
  <rdf:RDF xmlns:dc="http://purl.org/dc/elements/1.1/" xmlns:cc="http://creativecommons.org/ns#" xmlns:rdf="http://www.w3.org/1999/02/22-rdf-syntax-ns#">
   <cc:Work>
    <dc:type rdf:resource="http://purl.org/dc/dcmitype/StillImage"/>
    <dc:date>2023-09-12T14:42:31.356318</dc:date>
    <dc:format>image/svg+xml</dc:format>
    <dc:creator>
     <cc:Agent>
      <dc:title>Matplotlib v3.7.2, https://matplotlib.org/</dc:title>
     </cc:Agent>
    </dc:creator>
   </cc:Work>
  </rdf:RDF>
 </metadata>
 <defs>
  <style type="text/css">*{stroke-linejoin: round; stroke-linecap: butt}</style>
 </defs>
 <g id="figure_1">
  <g id="patch_1">
   <path d="M 0 122.04 
L 751.452922 122.04 
L 751.452922 0 
L 0 0 
L 0 122.04 
z
" style="fill: none"/>
  </g>
  <g id="axes_1">
   <g id="line2d_1">
    <path d="M 67.344922 8.82 
L 67.344922 113.22 
" clip-path="url(#p9279acc3aa)" style="fill: none; stroke-dasharray: 1,1.65; stroke-dashoffset: 0; stroke: #dddddd"/>
   </g>
   <g id="line2d_2">
    <path d="M 139.344922 8.82 
L 139.344922 113.22 
" clip-path="url(#p9279acc3aa)" style="fill: none; stroke-dasharray: 1,1.65; stroke-dashoffset: 0; stroke: #dddddd"/>
   </g>
   <g id="line2d_3">
    <path d="M 211.344922 8.82 
L 211.344922 113.22 
" clip-path="url(#p9279acc3aa)" style="fill: none; stroke-dasharray: 1,1.65; stroke-dashoffset: 0; stroke: #dddddd"/>
   </g>
   <g id="line2d_4">
    <path d="M 283.344922 8.82 
L 283.344922 113.22 
" clip-path="url(#p9279acc3aa)" style="fill: none; stroke-dasharray: 1,1.65; stroke-dashoffset: 0; stroke: #dddddd"/>
   </g>
   <g id="line2d_5">
    <path d="M 355.344922 8.82 
L 355.344922 113.22 
" clip-path="url(#p9279acc3aa)" style="fill: none; stroke-dasharray: 1,1.65; stroke-dashoffset: 0; stroke: #dddddd"/>
   </g>
   <g id="line2d_6">
    <path d="M 427.344922 8.82 
L 427.344922 113.22 
" clip-path="url(#p9279acc3aa)" style="fill: none; stroke-dasharray: 1,1.65; stroke-dashoffset: 0; stroke: #dddddd"/>
   </g>
   <g id="line2d_7">
    <path d="M 499.344922 8.82 
L 499.344922 113.22 
" clip-path="url(#p9279acc3aa)" style="fill: none; stroke-dasharray: 1,1.65; stroke-dashoffset: 0; stroke: #dddddd"/>
   </g>
   <g id="line2d_8">
    <path d="M 571.344922 8.82 
L 571.344922 113.22 
" clip-path="url(#p9279acc3aa)" style="fill: none; stroke-dasharray: 1,1.65; stroke-dashoffset: 0; stroke: #dddddd"/>
   </g>
   <g id="line2d_9">
    <path d="M 643.344922 8.82 
L 643.344922 113.22 
" clip-path="url(#p9279acc3aa)" style="fill: none; stroke-dasharray: 1,1.65; stroke-dashoffset: 0; stroke: #dddddd"/>
   </g>
   <g id="line2d_10">
    <path d="M 715.344922 8.82 
L 715.344922 113.22 
" clip-path="url(#p9279acc3aa)" style="fill: none; stroke-dasharray: 1,1.65; stroke-dashoffset: 0; stroke: #dddddd"/>
   </g>
   <g id="patch_2">
    <path d="M 67.344922 98.82 
L 211.344922 98.82 
L 214.044922 89.82 
L 211.344922 80.82 
L 67.344922 80.82 
" clip-path="url(#p6f007672ca)" style="fill: none; stroke: #000000; stroke-linecap: round"/>
   </g>
   <g id="patch_3">
    <path d="M 216.744922 80.82 
L 214.044922 89.82 
L 216.744922 98.82 
L 283.344922 98.82 
L 286.044922 89.82 
L 283.344922 80.82 
z
" clip-path="url(#p6f007672ca)" style="fill: #feffc2; stroke: #000000; stroke-linecap: round"/>
   </g>
   <g id="patch_4">
    <path d="M 288.744922 80.82 
L 286.044922 89.82 
L 288.744922 98.82 
L 355.344922 98.82 
L 358.044922 89.82 
L 355.344922 80.82 
z
" clip-path="url(#p6f007672ca)" style="fill: #ffe2ba; stroke: #000000; stroke-linecap: round"/>
   </g>
   <g id="patch_5">
    <path d="M 360.744922 80.82 
L 358.044922 89.82 
L 360.744922 98.82 
L 427.344922 98.82 
L 430.044922 89.82 
L 427.344922 80.82 
z
" clip-path="url(#p6f007672ca)" style="fill: #abd9ff; stroke: #000000; stroke-linecap: round"/>
   </g>
   <g id="patch_6">
    <path d="M 432.744922 80.82 
L 430.044922 89.82 
L 432.744922 98.82 
L 499.344922 98.82 
L 502.044922 89.82 
L 499.344922 80.82 
z
" clip-path="url(#p6f007672ca)" style="fill: #bdfbff; stroke: #000000; stroke-linecap: round"/>
   </g>
   <g id="patch_7">
    <path d="M 715.344922 80.82 
L 504.744922 80.82 
L 502.044922 89.82 
L 504.744922 98.82 
L 715.344922 98.82 
" clip-path="url(#p6f007672ca)" style="fill: #bdffcb; stroke: #000000; stroke-linecap: round"/>
   </g>
   <g id="line2d_11">
    <path d="M 67.344922 34.02 
L 67.344922 16.02 
L 103.344922 16.02 
L 103.344922 34.02 
L 139.344922 34.02 
L 139.344922 16.02 
L 175.344922 16.02 
L 175.344922 34.02 
L 211.344922 34.02 
L 211.344922 16.02 
L 247.344922 16.02 
L 247.344922 34.02 
L 283.344922 34.02 
L 283.344922 16.02 
L 319.344922 16.02 
L 319.344922 34.02 
L 355.344922 34.02 
L 355.344922 16.02 
L 391.344922 16.02 
L 391.344922 34.02 
L 427.344922 34.02 
L 427.344922 16.02 
L 463.344922 16.02 
L 463.344922 34.02 
L 499.344922 34.02 
L 499.344922 16.02 
L 535.344922 16.02 
L 535.344922 34.02 
L 571.344922 34.02 
L 571.344922 16.02 
L 607.344922 16.02 
L 607.344922 34.02 
L 643.344922 34.02 
L 643.344922 16.02 
L 679.344922 16.02 
L 679.344922 34.02 
L 715.344922 34.02 
" clip-path="url(#p6f007672ca)" style="fill: none; stroke: #000000; stroke-linecap: round"/>
   </g>
   <g id="line2d_12">
    <path d="M 67.344922 29.52 
L 67.344922 29.52 
" clip-path="url(#p6f007672ca)" style="fill: none; stroke: #000000; stroke-linecap: round"/>
   </g>
   <g id="patch_8">
    <path d="M 65.184922 29.52 
L 67.344922 20.52 
L 69.504922 29.52 
z
" clip-path="url(#p6f007672ca)"/>
   </g>
   <g id="line2d_13">
    <path d="M 139.344922 29.52 
L 139.344922 29.52 
" clip-path="url(#p6f007672ca)" style="fill: none; stroke: #000000; stroke-linecap: round"/>
   </g>
   <g id="patch_9">
    <path d="M 137.184922 29.52 
L 139.344922 20.52 
L 141.504922 29.52 
z
" clip-path="url(#p6f007672ca)"/>
   </g>
   <g id="line2d_14">
    <path d="M 211.344922 29.52 
L 211.344922 29.52 
" clip-path="url(#p6f007672ca)" style="fill: none; stroke: #000000; stroke-linecap: round"/>
   </g>
   <g id="patch_10">
    <path d="M 209.184922 29.52 
L 211.344922 20.52 
L 213.504922 29.52 
z
" clip-path="url(#p6f007672ca)"/>
   </g>
   <g id="line2d_15">
    <path d="M 283.344922 29.52 
L 283.344922 29.52 
" clip-path="url(#p6f007672ca)" style="fill: none; stroke: #000000; stroke-linecap: round"/>
   </g>
   <g id="patch_11">
    <path d="M 281.184922 29.52 
L 283.344922 20.52 
L 285.504922 29.52 
z
" clip-path="url(#p6f007672ca)"/>
   </g>
   <g id="line2d_16">
    <path d="M 355.344922 29.52 
L 355.344922 29.52 
" clip-path="url(#p6f007672ca)" style="fill: none; stroke: #000000; stroke-linecap: round"/>
   </g>
   <g id="patch_12">
    <path d="M 353.184922 29.52 
L 355.344922 20.52 
L 357.504922 29.52 
z
" clip-path="url(#p6f007672ca)"/>
   </g>
   <g id="line2d_17">
    <path d="M 427.344922 29.52 
L 427.344922 29.52 
" clip-path="url(#p6f007672ca)" style="fill: none; stroke: #000000; stroke-linecap: round"/>
   </g>
   <g id="patch_13">
    <path d="M 425.184922 29.52 
L 427.344922 20.52 
L 429.504922 29.52 
z
" clip-path="url(#p6f007672ca)"/>
   </g>
   <g id="line2d_18">
    <path d="M 499.344922 29.52 
L 499.344922 29.52 
" clip-path="url(#p6f007672ca)" style="fill: none; stroke: #000000; stroke-linecap: round"/>
   </g>
   <g id="patch_14">
    <path d="M 497.184922 29.52 
L 499.344922 20.52 
L 501.504922 29.52 
z
" clip-path="url(#p6f007672ca)"/>
   </g>
   <g id="line2d_19">
    <path d="M 571.344922 29.52 
L 571.344922 29.52 
" clip-path="url(#p6f007672ca)" style="fill: none; stroke: #000000; stroke-linecap: round"/>
   </g>
   <g id="patch_15">
    <path d="M 569.184922 29.52 
L 571.344922 20.52 
L 573.504922 29.52 
z
" clip-path="url(#p6f007672ca)"/>
   </g>
   <g id="line2d_20">
    <path d="M 643.344922 29.52 
L 643.344922 29.52 
" clip-path="url(#p6f007672ca)" style="fill: none; stroke: #000000; stroke-linecap: round"/>
   </g>
   <g id="patch_16">
    <path d="M 641.184922 29.52 
L 643.344922 20.52 
L 645.504922 29.52 
z
" clip-path="url(#p6f007672ca)"/>
   </g>
   <g id="line2d_21">
    <path d="M 67.344922 48.42 
L 139.344922 48.42 
" clip-path="url(#p6f007672ca)" style="fill: none; stroke: #000000; stroke-linecap: round"/>
   </g>
   <g id="line2d_22">
    <path d="M 139.344922 48.42 
L 144.744922 66.42 
L 499.344922 66.42 
" clip-path="url(#p6f007672ca)" style="fill: none; stroke: #000000; stroke-linecap: round"/>
   </g>
   <g id="line2d_23">
    <path d="M 499.344922 66.42 
L 504.744922 48.42 
L 715.344922 48.42 
" clip-path="url(#p6f007672ca)" style="fill: none; stroke: #000000; stroke-linecap: round"/>
   </g>
   <g id="text_1">
    <!-- clk -->
    <g style="fill: #0000ff" transform="translate(42.560937 31.420391) scale(0.125 -0.125)">
     <defs>
      <path id="DejaVuSans-63" d="M 3122 3366 
L 3122 2828 
Q 2878 2963 2633 3030 
Q 2388 3097 2138 3097 
Q 1578 3097 1268 2742 
Q 959 2388 959 1747 
Q 959 1106 1268 751 
Q 1578 397 2138 397 
Q 2388 397 2633 464 
Q 2878 531 3122 666 
L 3122 134 
Q 2881 22 2623 -34 
Q 2366 -91 2075 -91 
Q 1284 -91 818 406 
Q 353 903 353 1747 
Q 353 2603 823 3093 
Q 1294 3584 2113 3584 
Q 2378 3584 2631 3529 
Q 2884 3475 3122 3366 
z
" transform="scale(0.015625)"/>
      <path id="DejaVuSans-6c" d="M 603 4863 
L 1178 4863 
L 1178 0 
L 603 0 
L 603 4863 
z
" transform="scale(0.015625)"/>
      <path id="DejaVuSans-6b" d="M 581 4863 
L 1159 4863 
L 1159 1991 
L 2875 3500 
L 3609 3500 
L 1753 1863 
L 3688 0 
L 2938 0 
L 1159 1709 
L 1159 0 
L 581 0 
L 581 4863 
z
" transform="scale(0.015625)"/>
     </defs>
     <use xlink:href="#DejaVuSans-63"/>
     <use xlink:href="#DejaVuSans-6c" x="54.980469"/>
     <use xlink:href="#DejaVuSans-6b" x="82.763672"/>
    </g>
   </g>
   <g id="text_2">
    <!-- enable_n -->
    <g style="fill: #0000ff" transform="translate(3.6 63.472734) scale(0.125 -0.125)">
     <defs>
      <path id="DejaVuSans-65" d="M 3597 1894 
L 3597 1613 
L 953 1613 
Q 991 1019 1311 708 
Q 1631 397 2203 397 
Q 2534 397 2845 478 
Q 3156 559 3463 722 
L 3463 178 
Q 3153 47 2828 -22 
Q 2503 -91 2169 -91 
Q 1331 -91 842 396 
Q 353 884 353 1716 
Q 353 2575 817 3079 
Q 1281 3584 2069 3584 
Q 2775 3584 3186 3129 
Q 3597 2675 3597 1894 
z
M 3022 2063 
Q 3016 2534 2758 2815 
Q 2500 3097 2075 3097 
Q 1594 3097 1305 2825 
Q 1016 2553 972 2059 
L 3022 2063 
z
" transform="scale(0.015625)"/>
      <path id="DejaVuSans-6e" d="M 3513 2113 
L 3513 0 
L 2938 0 
L 2938 2094 
Q 2938 2591 2744 2837 
Q 2550 3084 2163 3084 
Q 1697 3084 1428 2787 
Q 1159 2491 1159 1978 
L 1159 0 
L 581 0 
L 581 3500 
L 1159 3500 
L 1159 2956 
Q 1366 3272 1645 3428 
Q 1925 3584 2291 3584 
Q 2894 3584 3203 3211 
Q 3513 2838 3513 2113 
z
" transform="scale(0.015625)"/>
      <path id="DejaVuSans-61" d="M 2194 1759 
Q 1497 1759 1228 1600 
Q 959 1441 959 1056 
Q 959 750 1161 570 
Q 1363 391 1709 391 
Q 2188 391 2477 730 
Q 2766 1069 2766 1631 
L 2766 1759 
L 2194 1759 
z
M 3341 1997 
L 3341 0 
L 2766 0 
L 2766 531 
Q 2569 213 2275 61 
Q 1981 -91 1556 -91 
Q 1019 -91 701 211 
Q 384 513 384 1019 
Q 384 1609 779 1909 
Q 1175 2209 1959 2209 
L 2766 2209 
L 2766 2266 
Q 2766 2663 2505 2880 
Q 2244 3097 1772 3097 
Q 1472 3097 1187 3025 
Q 903 2953 641 2809 
L 641 3341 
Q 956 3463 1253 3523 
Q 1550 3584 1831 3584 
Q 2591 3584 2966 3190 
Q 3341 2797 3341 1997 
z
" transform="scale(0.015625)"/>
      <path id="DejaVuSans-62" d="M 3116 1747 
Q 3116 2381 2855 2742 
Q 2594 3103 2138 3103 
Q 1681 3103 1420 2742 
Q 1159 2381 1159 1747 
Q 1159 1113 1420 752 
Q 1681 391 2138 391 
Q 2594 391 2855 752 
Q 3116 1113 3116 1747 
z
M 1159 2969 
Q 1341 3281 1617 3432 
Q 1894 3584 2278 3584 
Q 2916 3584 3314 3078 
Q 3713 2572 3713 1747 
Q 3713 922 3314 415 
Q 2916 -91 2278 -91 
Q 1894 -91 1617 61 
Q 1341 213 1159 525 
L 1159 0 
L 581 0 
L 581 4863 
L 1159 4863 
L 1159 2969 
z
" transform="scale(0.015625)"/>
      <path id="DejaVuSans-5f" d="M 3263 -1063 
L 3263 -1509 
L -63 -1509 
L -63 -1063 
L 3263 -1063 
z
" transform="scale(0.015625)"/>
     </defs>
     <use xlink:href="#DejaVuSans-65"/>
     <use xlink:href="#DejaVuSans-6e" x="61.523438"/>
     <use xlink:href="#DejaVuSans-61" x="124.902344"/>
     <use xlink:href="#DejaVuSans-62" x="186.181641"/>
     <use xlink:href="#DejaVuSans-6c" x="249.658203"/>
     <use xlink:href="#DejaVuSans-65" x="277.441406"/>
     <use xlink:href="#DejaVuSans-5f" x="338.964844"/>
     <use xlink:href="#DejaVuSans-6e" x="388.964844"/>
    </g>
   </g>
   <g id="text_3">
    <!-- counter -->
    <g style="fill: #0000ff" transform="translate(12.049219 96.220391) scale(0.125 -0.125)">
     <defs>
      <path id="DejaVuSans-6f" d="M 1959 3097 
Q 1497 3097 1228 2736 
Q 959 2375 959 1747 
Q 959 1119 1226 758 
Q 1494 397 1959 397 
Q 2419 397 2687 759 
Q 2956 1122 2956 1747 
Q 2956 2369 2687 2733 
Q 2419 3097 1959 3097 
z
M 1959 3584 
Q 2709 3584 3137 3096 
Q 3566 2609 3566 1747 
Q 3566 888 3137 398 
Q 2709 -91 1959 -91 
Q 1206 -91 779 398 
Q 353 888 353 1747 
Q 353 2609 779 3096 
Q 1206 3584 1959 3584 
z
" transform="scale(0.015625)"/>
      <path id="DejaVuSans-75" d="M 544 1381 
L 544 3500 
L 1119 3500 
L 1119 1403 
Q 1119 906 1312 657 
Q 1506 409 1894 409 
Q 2359 409 2629 706 
Q 2900 1003 2900 1516 
L 2900 3500 
L 3475 3500 
L 3475 0 
L 2900 0 
L 2900 538 
Q 2691 219 2414 64 
Q 2138 -91 1772 -91 
Q 1169 -91 856 284 
Q 544 659 544 1381 
z
M 1991 3584 
L 1991 3584 
z
" transform="scale(0.015625)"/>
      <path id="DejaVuSans-74" d="M 1172 4494 
L 1172 3500 
L 2356 3500 
L 2356 3053 
L 1172 3053 
L 1172 1153 
Q 1172 725 1289 603 
Q 1406 481 1766 481 
L 2356 481 
L 2356 0 
L 1766 0 
Q 1100 0 847 248 
Q 594 497 594 1153 
L 594 3053 
L 172 3053 
L 172 3500 
L 594 3500 
L 594 4494 
L 1172 4494 
z
" transform="scale(0.015625)"/>
      <path id="DejaVuSans-72" d="M 2631 2963 
Q 2534 3019 2420 3045 
Q 2306 3072 2169 3072 
Q 1681 3072 1420 2755 
Q 1159 2438 1159 1844 
L 1159 0 
L 581 0 
L 581 3500 
L 1159 3500 
L 1159 2956 
Q 1341 3275 1631 3429 
Q 1922 3584 2338 3584 
Q 2397 3584 2469 3576 
Q 2541 3569 2628 3553 
L 2631 2963 
z
" transform="scale(0.015625)"/>
     </defs>
     <use xlink:href="#DejaVuSans-63"/>
     <use xlink:href="#DejaVuSans-6f" x="54.980469"/>
     <use xlink:href="#DejaVuSans-75" x="116.162109"/>
     <use xlink:href="#DejaVuSans-6e" x="179.541016"/>
     <use xlink:href="#DejaVuSans-74" x="242.919922"/>
     <use xlink:href="#DejaVuSans-65" x="282.128906"/>
     <use xlink:href="#DejaVuSans-72" x="343.652344"/>
    </g>
   </g>
   <g id="text_4">
    <!-- 0 -->
    <g transform="translate(139.022734 92.441406) scale(0.095 -0.095)">
     <defs>
      <path id="DejaVuSans-30" d="M 2034 4250 
Q 1547 4250 1301 3770 
Q 1056 3291 1056 2328 
Q 1056 1369 1301 889 
Q 1547 409 2034 409 
Q 2525 409 2770 889 
Q 3016 1369 3016 2328 
Q 3016 3291 2770 3770 
Q 2525 4250 2034 4250 
z
M 2034 4750 
Q 2819 4750 3233 4129 
Q 3647 3509 3647 2328 
Q 3647 1150 3233 529 
Q 2819 -91 2034 -91 
Q 1250 -91 836 529 
Q 422 1150 422 2328 
Q 422 3509 836 4129 
Q 1250 4750 2034 4750 
z
" transform="scale(0.015625)"/>
     </defs>
     <use xlink:href="#DejaVuSans-30"/>
    </g>
   </g>
   <g id="line2d_24">
    <path d="M 168.144922 100.123689 
L 168.36533 100.043791 
L 168.585738 99.951437 
L 168.806146 99.844828 
L 169.026555 99.721948 
L 169.246963 99.580561 
L 169.467371 99.418207 
L 169.687779 99.232206 
L 169.908187 99.019676 
L 170.128595 98.777566 
L 170.349004 98.502705 
L 170.569412 98.191878 
L 170.78982 97.841928 
L 171.010228 97.449881 
L 171.230636 97.01311 
L 171.451044 96.529517 
L 171.671452 95.997744 
L 171.891861 95.41738 
L 172.112269 94.789172 
L 172.332677 94.115201 
L 172.553085 93.399001 
L 172.773493 92.645602 
L 172.993901 91.861477 
L 173.21431 91.054378 
L 173.434718 90.233064 
L 173.655126 89.406936 
L 173.875534 88.585622 
L 174.095942 87.778523 
L 174.31635 86.994398 
L 174.536759 86.240999 
L 174.757167 85.524799 
L 174.977575 84.850828 
L 175.197983 84.22262 
L 175.418391 83.642256 
L 175.638799 83.110483 
L 175.859208 82.62689 
L 176.079616 82.190119 
L 176.300024 81.798072 
L 176.520432 81.448122 
L 176.74084 81.137295 
L 176.961248 80.862434 
L 177.181657 80.620324 
L 177.402065 80.407794 
L 177.622473 80.221793 
L 177.842881 80.059439 
L 178.063289 79.918052 
L 178.283697 79.795172 
L 178.504106 79.688563 
L 178.724514 79.596209 
L 178.944922 79.516311 
" clip-path="url(#p9279acc3aa)" style="fill: none; stroke: #000000; stroke-linecap: round"/>
   </g>
   <g id="line2d_25">
    <path d="M 171.744922 100.123689 
L 171.96533 100.043791 
L 172.185738 99.951437 
L 172.406146 99.844828 
L 172.626555 99.721948 
L 172.846963 99.580561 
L 173.067371 99.418207 
L 173.287779 99.232206 
L 173.508187 99.019676 
L 173.728595 98.777566 
L 173.949004 98.502705 
L 174.169412 98.191878 
L 174.38982 97.841928 
L 174.610228 97.449881 
L 174.830636 97.01311 
L 175.051044 96.529517 
L 175.271452 95.997744 
L 175.491861 95.41738 
L 175.712269 94.789172 
L 175.932677 94.115201 
L 176.153085 93.399001 
L 176.373493 92.645602 
L 176.593901 91.861477 
L 176.81431 91.054378 
L 177.034718 90.233064 
L 177.255126 89.406936 
L 177.475534 88.585622 
L 177.695942 87.778523 
L 177.91635 86.994398 
L 178.136759 86.240999 
L 178.357167 85.524799 
L 178.577575 84.850828 
L 178.797983 84.22262 
L 179.018391 83.642256 
L 179.238799 83.110483 
L 179.459208 82.62689 
L 179.679616 82.190119 
L 179.900024 81.798072 
L 180.120432 81.448122 
L 180.34084 81.137295 
L 180.561248 80.862434 
L 180.781657 80.620324 
L 181.002065 80.407794 
L 181.222473 80.221793 
L 181.442881 80.059439 
L 181.663289 79.918052 
L 181.883697 79.795172 
L 182.104106 79.688563 
L 182.324514 79.596209 
L 182.544922 79.516311 
" clip-path="url(#p9279acc3aa)" style="fill: none; stroke: #000000; stroke-linecap: round"/>
   </g>
   <g id="patch_17">
    <path d="M 168.144922 100.123689 
L 168.36533 100.043791 
L 168.585738 99.951437 
L 168.806146 99.844828 
L 169.026555 99.721948 
L 169.246963 99.580561 
L 169.467371 99.418207 
L 169.687779 99.232206 
L 169.908187 99.019676 
L 170.128595 98.777566 
L 170.349004 98.502705 
L 170.569412 98.191878 
L 170.78982 97.841928 
L 171.010228 97.449881 
L 171.230636 97.01311 
L 171.451044 96.529517 
L 171.671452 95.997744 
L 171.891861 95.41738 
L 172.112269 94.789172 
L 172.332677 94.115201 
L 172.553085 93.399001 
L 172.773493 92.645602 
L 172.993901 91.861477 
L 173.21431 91.054378 
L 173.434718 90.233064 
L 173.655126 89.406936 
L 173.875534 88.585622 
L 174.095942 87.778523 
L 174.31635 86.994398 
L 174.536759 86.240999 
L 174.757167 85.524799 
L 174.977575 84.850828 
L 175.197983 84.22262 
L 175.418391 83.642256 
L 175.638799 83.110483 
L 175.859208 82.62689 
L 176.079616 82.190119 
L 176.300024 81.798072 
L 176.520432 81.448122 
L 176.74084 81.137295 
L 176.961248 80.862434 
L 177.181657 80.620324 
L 177.402065 80.407794 
L 177.622473 80.221793 
L 177.842881 80.059439 
L 178.063289 79.918052 
L 178.283697 79.795172 
L 178.504106 79.688563 
L 178.724514 79.596209 
L 178.944922 79.516311 
L 182.544922 79.516311 
L 182.324514 79.596209 
L 182.104106 79.688563 
L 181.883697 79.795172 
L 181.663289 79.918052 
L 181.442881 80.059439 
L 181.222473 80.221793 
L 181.002065 80.407794 
L 180.781657 80.620324 
L 180.561248 80.862434 
L 180.34084 81.137295 
L 180.120432 81.448122 
L 179.900024 81.798072 
L 179.679616 82.190119 
L 179.459208 82.62689 
L 179.238799 83.110483 
L 179.018391 83.642256 
L 178.797983 84.22262 
L 178.577575 84.850828 
L 178.357167 85.524799 
L 178.136759 86.240999 
L 177.91635 86.994398 
L 177.695942 87.778523 
L 177.475534 88.585622 
L 177.255126 89.406936 
L 177.034718 90.233064 
L 176.81431 91.054378 
L 176.593901 91.861477 
L 176.373493 92.645602 
L 176.153085 93.399001 
L 175.932677 94.115201 
L 175.712269 94.789172 
L 175.491861 95.41738 
L 175.271452 95.997744 
L 175.051044 96.529517 
L 174.830636 97.01311 
L 174.610228 97.449881 
L 174.38982 97.841928 
L 174.169412 98.191878 
L 173.949004 98.502705 
L 173.728595 98.777566 
L 173.508187 99.019676 
L 173.287779 99.232206 
L 173.067371 99.418207 
L 172.846963 99.580561 
L 172.626555 99.721948 
L 172.406146 99.844828 
L 172.185738 99.951437 
L 171.96533 100.043791 
L 171.744922 100.123689 
" clip-path="url(#p9279acc3aa)" style="fill: #ffffff"/>
   </g>
   <g id="text_5">
    <!-- 1 -->
    <g transform="translate(247.022734 92.441406) scale(0.095 -0.095)">
     <defs>
      <path id="DejaVuSans-31" d="M 794 531 
L 1825 531 
L 1825 4091 
L 703 3866 
L 703 4441 
L 1819 4666 
L 2450 4666 
L 2450 531 
L 3481 531 
L 3481 0 
L 794 0 
L 794 531 
z
" transform="scale(0.015625)"/>
     </defs>
     <use xlink:href="#DejaVuSans-31"/>
    </g>
   </g>
   <g id="text_6">
    <!-- 2 -->
    <g transform="translate(319.022734 92.441406) scale(0.095 -0.095)">
     <defs>
      <path id="DejaVuSans-32" d="M 1228 531 
L 3431 531 
L 3431 0 
L 469 0 
L 469 531 
Q 828 903 1448 1529 
Q 2069 2156 2228 2338 
Q 2531 2678 2651 2914 
Q 2772 3150 2772 3378 
Q 2772 3750 2511 3984 
Q 2250 4219 1831 4219 
Q 1534 4219 1204 4116 
Q 875 4013 500 3803 
L 500 4441 
Q 881 4594 1212 4672 
Q 1544 4750 1819 4750 
Q 2544 4750 2975 4387 
Q 3406 4025 3406 3419 
Q 3406 3131 3298 2873 
Q 3191 2616 2906 2266 
Q 2828 2175 2409 1742 
Q 1991 1309 1228 531 
z
" transform="scale(0.015625)"/>
     </defs>
     <use xlink:href="#DejaVuSans-32"/>
    </g>
   </g>
   <g id="text_7">
    <!-- 3 -->
    <g transform="translate(391.022734 92.441406) scale(0.095 -0.095)">
     <defs>
      <path id="DejaVuSans-33" d="M 2597 2516 
Q 3050 2419 3304 2112 
Q 3559 1806 3559 1356 
Q 3559 666 3084 287 
Q 2609 -91 1734 -91 
Q 1441 -91 1130 -33 
Q 819 25 488 141 
L 488 750 
Q 750 597 1062 519 
Q 1375 441 1716 441 
Q 2309 441 2620 675 
Q 2931 909 2931 1356 
Q 2931 1769 2642 2001 
Q 2353 2234 1838 2234 
L 1294 2234 
L 1294 2753 
L 1863 2753 
Q 2328 2753 2575 2939 
Q 2822 3125 2822 3475 
Q 2822 3834 2567 4026 
Q 2313 4219 1838 4219 
Q 1578 4219 1281 4162 
Q 984 4106 628 3988 
L 628 4550 
Q 988 4650 1302 4700 
Q 1616 4750 1894 4750 
Q 2613 4750 3031 4423 
Q 3450 4097 3450 3541 
Q 3450 3153 3228 2886 
Q 3006 2619 2597 2516 
z
" transform="scale(0.015625)"/>
     </defs>
     <use xlink:href="#DejaVuSans-33"/>
    </g>
   </g>
   <g id="text_8">
    <!-- 4 -->
    <g transform="translate(463.022734 92.441406) scale(0.095 -0.095)">
     <defs>
      <path id="DejaVuSans-34" d="M 2419 4116 
L 825 1625 
L 2419 1625 
L 2419 4116 
z
M 2253 4666 
L 3047 4666 
L 3047 1625 
L 3713 1625 
L 3713 1100 
L 3047 1100 
L 3047 0 
L 2419 0 
L 2419 1100 
L 313 1100 
L 313 1709 
L 2253 4666 
z
" transform="scale(0.015625)"/>
     </defs>
     <use xlink:href="#DejaVuSans-34"/>
    </g>
   </g>
   <g id="text_9">
    <!-- 5 -->
    <g transform="translate(607.022734 92.441406) scale(0.095 -0.095)">
     <defs>
      <path id="DejaVuSans-35" d="M 691 4666 
L 3169 4666 
L 3169 4134 
L 1269 4134 
L 1269 2991 
Q 1406 3038 1543 3061 
Q 1681 3084 1819 3084 
Q 2600 3084 3056 2656 
Q 3513 2228 3513 1497 
Q 3513 744 3044 326 
Q 2575 -91 1722 -91 
Q 1428 -91 1123 -41 
Q 819 9 494 109 
L 494 744 
Q 775 591 1075 516 
Q 1375 441 1709 441 
Q 2250 441 2565 725 
Q 2881 1009 2881 1497 
Q 2881 1984 2565 2268 
Q 2250 2553 1709 2553 
Q 1456 2553 1204 2497 
Q 953 2441 691 2322 
L 691 4666 
z
" transform="scale(0.015625)"/>
     </defs>
     <use xlink:href="#DejaVuSans-35"/>
    </g>
   </g>
  </g>
 </g>
 <defs>
  <clipPath id="p9279acc3aa">
   <rect x="32.676922" y="3.6" width="715.176" height="114.84"/>
  </clipPath>
  <clipPath id="p6f007672ca">
   <rect x="67.344922" y="14.22" width="648" height="117"/>
  </clipPath>
 </defs>
</svg>
