<svg xmlns="http://www.w3.org/2000/svg" xml:lang="en" height="71.14pt" width="517.6912pt" viewBox="-94.4912 -27.02 517.6912 71.14"><path d="M 0.0,-22.679999999999996 L 0.0,42.12" style="stroke:#DDDDDD;fill:none;stroke-width:1;stroke-dasharray:2,3.3;stroke-linecap:round;stroke-linejoin:round;" /><path d="M 32.4,-22.679999999999996 L 32.4,42.12" style="stroke:#DDDDDD;fill:none;stroke-width:1;stroke-dasharray:2,3.3;stroke-linecap:round;stroke-linejoin:round;" /><path d="M 64.8,-22.679999999999996 L 64.8,42.12" style="stroke:#DDDDDD;fill:none;stroke-width:1;stroke-dasharray:2,3.3;stroke-linecap:round;stroke-linejoin:round;" /><path d="M 97.19999999999999,-22.679999999999996 L 97.19999999999999,42.12" style="stroke:#DDDDDD;fill:none;stroke-width:1;stroke-dasharray:2,3.3;stroke-linecap:round;stroke-linejoin:round;" /><path d="M 129.6,-22.679999999999996 L 129.6,42.12" style="stroke:#DDDDDD;fill:none;stroke-width:1;stroke-dasharray:2,3.3;stroke-linecap:round;stroke-linejoin:round;" /><path d="M 162.0,-22.679999999999996 L 162.0,42.12" style="stroke:#DDDDDD;fill:none;stroke-width:1;stroke-dasharray:2,3.3;stroke-linecap:round;stroke-linejoin:round;" /><path d="M 194.39999999999998,-22.679999999999996 L 194.39999999999998,42.12" style="stroke:#DDDDDD;fill:none;stroke-width:1;stroke-dasharray:2,3.3;stroke-linecap:round;stroke-linejoin:round;" /><path d="M 226.79999999999998,-22.679999999999996 L 226.79999999999998,42.12" style="stroke:#DDDDDD;fill:none;stroke-width:1;stroke-dasharray:2,3.3;stroke-linecap:round;stroke-linejoin:round;" /><path d="M 259.2,-22.679999999999996 L 259.2,42.12" style="stroke:#DDDDDD;fill:none;stroke-width:1;stroke-dasharray:2,3.3;stroke-linecap:round;stroke-linejoin:round;" /><path d="M 291.59999999999997,-22.679999999999996 L 291.59999999999997,42.12" style="stroke:#DDDDDD;fill:none;stroke-width:1;stroke-dasharray:2,3.3;stroke-linecap:round;stroke-linejoin:round;" /><path d="M 324.0,-22.679999999999996 L 324.0,42.12" style="stroke:#DDDDDD;fill:none;stroke-width:1;stroke-dasharray:2,3.3;stroke-linecap:round;stroke-linejoin:round;" /><path d="M 356.4,-22.679999999999996 L 356.4,42.12" style="stroke:#DDDDDD;fill:none;stroke-width:1;stroke-dasharray:2,3.3;stroke-linecap:round;stroke-linejoin:round;" /><path d="M 388.79999999999995,-22.679999999999996 L 388.79999999999995,42.12" style="stroke:#DDDDDD;fill:none;stroke-width:1;stroke-dasharray:2,3.3;stroke-linecap:round;stroke-linejoin:round;" /><path d="M 421.2,-22.679999999999996 L 421.2,42.12" style="stroke:#DDDDDD;fill:none;stroke-width:1;stroke-dasharray:2,3.3;stroke-linecap:round;stroke-linejoin:round;" /><defs>
    <clipPath id="clip0"><rect x="-1.0" y="-17.2" width="423.2" height="76.52" /></clipPath></defs><polygon points="64.8,-16.2 69.66,-0.0 97.19999999999999,-0.0 99.63,-8.1 97.19999999999999,-16.2 " style="stroke:black;fill:#feffc2;stroke-width:1;stroke-linecap:round;stroke-linejoin:round;" clip-path="url(#clip0)" /><polygon points="102.05999999999999,-16.2 99.63,-8.1 102.05999999999999,-0.0 129.6,-0.0 132.03,-8.1 129.6,-16.2 " style="stroke:black;fill:none;stroke-width:1;stroke-linecap:round;stroke-linejoin:round;" clip-path="url(#clip0)" /><polygon points="134.46,-16.2 132.03,-8.1 134.46,-0.0 162.0,-0.0 164.43,-8.1 162.0,-16.2 " style="stroke:black;fill:none;stroke-width:1;stroke-linecap:round;stroke-linejoin:round;" clip-path="url(#clip0)" /><polygon points="166.86,-16.2 164.43,-8.1 166.86,-0.0 194.39999999999998,-0.0 196.82999999999998,-8.1 194.39999999999998,-16.2 " style="stroke:black;fill:none;stroke-width:1;stroke-linecap:round;stroke-linejoin:round;" clip-path="url(#clip0)" /><polygon points="199.26,-16.2 196.82999999999998,-8.1 199.26,-0.0 226.79999999999998,-0.0 229.23,-8.1 226.79999999999998,-16.2 " style="stroke:black;fill:none;stroke-width:1;stroke-linecap:round;stroke-linejoin:round;" clip-path="url(#clip0)" /><polygon points="231.66,-16.2 229.23,-8.1 231.66,-0.0 259.2,-0.0 261.62999999999994,-8.1 259.2,-16.2 " style="stroke:black;fill:none;stroke-width:1;stroke-linecap:round;stroke-linejoin:round;" clip-path="url(#clip0)" /><polygon points="264.06,-16.2 261.62999999999994,-8.1 264.06,-0.0 291.59999999999997,-0.0 294.03,-8.1 291.59999999999997,-16.2 " style="stroke:black;fill:none;stroke-width:1;stroke-linecap:round;stroke-linejoin:round;" clip-path="url(#clip0)" /><polygon points="296.46,-16.2 294.03,-8.1 296.46,-0.0 324.0,-0.0 326.42999999999995,-8.1 324.0,-16.2 " style="stroke:black;fill:none;stroke-width:1;stroke-linecap:round;stroke-linejoin:round;" clip-path="url(#clip0)" /><polygon points="328.86,-16.2 326.42999999999995,-8.1 328.86,-0.0 356.4,-0.0 358.83,-8.1 356.4,-16.2 " style="stroke:black;fill:none;stroke-width:1;stroke-linecap:round;stroke-linejoin:round;" clip-path="url(#clip0)" /><polygon points="361.26,-16.2 358.83,-8.1 361.26,-0.0 388.79999999999995,-0.0 393.65999999999997,-16.2 " style="stroke:black;fill:#feffc2;stroke-width:1;stroke-linecap:round;stroke-linejoin:round;" clip-path="url(#clip0)" /><path d="M 0.0,-16.2 L 64.8,-16.2" style="stroke:black;fill:none;stroke-width:1;stroke-linecap:round;stroke-linejoin:round;" clip-path="url(#clip0)" /><path d="M 393.65999999999997,-16.2 L 421.2,-16.2" style="stroke:black;fill:none;stroke-width:1;stroke-linecap:round;stroke-linejoin:round;" clip-path="url(#clip0)" /><path d="M 0.0,12.96 L 64.8,12.96" style="stroke:black;fill:none;stroke-width:1;stroke-linecap:round;stroke-linejoin:round;" clip-path="url(#clip0)" /><path d="M 64.8,12.96 L 69.66,29.16 L 97.19999999999999,29.16" style="stroke:black;fill:none;stroke-width:1;stroke-linecap:round;stroke-linejoin:round;" clip-path="url(#clip0)" /><path d="M 97.19999999999999,29.16 L 102.05999999999999,12.96 L 129.6,12.96" style="stroke:black;fill:none;stroke-width:1;stroke-linecap:round;stroke-linejoin:round;" clip-path="url(#clip0)" /><path d="M 129.6,12.96 L 134.46,29.16 L 162.0,29.16" style="stroke:black;fill:none;stroke-width:1;stroke-linecap:round;stroke-linejoin:round;" clip-path="url(#clip0)" /><path d="M 162.0,29.16 L 166.86,12.96 L 259.2,12.96" style="stroke:black;fill:none;stroke-width:1;stroke-linecap:round;stroke-linejoin:round;" clip-path="url(#clip0)" /><path d="M 259.2,12.96 L 264.06,29.16 L 291.59999999999997,29.16" style="stroke:black;fill:none;stroke-width:1;stroke-linecap:round;stroke-linejoin:round;" clip-path="url(#clip0)" /><path d="M 291.59999999999997,29.16 L 296.46,12.96 L 324.0,12.96" style="stroke:black;fill:none;stroke-width:1;stroke-linecap:round;stroke-linejoin:round;" clip-path="url(#clip0)" /><path d="M 324.0,12.96 L 328.86,29.16 L 356.4,29.16" style="stroke:black;fill:none;stroke-width:1;stroke-linecap:round;stroke-linejoin:round;" clip-path="url(#clip0)" /><path d="M 356.4,29.16 L 361.26,12.96 L 421.2,12.96" style="stroke:black;fill:none;stroke-width:1;stroke-linecap:round;stroke-linejoin:round;" clip-path="url(#clip0)" /><text x="-6.48" y="-13.3" fill="blue" font-size="14" font-family="sans-serif" text-anchor="end" transform="rotate(0 -6.48 -2.0999999999999996)"><tspan x="-6.48" dy="11.200000000000001">TX bit position</tspan></text><text x="83.43" y="-14.15" fill="black" font-size="11" font-family="sans-serif" text-anchor="middle" transform="rotate(0 83.43 -9.75)"><tspan x="83.43" dy="8.8">start</tspan></text><text x="115.83" y="-14.15" fill="black" font-size="11" font-family="sans-serif" text-anchor="middle" transform="rotate(0 115.83 -9.75)"><tspan x="115.83" dy="8.8">D0</tspan></text><text x="148.23" y="-14.15" fill="black" font-size="11" font-family="sans-serif" text-anchor="middle" transform="rotate(0 148.23 -9.75)"><tspan x="148.23" dy="8.8">D1</tspan></text><text x="180.63" y="-14.15" fill="black" font-size="11" font-family="sans-serif" text-anchor="middle" transform="rotate(0 180.63 -9.75)"><tspan x="180.63" dy="8.8">D2</tspan></text><text x="213.03" y="-14.15" fill="black" font-size="11" font-family="sans-serif" text-anchor="middle" transform="rotate(0 213.03 -9.75)"><tspan x="213.03" dy="8.8">D3</tspan></text><text x="245.43" y="-14.15" fill="black" font-size="11" font-family="sans-serif" text-anchor="middle" transform="rotate(0 245.43 -9.75)"><tspan x="245.43" dy="8.8">D4</tspan></text><text x="277.83" y="-14.15" fill="black" font-size="11" font-family="sans-serif" text-anchor="middle" transform="rotate(0 277.83 -9.75)"><tspan x="277.83" dy="8.8">D5</tspan></text><text x="310.22999999999996" y="-14.15" fill="black" font-size="11" font-family="sans-serif" text-anchor="middle" transform="rotate(0 310.22999999999996 -9.75)"><tspan x="310.22999999999996" dy="8.8">D6</tspan></text><text x="342.62999999999994" y="-14.15" fill="black" font-size="11" font-family="sans-serif" text-anchor="middle" transform="rotate(0 342.62999999999994 -9.75)"><tspan x="342.62999999999994" dy="8.8">D7</tspan></text><text x="375.03" y="-14.15" fill="black" font-size="11" font-family="sans-serif" text-anchor="middle" transform="rotate(0 375.03 -9.75)"><tspan x="375.03" dy="8.8">stop</tspan></text><text x="-6.48" y="15.860000000000001" fill="blue" font-size="14" font-family="sans-serif" text-anchor="end" transform="rotate(0 -6.48 27.060000000000002)"><tspan x="-6.48" dy="11.200000000000001">TX</tspan></text></svg>