<svg xmlns="http://www.w3.org/2000/svg" xml:lang="en" height="98.32000000000001pt" width="643.63pt" viewBox="-58.43 -25.04 643.63 98.32000000000001"><path d="M 0.0,-22.679999999999996 L 0.0,71.28" style="stroke:#DDDDDD;fill:none;stroke-width:1;stroke-dasharray:2,3.3;stroke-linecap:round;stroke-linejoin:round;" /><path d="M 64.8,-22.679999999999996 L 64.8,71.28" style="stroke:#DDDDDD;fill:none;stroke-width:1;stroke-dasharray:2,3.3;stroke-linecap:round;stroke-linejoin:round;" /><path d="M 129.6,-22.679999999999996 L 129.6,71.28" style="stroke:#DDDDDD;fill:none;stroke-width:1;stroke-dasharray:2,3.3;stroke-linecap:round;stroke-linejoin:round;" /><path d="M 194.39999999999998,-22.679999999999996 L 194.39999999999998,71.28" style="stroke:#DDDDDD;fill:none;stroke-width:1;stroke-dasharray:2,3.3;stroke-linecap:round;stroke-linejoin:round;" /><path d="M 259.2,-22.679999999999996 L 259.2,71.28" style="stroke:#DDDDDD;fill:none;stroke-width:1;stroke-dasharray:2,3.3;stroke-linecap:round;stroke-linejoin:round;" /><path d="M 324.0,-22.679999999999996 L 324.0,71.28" style="stroke:#DDDDDD;fill:none;stroke-width:1;stroke-dasharray:2,3.3;stroke-linecap:round;stroke-linejoin:round;" /><path d="M 388.79999999999995,-22.679999999999996 L 388.79999999999995,71.28" style="stroke:#DDDDDD;fill:none;stroke-width:1;stroke-dasharray:2,3.3;stroke-linecap:round;stroke-linejoin:round;" /><path d="M 453.59999999999997,-22.679999999999996 L 453.59999999999997,71.28" style="stroke:#DDDDDD;fill:none;stroke-width:1;stroke-dasharray:2,3.3;stroke-linecap:round;stroke-linejoin:round;" /><path d="M 518.4,-22.679999999999996 L 518.4,71.28" style="stroke:#DDDDDD;fill:none;stroke-width:1;stroke-dasharray:2,3.3;stroke-linecap:round;stroke-linejoin:round;" /><path d="M 583.1999999999999,-22.679999999999996 L 583.1999999999999,71.28" style="stroke:#DDDDDD;fill:none;stroke-width:1;stroke-dasharray:2,3.3;stroke-linecap:round;stroke-linejoin:round;" /><defs>
    <clipPath id="clip0"><rect x="-1.0" y="-17.2" width="585.1999999999999" height="105.68" /></clipPath></defs><polyline points="0.0,58.32 129.6,58.32 132.03,50.22 129.6,42.12 0.0,42.12 " style="stroke:black;fill:none;stroke-width:1;stroke-linecap:round;stroke-linejoin:round;" clip-path="url(#clip0)" /><polygon points="134.46,42.12 132.03,50.22 134.46,58.32 194.39999999999998,58.32 196.82999999999998,50.22 194.39999999999998,42.12 " style="stroke:black;fill:#feffc2;stroke-width:1;stroke-linecap:round;stroke-linejoin:round;" clip-path="url(#clip0)" /><polygon points="199.26,42.12 196.82999999999998,50.22 199.26,58.32 259.2,58.32 261.62999999999994,50.22 259.2,42.12 " style="stroke:black;fill:#ffe2ba;stroke-width:1;stroke-linecap:round;stroke-linejoin:round;" clip-path="url(#clip0)" /><polygon points="264.06,42.12 261.62999999999994,50.22 264.06,58.32 324.0,58.32 326.42999999999995,50.22 324.0,42.12 " style="stroke:black;fill:#abd9ff;stroke-width:1;stroke-linecap:round;stroke-linejoin:round;" clip-path="url(#clip0)" /><polygon points="328.86,42.12 326.42999999999995,50.22 328.86,58.32 388.79999999999995,58.32 391.22999999999996,50.22 388.79999999999995,42.12 " style="stroke:black;fill:#bdfbff;stroke-width:1;stroke-linecap:round;stroke-linejoin:round;" clip-path="url(#clip0)" /><polyline points="583.1999999999999,42.12 393.65999999999997,42.12 391.22999999999996,50.22 393.65999999999997,58.32 583.1999999999999,58.32 " style="stroke:black;fill:#bdffcb;stroke-width:1;stroke-linecap:round;stroke-linejoin:round;" clip-path="url(#clip0)" /><path d="M 0.0,-0.0 L 0.0,-16.2 L 32.4,-16.2 L 32.4,-0.0 L 64.8,-0.0 L 64.8,-16.2 L 97.19999999999999,-16.2 L 97.19999999999999,-0.0 L 129.6,-0.0 L 129.6,-16.2 L 162.0,-16.2 L 162.0,-0.0 L 194.39999999999998,-0.0 L 194.39999999999998,-16.2 L 226.79999999999998,-16.2 L 226.79999999999998,-0.0 L 259.2,-0.0 L 259.2,-16.2 L 291.59999999999997,-16.2 L 291.59999999999997,-0.0 L 324.0,-0.0 L 324.0,-16.2 L 356.4,-16.2 L 356.4,-0.0 L 388.79999999999995,-0.0 L 388.79999999999995,-16.2 L 421.2,-16.2 L 421.2,-0.0 L 453.59999999999997,-0.0 L 453.59999999999997,-16.2 L 486.0,-16.2 L 486.0,-0.0 L 518.4,-0.0 L 518.4,-16.2 L 550.8,-16.2 L 550.8,-0.0 L 583.1999999999999,-0.0" style="stroke:black;fill:none;stroke-width:1;stroke-linecap:round;stroke-linejoin:round;" clip-path="url(#clip0)" /><path d="M 0.0,-4.05 L -4.959819536546781e-16,-4.05" style="stroke:black;fill:none;stroke-width:1;stroke-linecap:round;stroke-linejoin:round;" clip-path="url(#clip0)" /><path d="M -1.2246467991473532e-16 -10.149999999999999 L 1.9439999999999995 -4.049999999999998 L -1.9440000000000004 -4.049999999999998 Z" style="stroke:black;fill:black;stroke-linecap:butt;stroke-linejoin:miter;" clip-path="url(#clip0)" /><path d="M 64.8,-4.05 L 64.8,-4.05" style="stroke:black;fill:none;stroke-width:1;stroke-linecap:round;stroke-linejoin:round;" clip-path="url(#clip0)" /><path d="M 64.8 -10.149999999999999 L 66.744 -4.049999999999998 L 62.855999999999995 -4.049999999999998 Z" style="stroke:black;fill:black;stroke-linecap:butt;stroke-linejoin:miter;" clip-path="url(#clip0)" /><path d="M 129.6,-4.05 L 129.6,-4.05" style="stroke:black;fill:none;stroke-width:1;stroke-linecap:round;stroke-linejoin:round;" clip-path="url(#clip0)" /><path d="M 129.6 -10.149999999999999 L 131.54399999999998 -4.049999999999998 L 127.65599999999999 -4.049999999999998 Z" style="stroke:black;fill:black;stroke-linecap:butt;stroke-linejoin:miter;" clip-path="url(#clip0)" /><path d="M 194.39999999999998,-4.05 L 194.39999999999998,-4.05" style="stroke:black;fill:none;stroke-width:1;stroke-linecap:round;stroke-linejoin:round;" clip-path="url(#clip0)" /><path d="M 194.39999999999998 -10.149999999999999 L 196.34399999999997 -4.049999999999998 L 192.456 -4.049999999999998 Z" style="stroke:black;fill:black;stroke-linecap:butt;stroke-linejoin:miter;" clip-path="url(#clip0)" /><path d="M 259.2,-4.05 L 259.2,-4.05" style="stroke:black;fill:none;stroke-width:1;stroke-linecap:round;stroke-linejoin:round;" clip-path="url(#clip0)" /><path d="M 259.2 -10.149999999999999 L 261.144 -4.049999999999998 L 257.256 -4.049999999999998 Z" style="stroke:black;fill:black;stroke-linecap:butt;stroke-linejoin:miter;" clip-path="url(#clip0)" /><path d="M 324.0,-4.05 L 324.0,-4.05" style="stroke:black;fill:none;stroke-width:1;stroke-linecap:round;stroke-linejoin:round;" clip-path="url(#clip0)" /><path d="M 324.0 -10.149999999999999 L 325.944 -4.049999999999998 L 322.056 -4.049999999999998 Z" style="stroke:black;fill:black;stroke-linecap:butt;stroke-linejoin:miter;" clip-path="url(#clip0)" /><path d="M 388.79999999999995,-4.05 L 388.79999999999995,-4.05" style="stroke:black;fill:none;stroke-width:1;stroke-linecap:round;stroke-linejoin:round;" clip-path="url(#clip0)" /><path d="M 388.79999999999995 -10.149999999999999 L 390.74399999999997 -4.049999999999998 L 386.85599999999994 -4.049999999999998 Z" style="stroke:black;fill:black;stroke-linecap:butt;stroke-linejoin:miter;" clip-path="url(#clip0)" /><path d="M 453.59999999999997,-4.05 L 453.59999999999997,-4.05" style="stroke:black;fill:none;stroke-width:1;stroke-linecap:round;stroke-linejoin:round;" clip-path="url(#clip0)" /><path d="M 453.59999999999997 -10.149999999999999 L 455.544 -4.049999999999998 L 451.65599999999995 -4.049999999999998 Z" style="stroke:black;fill:black;stroke-linecap:butt;stroke-linejoin:miter;" clip-path="url(#clip0)" /><path d="M 518.4,-4.05 L 518.4,-4.05" style="stroke:black;fill:none;stroke-width:1;stroke-linecap:round;stroke-linejoin:round;" clip-path="url(#clip0)" /><path d="M 518.4 -10.149999999999999 L 520.3439999999999 -4.049999999999998 L 516.456 -4.049999999999998 Z" style="stroke:black;fill:black;stroke-linecap:butt;stroke-linejoin:miter;" clip-path="url(#clip0)" /><path d="M 0.0,29.16 L 64.8,29.16" style="stroke:black;fill:none;stroke-width:1;stroke-linecap:round;stroke-linejoin:round;" clip-path="url(#clip0)" /><path d="M 64.8,29.16 L 69.66,12.96 L 388.79999999999995,12.96" style="stroke:black;fill:none;stroke-width:1;stroke-linecap:round;stroke-linejoin:round;" clip-path="url(#clip0)" /><path d="M 388.79999999999995,12.96 L 393.65999999999997,29.16 L 583.1999999999999,29.16" style="stroke:black;fill:none;stroke-width:1;stroke-linecap:round;stroke-linejoin:round;" clip-path="url(#clip0)" /><text x="-6.48" y="-13.3" fill="blue" font-size="14" font-family="sans-serif" text-anchor="end" transform="rotate(0 -6.48 -2.0999999999999996)"><tspan x="-6.48" dy="11.200000000000001">clk</tspan></text><text x="-6.48" y="15.860000000000001" fill="blue" font-size="14" font-family="sans-serif" text-anchor="end" transform="rotate(0 -6.48 27.060000000000002)"><tspan x="-6.48" dy="11.200000000000001">enable</tspan></text><text x="-6.48" y="45.019999999999996" fill="blue" font-size="14" font-family="sans-serif" text-anchor="end" transform="rotate(0 -6.48 56.22)"><tspan x="-6.48" dy="11.200000000000001">counter</tspan></text><text x="67.23" y="44.17" fill="black" font-size="11" font-family="sans-serif" text-anchor="middle" transform="rotate(0 67.23 48.57)"><tspan x="67.23" dy="8.8">0</tspan></text><path d="M 90.72,59.493319928949106 L 90.91836734693878,59.42141151507443 L 91.11673469387756,59.338293715998425 L 91.31510204081633,59.24234523971577 L 91.51346938775511,59.13175319536714 L 91.71183673469388,59.00450516347385 L 91.91020408163266,58.85838656203356 L 92.10857142857142,58.690985616587426 L 92.30693877551022,58.49970871926509 L 92.50530612244899,58.28180939475366 L 92.70367346938775,58.03443439126518 L 92.90204081632652,57.7546904557115 L 93.10040816326531,57.439734971077634 L 93.29877551020408,57.08689264062344 L 93.49714285714286,56.69379860925747 L 93.69551020408164,56.258565678897774 L 93.89387755102041,55.779969586575604 L 94.09224489795918,55.2576418669054 L 94.29061224489796,54.69225510126037 L 94.48897959183674,54.085681178761426 L 94.68734693877552,53.44110064386976 L 94.88571428571429,52.763041449507924 L 95.08408163265307,52.05732940240683 L 95.28244897959183,51.330940578714824 L 95.48081632653061,50.59175734668053 L 95.67918367346938,49.84824265331946 L 95.87755102040818,49.10905942128518 L 96.07591836734694,48.38267059759317 L 96.27428571428571,47.676958550492074 L 96.47265306122448,46.99889935613024 L 96.67102040816327,46.35431882123857 L 96.86938775510204,45.74774489873963 L 97.06775510204082,45.182358133094596 L 97.2661224489796,44.660030413424394 L 97.46448979591837,44.18143432110222 L 97.66285714285713,43.74620139074253 L 97.86122448979592,43.35310735937656 L 98.0595918367347,43.000265028922364 L 98.25795918367348,42.6853095442885 L 98.45632653061224,42.40556560873482 L 98.65469387755103,42.15819060524634 L 98.8530612244898,41.94029128073491 L 99.05142857142857,41.74901438341257 L 99.24979591836734,41.58161343796644 L 99.44816326530614,41.435494836526146 L 99.6465306122449,41.30824680463286 L 99.84489795918367,41.19765476028423 L 100.04326530612246,41.10170628400158 L 100.24163265306123,41.018588484925566 L 100.44,40.9466800710509" style="stroke:black;fill:none;stroke-width:1;stroke-linecap:round;stroke-linejoin:round;" /><path d="M 93.96,59.493319928949106 L 94.15836734693876,59.42141151507443 L 94.35673469387756,59.338293715998425 L 94.55510204081632,59.24234523971577 L 94.75346938775509,59.13175319536714 L 94.95183673469386,59.00450516347385 L 95.15020408163265,58.85838656203356 L 95.34857142857142,58.690985616587426 L 95.5469387755102,58.49970871926509 L 95.74530612244897,58.28180939475366 L 95.94367346938775,58.03443439126518 L 96.14204081632651,57.7546904557115 L 96.3404081632653,57.439734971077634 L 96.53877551020408,57.08689264062344 L 96.73714285714286,56.69379860925747 L 96.93551020408162,56.258565678897774 L 97.13387755102039,55.779969586575604 L 97.33224489795917,55.2576418669054 L 97.53061224489795,54.69225510126037 L 97.72897959183672,54.085681178761426 L 97.92734693877551,53.44110064386976 L 98.12571428571428,52.763041449507924 L 98.32408163265305,52.05732940240683 L 98.52244897959181,51.330940578714824 L 98.72081632653061,50.59175734668053 L 98.91918367346938,49.84824265331946 L 99.11755102040816,49.10905942128518 L 99.31591836734692,48.38267059759317 L 99.5142857142857,47.676958550492074 L 99.71265306122447,46.99889935613024 L 99.91102040816325,46.35431882123857 L 100.10938775510203,45.74774489873963 L 100.30775510204082,45.182358133094596 L 100.50612244897958,44.660030413424394 L 100.70448979591835,44.18143432110222 L 100.90285714285713,43.74620139074253 L 101.10122448979591,43.35310735937656 L 101.29959183673468,43.000265028922364 L 101.49795918367347,42.6853095442885 L 101.69632653061224,42.40556560873482 L 101.894693877551,42.15819060524634 L 102.09306122448979,41.94029128073491 L 102.29142857142857,41.74901438341257 L 102.48979591836734,41.58161343796644 L 102.68816326530612,41.435494836526146 L 102.88653061224488,41.30824680463286 L 103.08489795918366,41.19765476028423 L 103.28326530612244,41.10170628400158 L 103.48163265306121,41.018588484925566 L 103.67999999999999,40.9466800710509" style="stroke:black;fill:none;stroke-width:1;stroke-linecap:round;stroke-linejoin:round;" /><polyline points="90.72,59.493319928949106 90.91836734693878,59.42141151507443 91.11673469387756,59.338293715998425 91.31510204081633,59.24234523971577 91.51346938775511,59.13175319536714 91.71183673469388,59.00450516347385 91.91020408163266,58.85838656203356 92.10857142857142,58.690985616587426 92.30693877551022,58.49970871926509 92.50530612244899,58.28180939475366 92.70367346938775,58.03443439126518 92.90204081632652,57.7546904557115 93.10040816326531,57.439734971077634 93.29877551020408,57.08689264062344 93.49714285714286,56.69379860925747 93.69551020408164,56.258565678897774 93.89387755102041,55.779969586575604 94.09224489795918,55.2576418669054 94.29061224489796,54.69225510126037 94.48897959183674,54.085681178761426 94.68734693877552,53.44110064386976 94.88571428571429,52.763041449507924 95.08408163265307,52.05732940240683 95.28244897959183,51.330940578714824 95.48081632653061,50.59175734668053 95.67918367346938,49.84824265331946 95.87755102040818,49.10905942128518 96.07591836734694,48.38267059759317 96.27428571428571,47.676958550492074 96.47265306122448,46.99889935613024 96.67102040816327,46.35431882123857 96.86938775510204,45.74774489873963 97.06775510204082,45.182358133094596 97.2661224489796,44.660030413424394 97.46448979591837,44.18143432110222 97.66285714285713,43.74620139074253 97.86122448979592,43.35310735937656 98.0595918367347,43.000265028922364 98.25795918367348,42.6853095442885 98.45632653061224,42.40556560873482 98.65469387755103,42.15819060524634 98.8530612244898,41.94029128073491 99.05142857142857,41.74901438341257 99.24979591836734,41.58161343796644 99.44816326530614,41.435494836526146 99.6465306122449,41.30824680463286 99.84489795918367,41.19765476028423 100.04326530612246,41.10170628400158 100.24163265306123,41.018588484925566 100.44,40.9466800710509 103.67999999999999,40.9466800710509 103.48163265306121,41.018588484925566 103.28326530612244,41.10170628400158 103.08489795918366,41.19765476028423 102.88653061224488,41.30824680463286 102.68816326530612,41.435494836526146 102.48979591836734,41.58161343796644 102.29142857142857,41.74901438341257 102.09306122448979,41.94029128073491 101.894693877551,42.15819060524634 101.69632653061224,42.40556560873482 101.49795918367347,42.6853095442885 101.29959183673468,43.000265028922364 101.10122448979591,43.35310735937656 100.90285714285713,43.74620139074253 100.70448979591835,44.18143432110222 100.50612244897958,44.660030413424394 100.30775510204082,45.182358133094596 100.10938775510203,45.74774489873963 99.91102040816325,46.35431882123857 99.71265306122447,46.99889935613024 99.5142857142857,47.676958550492074 99.31591836734692,48.38267059759317 99.11755102040816,49.10905942128518 98.91918367346938,49.84824265331946 98.72081632653061,50.59175734668053 98.52244897959181,51.330940578714824 98.32408163265305,52.05732940240683 98.12571428571428,52.763041449507924 97.92734693877551,53.44110064386976 97.72897959183672,54.085681178761426 97.53061224489795,54.69225510126037 97.33224489795917,55.2576418669054 97.13387755102039,55.779969586575604 96.93551020408162,56.258565678897774 96.73714285714286,56.69379860925747 96.53877551020408,57.08689264062344 96.3404081632653,57.439734971077634 96.14204081632651,57.7546904557115 95.94367346938775,58.03443439126518 95.74530612244897,58.28180939475366 95.5469387755102,58.49970871926509 95.34857142857142,58.690985616587426 95.15020408163265,58.85838656203356 94.95183673469386,59.00450516347385 94.75346938775509,59.13175319536714 94.55510204081632,59.24234523971577 94.35673469387756,59.338293715998425 94.15836734693876,59.42141151507443 93.96,59.493319928949106 " style="stroke:none;fill:white;stroke-width:1;stroke-linecap:round;stroke-linejoin:round;" /><text x="164.43" y="44.17" fill="black" font-size="11" font-family="sans-serif" text-anchor="middle" transform="rotate(0 164.43 48.57)"><tspan x="164.43" dy="8.8">1</tspan></text><text x="229.23" y="44.17" fill="black" font-size="11" font-family="sans-serif" text-anchor="middle" transform="rotate(0 229.23 48.57)"><tspan x="229.23" dy="8.8">2</tspan></text><text x="294.03" y="44.17" fill="black" font-size="11" font-family="sans-serif" text-anchor="middle" transform="rotate(0 294.03 48.57)"><tspan x="294.03" dy="8.8">3</tspan></text><text x="358.83" y="44.17" fill="black" font-size="11" font-family="sans-serif" text-anchor="middle" transform="rotate(0 358.83 48.57)"><tspan x="358.83" dy="8.8">4</tspan></text><text x="488.42999999999995" y="44.17" fill="black" font-size="11" font-family="sans-serif" text-anchor="middle" transform="rotate(0 488.42999999999995 48.57)"><tspan x="488.42999999999995" dy="8.8">5</tspan></text></svg>