<svg xmlns="http://www.w3.org/2000/svg" xml:lang="en" height="311.8pt" width="739.2855999999999pt" viewBox="-40.685599999999994 -31.16 739.2855999999999 311.8"><defs><pattern id="hatch" patternUnits="userSpaceOnUse" width="4" height="4">
<path d="M-1,1 l2,-2 M0,4 l4,-4 M3,5 l2,-2" style="stroke:black; stroke-width:.5" /></pattern></defs><path d="M 0.0,-29.16 L 0.0,278.64" style="stroke:#DDDDDD;fill:none;stroke-width:1;stroke-dasharray:2,3.3;stroke-linecap:round;stroke-linejoin:round;" /><path d="M 16.2,-29.16 L 16.2,278.64" style="stroke:#DDDDDD;fill:none;stroke-width:1;stroke-dasharray:2,3.3;stroke-linecap:round;stroke-linejoin:round;" /><path d="M 32.4,-29.16 L 32.4,278.64" style="stroke:#DDDDDD;fill:none;stroke-width:1;stroke-dasharray:2,3.3;stroke-linecap:round;stroke-linejoin:round;" /><path d="M 48.599999999999994,-29.16 L 48.599999999999994,278.64" style="stroke:#DDDDDD;fill:none;stroke-width:1;stroke-dasharray:2,3.3;stroke-linecap:round;stroke-linejoin:round;" /><path d="M 64.8,-29.16 L 64.8,278.64" style="stroke:#DDDDDD;fill:none;stroke-width:1;stroke-dasharray:2,3.3;stroke-linecap:round;stroke-linejoin:round;" /><path d="M 81.0,-29.16 L 81.0,278.64" style="stroke:#DDDDDD;fill:none;stroke-width:1;stroke-dasharray:2,3.3;stroke-linecap:round;stroke-linejoin:round;" /><path d="M 97.19999999999999,-29.16 L 97.19999999999999,278.64" style="stroke:#DDDDDD;fill:none;stroke-width:1;stroke-dasharray:2,3.3;stroke-linecap:round;stroke-linejoin:round;" /><path d="M 113.39999999999999,-29.16 L 113.39999999999999,278.64" style="stroke:#DDDDDD;fill:none;stroke-width:1;stroke-dasharray:2,3.3;stroke-linecap:round;stroke-linejoin:round;" /><path d="M 129.6,-29.16 L 129.6,278.64" style="stroke:#DDDDDD;fill:none;stroke-width:1;stroke-dasharray:2,3.3;stroke-linecap:round;stroke-linejoin:round;" /><path d="M 145.79999999999998,-29.16 L 145.79999999999998,278.64" style="stroke:#DDDDDD;fill:none;stroke-width:1;stroke-dasharray:2,3.3;stroke-linecap:round;stroke-linejoin:round;" /><path d="M 162.0,-29.16 L 162.0,278.64" style="stroke:#DDDDDD;fill:none;stroke-width:1;stroke-dasharray:2,3.3;stroke-linecap:round;stroke-linejoin:round;" /><path d="M 178.2,-29.16 L 178.2,278.64" style="stroke:#DDDDDD;fill:none;stroke-width:1;stroke-dasharray:2,3.3;stroke-linecap:round;stroke-linejoin:round;" /><path d="M 194.39999999999998,-29.16 L 194.39999999999998,278.64" style="stroke:#DDDDDD;fill:none;stroke-width:1;stroke-dasharray:2,3.3;stroke-linecap:round;stroke-linejoin:round;" /><path d="M 210.6,-29.16 L 210.6,278.64" style="stroke:#DDDDDD;fill:none;stroke-width:1;stroke-dasharray:2,3.3;stroke-linecap:round;stroke-linejoin:round;" /><path d="M 226.79999999999998,-29.16 L 226.79999999999998,278.64" style="stroke:#DDDDDD;fill:none;stroke-width:1;stroke-dasharray:2,3.3;stroke-linecap:round;stroke-linejoin:round;" /><path d="M 243.0,-29.16 L 243.0,278.64" style="stroke:#DDDDDD;fill:none;stroke-width:1;stroke-dasharray:2,3.3;stroke-linecap:round;stroke-linejoin:round;" /><path d="M 259.2,-29.16 L 259.2,278.64" style="stroke:#DDDDDD;fill:none;stroke-width:1;stroke-dasharray:2,3.3;stroke-linecap:round;stroke-linejoin:round;" /><path d="M 275.4,-29.16 L 275.4,278.64" style="stroke:#DDDDDD;fill:none;stroke-width:1;stroke-dasharray:2,3.3;stroke-linecap:round;stroke-linejoin:round;" /><path d="M 291.59999999999997,-29.16 L 291.59999999999997,278.64" style="stroke:#DDDDDD;fill:none;stroke-width:1;stroke-dasharray:2,3.3;stroke-linecap:round;stroke-linejoin:round;" /><path d="M 307.8,-29.16 L 307.8,278.64" style="stroke:#DDDDDD;fill:none;stroke-width:1;stroke-dasharray:2,3.3;stroke-linecap:round;stroke-linejoin:round;" /><path d="M 324.0,-29.16 L 324.0,278.64" style="stroke:#DDDDDD;fill:none;stroke-width:1;stroke-dasharray:2,3.3;stroke-linecap:round;stroke-linejoin:round;" /><path d="M 340.2,-29.16 L 340.2,278.64" style="stroke:#DDDDDD;fill:none;stroke-width:1;stroke-dasharray:2,3.3;stroke-linecap:round;stroke-linejoin:round;" /><path d="M 356.4,-29.16 L 356.4,278.64" style="stroke:#DDDDDD;fill:none;stroke-width:1;stroke-dasharray:2,3.3;stroke-linecap:round;stroke-linejoin:round;" /><path d="M 372.59999999999997,-29.16 L 372.59999999999997,278.64" style="stroke:#DDDDDD;fill:none;stroke-width:1;stroke-dasharray:2,3.3;stroke-linecap:round;stroke-linejoin:round;" /><path d="M 388.79999999999995,-29.16 L 388.79999999999995,278.64" style="stroke:#DDDDDD;fill:none;stroke-width:1;stroke-dasharray:2,3.3;stroke-linecap:round;stroke-linejoin:round;" /><path d="M 405.0,-29.16 L 405.0,278.64" style="stroke:#DDDDDD;fill:none;stroke-width:1;stroke-dasharray:2,3.3;stroke-linecap:round;stroke-linejoin:round;" /><path d="M 421.2,-29.16 L 421.2,278.64" style="stroke:#DDDDDD;fill:none;stroke-width:1;stroke-dasharray:2,3.3;stroke-linecap:round;stroke-linejoin:round;" /><path d="M 437.4,-29.16 L 437.4,278.64" style="stroke:#DDDDDD;fill:none;stroke-width:1;stroke-dasharray:2,3.3;stroke-linecap:round;stroke-linejoin:round;" /><path d="M 453.59999999999997,-29.16 L 453.59999999999997,278.64" style="stroke:#DDDDDD;fill:none;stroke-width:1;stroke-dasharray:2,3.3;stroke-linecap:round;stroke-linejoin:round;" /><path d="M 469.79999999999995,-29.16 L 469.79999999999995,278.64" style="stroke:#DDDDDD;fill:none;stroke-width:1;stroke-dasharray:2,3.3;stroke-linecap:round;stroke-linejoin:round;" /><path d="M 486.0,-29.16 L 486.0,278.64" style="stroke:#DDDDDD;fill:none;stroke-width:1;stroke-dasharray:2,3.3;stroke-linecap:round;stroke-linejoin:round;" /><path d="M 502.2,-29.16 L 502.2,278.64" style="stroke:#DDDDDD;fill:none;stroke-width:1;stroke-dasharray:2,3.3;stroke-linecap:round;stroke-linejoin:round;" /><path d="M 518.4,-29.16 L 518.4,278.64" style="stroke:#DDDDDD;fill:none;stroke-width:1;stroke-dasharray:2,3.3;stroke-linecap:round;stroke-linejoin:round;" /><path d="M 534.6,-29.16 L 534.6,278.64" style="stroke:#DDDDDD;fill:none;stroke-width:1;stroke-dasharray:2,3.3;stroke-linecap:round;stroke-linejoin:round;" /><path d="M 550.8,-29.16 L 550.8,278.64" style="stroke:#DDDDDD;fill:none;stroke-width:1;stroke-dasharray:2,3.3;stroke-linecap:round;stroke-linejoin:round;" /><path d="M 567.0,-29.16 L 567.0,278.64" style="stroke:#DDDDDD;fill:none;stroke-width:1;stroke-dasharray:2,3.3;stroke-linecap:round;stroke-linejoin:round;" /><path d="M 583.1999999999999,-29.16 L 583.1999999999999,278.64" style="stroke:#DDDDDD;fill:none;stroke-width:1;stroke-dasharray:2,3.3;stroke-linecap:round;stroke-linejoin:round;" /><path d="M 599.4,-29.16 L 599.4,278.64" style="stroke:#DDDDDD;fill:none;stroke-width:1;stroke-dasharray:2,3.3;stroke-linecap:round;stroke-linejoin:round;" /><path d="M 615.6,-29.16 L 615.6,278.64" style="stroke:#DDDDDD;fill:none;stroke-width:1;stroke-dasharray:2,3.3;stroke-linecap:round;stroke-linejoin:round;" /><path d="M 631.8,-29.16 L 631.8,278.64" style="stroke:#DDDDDD;fill:none;stroke-width:1;stroke-dasharray:2,3.3;stroke-linecap:round;stroke-linejoin:round;" /><path d="M 648.0,-29.16 L 648.0,278.64" style="stroke:#DDDDDD;fill:none;stroke-width:1;stroke-dasharray:2,3.3;stroke-linecap:round;stroke-linejoin:round;" /><path d="M 664.1999999999999,-29.16 L 664.1999999999999,278.64" style="stroke:#DDDDDD;fill:none;stroke-width:1;stroke-dasharray:2,3.3;stroke-linecap:round;stroke-linejoin:round;" /><path d="M 680.4,-29.16 L 680.4,278.64" style="stroke:#DDDDDD;fill:none;stroke-width:1;stroke-dasharray:2,3.3;stroke-linecap:round;stroke-linejoin:round;" /><path d="M 696.6,-29.16 L 696.6,278.64" style="stroke:#DDDDDD;fill:none;stroke-width:1;stroke-dasharray:2,3.3;stroke-linecap:round;stroke-linejoin:round;" /><defs>
    <clipPath id="clip0"><rect x="-1.0" y="-17.2" width="698.6" height="313.03999999999996" /></clipPath></defs><polygon points="199.26,68.04 194.39999999999998,84.24 264.06,84.24 259.2,68.04 " style="stroke:black;fill:url(#hatch);stroke-width:1;stroke-linecap:round;stroke-linejoin:round;" clip-path="url(#clip0)" /><polygon points="150.66,110.16000000000001 145.79999999999998,126.36 215.46,126.36 210.6,110.16000000000001 " style="stroke:black;fill:url(#hatch);stroke-width:1;stroke-linecap:round;stroke-linejoin:round;" clip-path="url(#clip0)" /><path d="M 0.0,42.12 L 599.4,42.12" style="stroke:black;fill:none;stroke-width:1;stroke-linecap:round;stroke-linejoin:round;" clip-path="url(#clip0)" /><path d="M 599.4,42.12 L 604.2599999999999,25.92 L 696.6,25.92" style="stroke:black;fill:none;stroke-width:1;stroke-linecap:round;stroke-linejoin:round;" clip-path="url(#clip0)" /><path d="M 0.0,84.24 L 194.39999999999998,84.24" style="stroke:black;fill:none;stroke-width:1;stroke-linecap:round;stroke-linejoin:round;" clip-path="url(#clip0)" /><path d="M 264.06,84.24 L 421.2,84.24" style="stroke:black;fill:none;stroke-width:1;stroke-linecap:round;stroke-linejoin:round;" clip-path="url(#clip0)" /><path d="M 421.2,84.24 L 426.06,68.04 L 680.4,68.04" style="stroke:black;fill:none;stroke-width:1;stroke-linecap:round;stroke-linejoin:round;" clip-path="url(#clip0)" /><path d="M 0.0,126.36 L 145.79999999999998,126.36" style="stroke:black;fill:none;stroke-width:1;stroke-linecap:round;stroke-linejoin:round;" clip-path="url(#clip0)" /><path d="M 215.46,126.36 L 372.59999999999997,126.36" style="stroke:black;fill:none;stroke-width:1;stroke-linecap:round;stroke-linejoin:round;" clip-path="url(#clip0)" /><path d="M 372.59999999999997,126.36 L 377.46,110.16000000000001 L 664.1999999999999,110.16000000000001" style="stroke:black;fill:none;stroke-width:1;stroke-linecap:round;stroke-linejoin:round;" clip-path="url(#clip0)" /><path d="M 0.0,168.48 L 81.0,168.48" style="stroke:black;fill:none;stroke-width:1;stroke-linecap:round;stroke-linejoin:round;" clip-path="url(#clip0)" /><path d="M 81.0,168.48 L 85.86,152.28 L 664.1999999999999,152.28" style="stroke:black;fill:none;stroke-width:1;stroke-linecap:round;stroke-linejoin:round;" clip-path="url(#clip0)" /><path d="M 0.0,210.6 L 113.39999999999999,210.6" style="stroke:black;fill:none;stroke-width:1;stroke-linecap:round;stroke-linejoin:round;" clip-path="url(#clip0)" /><path d="M 113.39999999999999,210.6 L 113.39999999999999,194.39999999999998 L 226.79999999999998,194.39999999999998" style="stroke:black;fill:none;stroke-width:1;stroke-linecap:round;stroke-linejoin:round;" clip-path="url(#clip0)" /><path d="M 226.79999999999998,194.39999999999998 L 226.79999999999998,210.6 L 340.2,210.6" style="stroke:black;fill:none;stroke-width:1;stroke-linecap:round;stroke-linejoin:round;" clip-path="url(#clip0)" /><path d="M 340.2,210.6 L 340.2,194.39999999999998 L 453.59999999999997,194.39999999999998" style="stroke:black;fill:none;stroke-width:1;stroke-linecap:round;stroke-linejoin:round;" clip-path="url(#clip0)" /><path d="M 453.59999999999997,194.39999999999998 L 453.59999999999997,210.6 L 567.0,210.6" style="stroke:black;fill:none;stroke-width:1;stroke-linecap:round;stroke-linejoin:round;" clip-path="url(#clip0)" /><path d="M 567.0,210.6 L 567.0,194.39999999999998 L 664.1999999999999,194.39999999999998" style="stroke:black;fill:none;stroke-width:1;stroke-linecap:round;stroke-linejoin:round;" clip-path="url(#clip0)" /><path d="M 67.23,174.96 L 115.83,174.96" style="stroke:blue;fill:none;stroke-width:1;stroke-linecap:round;stroke-linejoin:round;" /><path d="M 67.23,178.2 L 67.23,171.72000000000003" style="stroke:blue;fill:none;stroke-width:1;stroke-linecap:round;stroke-linejoin:round;" /><path d="M 115.83,178.2 L 115.83,171.72000000000003" style="stroke:blue;fill:none;stroke-width:1;stroke-linecap:round;stroke-linejoin:round;" /><path d="M 294.03,90.72 L 342.62999999999994,90.72" style="stroke:blue;fill:none;stroke-width:1;stroke-linecap:round;stroke-linejoin:round;" /><path d="M 294.03,93.96000000000001 L 294.03,87.48" style="stroke:blue;fill:none;stroke-width:1;stroke-linecap:round;stroke-linejoin:round;" /><path d="M 342.62999999999994,93.96000000000001 L 342.62999999999994,87.48" style="stroke:blue;fill:none;stroke-width:1;stroke-linecap:round;stroke-linejoin:round;" /><path d="M 148.23,132.84 L 213.03,132.84" style="stroke:blue;fill:none;stroke-width:1;stroke-linecap:round;stroke-linejoin:round;" /><path d="M 148.23,136.08 L 148.23,129.60000000000002" style="stroke:blue;fill:none;stroke-width:1;stroke-linecap:round;stroke-linejoin:round;" /><path d="M 213.03,136.08 L 213.03,129.60000000000002" style="stroke:blue;fill:none;stroke-width:1;stroke-linecap:round;stroke-linejoin:round;" /><path d="M 148.23,145.79999999999998 L 213.03,145.79999999999998" style="stroke:blue;fill:none;stroke-width:1;stroke-linecap:round;stroke-linejoin:round;" /><path d="M 148.23,149.04 L 148.23,142.56" style="stroke:blue;fill:none;stroke-width:1;stroke-linecap:round;stroke-linejoin:round;" /><path d="M 213.03,149.04 L 213.03,142.56" style="stroke:blue;fill:none;stroke-width:1;stroke-linecap:round;stroke-linejoin:round;" /><text x="-6.48" y="30.72" fill="blue" font-size="12" font-family="sans-serif" text-anchor="end" transform="rotate(0 -6.48 40.32)"><tspan x="-6.48" dy="9.600000000000001">R2.Q</tspan></text><text x="-6.48" y="72.84" fill="blue" font-size="12" font-family="sans-serif" text-anchor="end" transform="rotate(0 -6.48 82.44000000000001)"><tspan x="-6.48" dy="9.600000000000001">R2.D</tspan></text><text x="-6.48" y="114.96000000000001" fill="blue" font-size="12" font-family="sans-serif" text-anchor="end" transform="rotate(0 -6.48 124.56000000000002)"><tspan x="-6.48" dy="9.600000000000001">R1.Q</tspan></text><text x="-6.48" y="157.08" fill="blue" font-size="12" font-family="sans-serif" text-anchor="end" transform="rotate(0 -6.48 166.68)"><tspan x="-6.48" dy="9.600000000000001">R1.D</tspan></text><text x="-6.48" y="199.20000000000002" fill="blue" font-size="12" font-family="sans-serif" text-anchor="end" transform="rotate(0 -6.48 208.8)"><tspan x="-6.48" dy="9.600000000000001">clk</tspan></text><path d="M 115.83,154.98 L 115.83,118.26 L 134.73,118.26" style="stroke:blue;fill:none;stroke-width:1;stroke-linecap:round;stroke-linejoin:round;" /><path d="M 140.82999999999998 118.26 L 134.72999999999996 120.69 L 134.72999999999996 115.83000000000001 Z" style="stroke:blue;fill:blue;stroke-linecap:butt;stroke-linejoin:miter;" /><path d="M 342.62999999999994,154.98 L 342.62999999999994,118.26 L 361.53,118.26" style="stroke:blue;fill:none;stroke-width:1;stroke-linecap:round;stroke-linejoin:round;" /><path d="M 367.63 118.26 L 361.53 120.69 L 361.53 115.83000000000001 Z" style="stroke:blue;fill:blue;stroke-linecap:butt;stroke-linejoin:miter;" /><path d="M 569.43,70.74000000000001 L 569.43,34.02 L 588.3299999999999,34.02" style="stroke:blue;fill:none;stroke-width:1;stroke-linecap:round;stroke-linejoin:round;" /><path d="M 594.43 34.02 L 588.33 36.45 L 588.33 31.590000000000003 Z" style="stroke:blue;fill:blue;stroke-linecap:butt;stroke-linejoin:miter;" /><path d="M 83.43,188.46 L 83.43,266.76" style="stroke:blue;fill:none;stroke-width:1;stroke-linecap:round;stroke-linejoin:round;" /><path d="M 83.43 182.36 L 85.86 188.46000000000004 L 81.0 188.46000000000004 Z" style="stroke:blue;fill:blue;stroke-linecap:butt;stroke-linejoin:miter;" /><path d="M 261.62999999999994,62.64000000000001 L 261.62999999999994,-17.279999999999998" style="stroke:blue;fill:none;stroke-width:1;stroke-linecap:round;stroke-linejoin:round;" /><path d="M 261.62999999999994 68.74000000000001 L 259.19999999999993 62.640000000000015 L 264.05999999999995 62.640000000000015 Z" style="stroke:blue;fill:blue;stroke-linecap:butt;stroke-linejoin:miter;" /><path d="M 375.03,131.76 L 375.03,239.22" style="stroke:blue;fill:none;stroke-width:1;stroke-linecap:round;stroke-linejoin:round;" /><path d="M 375.03 125.66 L 377.46 131.76 L 372.59999999999997 131.76 Z" style="stroke:blue;fill:blue;stroke-linecap:butt;stroke-linejoin:miter;" /><path d="M 153.63 118.26 C 176.30999999999997 118.26 168.75 76.14 187.38 76.14" style="stroke:blue;fill:none;stroke-width:1;stroke-linecap:round;" /><path d="M 189.42999999999998 76.14 L 183.32999999999996 78.57 L 183.32999999999996 73.71000000000001 Z" style="stroke:blue;fill:blue;stroke-linecap:butt;stroke-linejoin:miter;" /><path d="M 380.42999999999995 118.26 C 403.10999999999996 118.26 395.54999999999995 76.14 414.17999999999995 76.14" style="stroke:blue;fill:none;stroke-width:1;stroke-linecap:round;" /><path d="M 416.22999999999996 76.14 L 410.12999999999994 78.57 L 410.12999999999994 73.71000000000001 Z" style="stroke:blue;fill:blue;stroke-linecap:butt;stroke-linejoin:miter;" /><path d="M 601.8299999999999,20.520000000000003 L 601.8299999999999,-17.279999999999998" style="stroke:blue;fill:none;stroke-width:1;stroke-linecap:round;stroke-linejoin:round;" /><path d="M 601.8299999999999 26.62 L 599.4 20.52 L 604.2599999999999 20.52 Z" style="stroke:blue;fill:blue;stroke-linecap:butt;stroke-linejoin:miter;" /><polygon points="91.044,144.72000000000003 91.044,133.92000000000002 140.61599999999999,133.92000000000002 140.61599999999999,144.72000000000003 " style="stroke:none;fill:white;stroke-width:2;stroke-linecap:round;stroke-linejoin:round;" /><text x="115.83" y="133.82" fill="black" font-size="10" font-family="sans-serif" text-anchor="middle" transform="rotate(0 115.83 137.82)"><tspan x="115.83" dy="8.0">clk-to-Q</tspan></text><polygon points="317.84399999999994,144.72000000000003 317.84399999999994,133.92000000000002 367.416,133.92000000000002 367.416,144.72000000000003 " style="stroke:none;fill:white;stroke-width:2;stroke-linecap:round;stroke-linejoin:round;" /><text x="342.62999999999994" y="133.82" fill="black" font-size="10" font-family="sans-serif" text-anchor="middle" transform="rotate(0 342.62999999999994 137.82)"><tspan x="342.62999999999994" dy="8.0">clk-to-Q</tspan></text><polygon points="544.6439999999999,60.480000000000004 544.6439999999999,49.68 594.216,49.68 594.216,60.480000000000004 " style="stroke:none;fill:white;stroke-width:2;stroke-linecap:round;stroke-linejoin:round;" /><text x="569.43" y="49.580000000000005" fill="black" font-size="10" font-family="sans-serif" text-anchor="middle" transform="rotate(0 569.43 53.580000000000005)"><tspan x="569.43" dy="8.0">clk-to-Q</tspan></text><polygon points="81.567,180.36 81.567,169.56 101.49300000000001,169.56 101.49300000000001,180.36 " style="stroke:none;fill:white;stroke-width:2;stroke-linecap:round;stroke-linejoin:round;" /><text x="91.53" y="169.45999999999998" fill="black" font-size="10" font-family="sans-serif" text-anchor="middle" transform="rotate(0 91.53 173.45999999999998)"><tspan x="91.53" dy="8.0">t<tspan baseline-shift="sub" font-size="smaller">s</tspan> </tspan></text><polygon points="311.364,96.12 311.364,85.32000000000001 325.29599999999994,85.32000000000001 325.29599999999994,96.12 " style="stroke:none;fill:white;stroke-width:2;stroke-linecap:round;stroke-linejoin:round;" /><text x="318.33" y="85.22" fill="black" font-size="10" font-family="sans-serif" text-anchor="middle" transform="rotate(0 318.33 89.22)"><tspan x="318.33" dy="8.0">t<tspan baseline-shift="sub" font-size="smaller">s</tspan></tspan></text><polygon points="34.425000000000004,228.96 34.425000000000004,218.16 132.435,218.16 132.435,228.96 " style="stroke:none;fill:white;stroke-width:2;stroke-linecap:round;stroke-linejoin:round;" /><text x="83.43" y="218.05999999999997" fill="black" font-size="10" font-family="sans-serif" text-anchor="middle" transform="rotate(0 83.43 222.05999999999997)"><tspan x="83.43" dy="8.0">Input violates t<tspan baseline-shift="sub" font-size="smaller">s</tspan></tspan></text><polygon points="145.43549999999996,32.13 145.43549999999996,21.330000000000002 377.82449999999994,21.330000000000002 377.82449999999994,32.13 " style="stroke:none;fill:white;stroke-width:2;stroke-linecap:round;stroke-linejoin:round;" /><text x="261.62999999999994" y="21.23" fill="black" font-size="10" font-family="sans-serif" text-anchor="middle" transform="rotate(0 261.62999999999994 25.23)"><tspan x="261.62999999999994" dy="8.0">Input stable before t<tspan baseline-shift="sub" font-size="smaller">s</tspan>, but at old value</tspan></text><polygon points="287.1449999999999,186.84000000000003 287.1449999999999,176.04 462.91499999999996,176.04 462.91499999999996,186.84000000000003 " style="stroke:none;fill:white;stroke-width:2;stroke-linecap:round;stroke-linejoin:round;" /><text x="375.03" y="175.94" fill="black" font-size="10" font-family="sans-serif" text-anchor="middle" transform="rotate(0 375.03 179.94)"><tspan x="375.03" dy="8.0">New value delayed by 1 clock</tspan></text><polygon points="117.126,102.6 117.126,91.8 227.934,91.8 227.934,102.6 " style="stroke:none;fill:white;stroke-width:2;stroke-linecap:round;stroke-linejoin:round;" /><text x="172.53" y="91.7" fill="black" font-size="10" font-family="sans-serif" text-anchor="middle" transform="rotate(0 172.53 95.7)"><tspan x="172.53" dy="8.0">Propagation delay</tspan></text><polygon points="343.92599999999993,102.6 343.92599999999993,91.8 454.734,91.8 454.734,102.6 " style="stroke:none;fill:white;stroke-width:2;stroke-linecap:round;stroke-linejoin:round;" /><text x="399.33" y="91.7" fill="black" font-size="10" font-family="sans-serif" text-anchor="middle" transform="rotate(0 399.33 95.7)"><tspan x="399.33" dy="8.0">Propagation delay</tspan></text><polygon points="523.746,11.07 523.746,0.27000000000000174 679.914,0.27000000000000174 679.914,11.07 " style="stroke:none;fill:white;stroke-width:2;stroke-linecap:round;stroke-linejoin:round;" /><text x="601.8299999999999" y="0.1700000000000017" fill="black" font-size="10" font-family="sans-serif" text-anchor="middle" transform="rotate(0 601.8299999999999 4.170000000000001)"><tspan x="601.8299999999999" dy="8.0">Final value at output of R2</tspan></text><polygon points="146.7315,151.20000000000002 146.7315,140.39999999999998 214.52849999999998,140.39999999999998 214.52849999999998,151.20000000000002 " style="stroke:none;fill:white;stroke-width:2;stroke-linecap:round;stroke-linejoin:round;" /><text x="180.63" y="140.29999999999998" fill="black" font-size="10" font-family="sans-serif" text-anchor="middle" transform="rotate(0 180.63 144.29999999999998)"><tspan x="180.63" dy="8.0">Metastable</tspan></text></svg>