<svg xmlns="http://www.w3.org/2000/svg" xml:lang="en" height="127.48pt" width="598.4104pt" viewBox="-78.01040000000002 -25.04 598.4104 127.48"><path d="M 0.0,-22.679999999999996 L 0.0,100.44" style="stroke:#DDDDDD;fill:none;stroke-width:1;stroke-dasharray:2,3.3;stroke-linecap:round;stroke-linejoin:round;" /><path d="M 64.8,-22.679999999999996 L 64.8,100.44" style="stroke:#DDDDDD;fill:none;stroke-width:1;stroke-dasharray:2,3.3;stroke-linecap:round;stroke-linejoin:round;" /><path d="M 129.6,-22.679999999999996 L 129.6,100.44" style="stroke:#DDDDDD;fill:none;stroke-width:1;stroke-dasharray:2,3.3;stroke-linecap:round;stroke-linejoin:round;" /><path d="M 194.39999999999998,-22.679999999999996 L 194.39999999999998,100.44" style="stroke:#DDDDDD;fill:none;stroke-width:1;stroke-dasharray:2,3.3;stroke-linecap:round;stroke-linejoin:round;" /><path d="M 259.2,-22.679999999999996 L 259.2,100.44" style="stroke:#DDDDDD;fill:none;stroke-width:1;stroke-dasharray:2,3.3;stroke-linecap:round;stroke-linejoin:round;" /><path d="M 324.0,-22.679999999999996 L 324.0,100.44" style="stroke:#DDDDDD;fill:none;stroke-width:1;stroke-dasharray:2,3.3;stroke-linecap:round;stroke-linejoin:round;" /><path d="M 388.79999999999995,-22.679999999999996 L 388.79999999999995,100.44" style="stroke:#DDDDDD;fill:none;stroke-width:1;stroke-dasharray:2,3.3;stroke-linecap:round;stroke-linejoin:round;" /><path d="M 453.59999999999997,-22.679999999999996 L 453.59999999999997,100.44" style="stroke:#DDDDDD;fill:none;stroke-width:1;stroke-dasharray:2,3.3;stroke-linecap:round;stroke-linejoin:round;" /><path d="M 518.4,-22.679999999999996 L 518.4,100.44" style="stroke:#DDDDDD;fill:none;stroke-width:1;stroke-dasharray:2,3.3;stroke-linecap:round;stroke-linejoin:round;" /><defs>
    <clipPath id="clip0"><rect x="-1.0" y="-17.2" width="520.4" height="134.84" /></clipPath></defs><path d="M 0.0,-0.0 L 0.0,-16.2 L 32.4,-16.2 L 32.4,-0.0 L 64.8,-0.0 L 64.8,-16.2 L 97.19999999999999,-16.2 L 97.19999999999999,-0.0 L 129.6,-0.0 L 129.6,-16.2 L 162.0,-16.2 L 162.0,-0.0 L 194.39999999999998,-0.0 L 194.39999999999998,-16.2 L 226.79999999999998,-16.2 L 226.79999999999998,-0.0 L 259.2,-0.0 L 259.2,-16.2 L 291.59999999999997,-16.2 L 291.59999999999997,-0.0 L 324.0,-0.0 L 324.0,-16.2 L 356.4,-16.2 L 356.4,-0.0 L 388.79999999999995,-0.0 L 388.79999999999995,-16.2 L 421.2,-16.2 L 421.2,-0.0 L 453.59999999999997,-0.0 L 453.59999999999997,-16.2 L 486.0,-16.2 L 486.0,-0.0 L 518.4,-0.0" style="stroke:black;fill:none;stroke-width:1;stroke-linecap:round;stroke-linejoin:round;" clip-path="url(#clip0)" /><path d="M 0.0,-4.05 L -4.959819536546781e-16,-4.05" style="stroke:black;fill:none;stroke-width:1;stroke-linecap:round;stroke-linejoin:round;" clip-path="url(#clip0)" /><path d="M -1.2246467991473532e-16 -10.149999999999999 L 1.9439999999999995 -4.049999999999998 L -1.9440000000000004 -4.049999999999998 Z" style="stroke:black;fill:black;stroke-linecap:butt;stroke-linejoin:miter;" clip-path="url(#clip0)" /><path d="M 64.8,-4.05 L 64.8,-4.05" style="stroke:black;fill:none;stroke-width:1;stroke-linecap:round;stroke-linejoin:round;" clip-path="url(#clip0)" /><path d="M 64.8 -10.149999999999999 L 66.744 -4.049999999999998 L 62.855999999999995 -4.049999999999998 Z" style="stroke:black;fill:black;stroke-linecap:butt;stroke-linejoin:miter;" clip-path="url(#clip0)" /><path d="M 129.6,-4.05 L 129.6,-4.05" style="stroke:black;fill:none;stroke-width:1;stroke-linecap:round;stroke-linejoin:round;" clip-path="url(#clip0)" /><path d="M 129.6 -10.149999999999999 L 131.54399999999998 -4.049999999999998 L 127.65599999999999 -4.049999999999998 Z" style="stroke:black;fill:black;stroke-linecap:butt;stroke-linejoin:miter;" clip-path="url(#clip0)" /><path d="M 194.39999999999998,-4.05 L 194.39999999999998,-4.05" style="stroke:black;fill:none;stroke-width:1;stroke-linecap:round;stroke-linejoin:round;" clip-path="url(#clip0)" /><path d="M 194.39999999999998 -10.149999999999999 L 196.34399999999997 -4.049999999999998 L 192.456 -4.049999999999998 Z" style="stroke:black;fill:black;stroke-linecap:butt;stroke-linejoin:miter;" clip-path="url(#clip0)" /><path d="M 259.2,-4.05 L 259.2,-4.05" style="stroke:black;fill:none;stroke-width:1;stroke-linecap:round;stroke-linejoin:round;" clip-path="url(#clip0)" /><path d="M 259.2 -10.149999999999999 L 261.144 -4.049999999999998 L 257.256 -4.049999999999998 Z" style="stroke:black;fill:black;stroke-linecap:butt;stroke-linejoin:miter;" clip-path="url(#clip0)" /><path d="M 324.0,-4.05 L 324.0,-4.05" style="stroke:black;fill:none;stroke-width:1;stroke-linecap:round;stroke-linejoin:round;" clip-path="url(#clip0)" /><path d="M 324.0 -10.149999999999999 L 325.944 -4.049999999999998 L 322.056 -4.049999999999998 Z" style="stroke:black;fill:black;stroke-linecap:butt;stroke-linejoin:miter;" clip-path="url(#clip0)" /><path d="M 388.79999999999995,-4.05 L 388.79999999999995,-4.05" style="stroke:black;fill:none;stroke-width:1;stroke-linecap:round;stroke-linejoin:round;" clip-path="url(#clip0)" /><path d="M 388.79999999999995 -10.149999999999999 L 390.74399999999997 -4.049999999999998 L 386.85599999999994 -4.049999999999998 Z" style="stroke:black;fill:black;stroke-linecap:butt;stroke-linejoin:miter;" clip-path="url(#clip0)" /><path d="M 453.59999999999997,-4.05 L 453.59999999999997,-4.05" style="stroke:black;fill:none;stroke-width:1;stroke-linecap:round;stroke-linejoin:round;" clip-path="url(#clip0)" /><path d="M 453.59999999999997 -10.149999999999999 L 455.544 -4.049999999999998 L 451.65599999999995 -4.049999999999998 Z" style="stroke:black;fill:black;stroke-linecap:butt;stroke-linejoin:miter;" clip-path="url(#clip0)" /><path d="M 0.0,12.96 L 129.6,12.96" style="stroke:black;fill:none;stroke-width:1;stroke-linecap:round;stroke-linejoin:round;" clip-path="url(#clip0)" /><path d="M 129.6,12.96 L 134.46,29.16 L 324.0,29.16" style="stroke:black;fill:none;stroke-width:1;stroke-linecap:round;stroke-linejoin:round;" clip-path="url(#clip0)" /><path d="M 324.0,29.16 L 328.86,12.96 L 518.4,12.96" style="stroke:black;fill:none;stroke-width:1;stroke-linecap:round;stroke-linejoin:round;" clip-path="url(#clip0)" /><path d="M 0.0,42.12 L 194.39999999999998,42.12" style="stroke:black;fill:none;stroke-width:1;stroke-linecap:round;stroke-linejoin:round;" clip-path="url(#clip0)" /><path d="M 194.39999999999998,42.12 L 199.26,58.32 L 388.79999999999995,58.32" style="stroke:black;fill:none;stroke-width:1;stroke-linecap:round;stroke-linejoin:round;" clip-path="url(#clip0)" /><path d="M 388.79999999999995,58.32 L 393.65999999999997,42.12 L 518.4,42.12" style="stroke:black;fill:none;stroke-width:1;stroke-linecap:round;stroke-linejoin:round;" clip-path="url(#clip0)" /><path d="M 0.0,87.48 L 129.6,87.48" style="stroke:black;fill:none;stroke-width:1;stroke-linecap:round;stroke-linejoin:round;" clip-path="url(#clip0)" /><path d="M 129.6,87.48 L 134.46,71.28 L 194.39999999999998,71.28" style="stroke:black;fill:none;stroke-width:1;stroke-linecap:round;stroke-linejoin:round;" clip-path="url(#clip0)" /><path d="M 194.39999999999998,71.28 L 199.26,87.48 L 518.4,87.48" style="stroke:black;fill:none;stroke-width:1;stroke-linecap:round;stroke-linejoin:round;" clip-path="url(#clip0)" /><text x="-6.48" y="-13.3" fill="blue" font-size="14" font-family="sans-serif" text-anchor="end" transform="rotate(0 -6.48 -2.0999999999999996)"><tspan x="-6.48" dy="11.200000000000001">clk</tspan></text><text x="-6.48" y="15.860000000000001" fill="blue" font-size="14" font-family="sans-serif" text-anchor="end" transform="rotate(0 -6.48 27.060000000000002)"><tspan x="-6.48" dy="11.200000000000001">enable_n</tspan></text><text x="-6.48" y="45.019999999999996" fill="blue" font-size="14" font-family="sans-serif" text-anchor="end" transform="rotate(0 -6.48 56.22)"><tspan x="-6.48" dy="11.200000000000001">enable_i_n</tspan></text><text x="-6.48" y="74.17999999999999" fill="blue" font-size="14" font-family="sans-serif" text-anchor="end" transform="rotate(0 -6.48 85.38)"><tspan x="-6.48" dy="11.200000000000001">pulse</tspan></text></svg>