<?xml version="1.0" encoding="utf-8" standalone="no"?>
<!DOCTYPE svg PUBLIC "-//W3C//DTD SVG 1.1//EN"
  "http://www.w3.org/Graphics/SVG/1.1/DTD/svg11.dtd">
<svg xmlns:xlink="http://www.w3.org/1999/xlink" width="884.194719pt" height="228.96pt" viewBox="0 0 884.194719 228.96" xmlns="http://www.w3.org/2000/svg" version="1.1">
 <metadata>
  <rdf:RDF xmlns:dc="http://purl.org/dc/elements/1.1/" xmlns:cc="http://creativecommons.org/ns#" xmlns:rdf="http://www.w3.org/1999/02/22-rdf-syntax-ns#">
   <cc:Work>
    <dc:type rdf:resource="http://purl.org/dc/dcmitype/StillImage"/>
    <dc:date>2024-09-09T15:13:00.968436</dc:date>
    <dc:format>image/svg+xml</dc:format>
    <dc:creator>
     <cc:Agent>
      <dc:title>Matplotlib v3.7.2, https://matplotlib.org/</dc:title>
     </cc:Agent>
    </dc:creator>
   </cc:Work>
  </rdf:RDF>
 </metadata>
 <defs>
  <style type="text/css">*{stroke-linejoin: round; stroke-linecap: butt}</style>
 </defs>
 <g id="figure_1">
  <g id="patch_1">
   <path d="M 0 228.96 
L 884.194719 228.96 
L 884.194719 0 
L 0 0 
L 0 228.96 
z
" style="fill: none"/>
  </g>
  <g id="axes_1">
   <g id="line2d_1">
    <path d="M 86.686719 13.68 
L 86.686719 215.28 
" clip-path="url(#p36b3bf7652)" style="fill: none; stroke-dasharray: 1,1.65; stroke-dashoffset: 0; stroke: #dddddd"/>
   </g>
   <g id="line2d_2">
    <path d="M 158.686719 13.68 
L 158.686719 215.28 
" clip-path="url(#p36b3bf7652)" style="fill: none; stroke-dasharray: 1,1.65; stroke-dashoffset: 0; stroke: #dddddd"/>
   </g>
   <g id="line2d_3">
    <path d="M 230.686719 13.68 
L 230.686719 215.28 
" clip-path="url(#p36b3bf7652)" style="fill: none; stroke-dasharray: 1,1.65; stroke-dashoffset: 0; stroke: #dddddd"/>
   </g>
   <g id="line2d_4">
    <path d="M 302.686719 13.68 
L 302.686719 215.28 
" clip-path="url(#p36b3bf7652)" style="fill: none; stroke-dasharray: 1,1.65; stroke-dashoffset: 0; stroke: #dddddd"/>
   </g>
   <g id="line2d_5">
    <path d="M 374.686719 13.68 
L 374.686719 215.28 
" clip-path="url(#p36b3bf7652)" style="fill: none; stroke-dasharray: 1,1.65; stroke-dashoffset: 0; stroke: #dddddd"/>
   </g>
   <g id="line2d_6">
    <path d="M 446.686719 13.68 
L 446.686719 215.28 
" clip-path="url(#p36b3bf7652)" style="fill: none; stroke-dasharray: 1,1.65; stroke-dashoffset: 0; stroke: #dddddd"/>
   </g>
   <g id="line2d_7">
    <path d="M 518.686719 13.68 
L 518.686719 215.28 
" clip-path="url(#p36b3bf7652)" style="fill: none; stroke-dasharray: 1,1.65; stroke-dashoffset: 0; stroke: #dddddd"/>
   </g>
   <g id="line2d_8">
    <path d="M 590.686719 13.68 
L 590.686719 215.28 
" clip-path="url(#p36b3bf7652)" style="fill: none; stroke-dasharray: 1,1.65; stroke-dashoffset: 0; stroke: #dddddd"/>
   </g>
   <g id="line2d_9">
    <path d="M 662.686719 13.68 
L 662.686719 215.28 
" clip-path="url(#p36b3bf7652)" style="fill: none; stroke-dasharray: 1,1.65; stroke-dashoffset: 0; stroke: #dddddd"/>
   </g>
   <g id="line2d_10">
    <path d="M 734.686719 13.68 
L 734.686719 215.28 
" clip-path="url(#p36b3bf7652)" style="fill: none; stroke-dasharray: 1,1.65; stroke-dashoffset: 0; stroke: #dddddd"/>
   </g>
   <g id="line2d_11">
    <path d="M 806.686719 13.68 
L 806.686719 215.28 
" clip-path="url(#p36b3bf7652)" style="fill: none; stroke-dasharray: 1,1.65; stroke-dashoffset: 0; stroke: #dddddd"/>
   </g>
   <g id="line2d_12">
    <path d="M 86.686719 38.88 
L 86.686719 20.88 
L 122.686719 20.88 
L 122.686719 38.88 
L 158.686719 38.88 
L 158.686719 20.88 
L 194.686719 20.88 
L 194.686719 38.88 
L 230.686719 38.88 
L 230.686719 20.88 
L 266.686719 20.88 
L 266.686719 38.88 
L 302.686719 38.88 
L 302.686719 20.88 
L 338.686719 20.88 
L 338.686719 38.88 
L 374.686719 38.88 
L 374.686719 20.88 
L 410.686719 20.88 
L 410.686719 38.88 
L 446.686719 38.88 
L 446.686719 20.88 
L 482.686719 20.88 
L 482.686719 38.88 
L 518.686719 38.88 
L 518.686719 20.88 
L 554.686719 20.88 
L 554.686719 38.88 
L 590.686719 38.88 
L 590.686719 20.88 
L 626.686719 20.88 
L 626.686719 38.88 
L 662.686719 38.88 
L 662.686719 20.88 
L 698.686719 20.88 
L 698.686719 38.88 
L 734.686719 38.88 
L 734.686719 20.88 
L 770.686719 20.88 
L 770.686719 38.88 
L 806.686719 38.88 
" clip-path="url(#p833fafdd0c)" style="fill: none; stroke: #000000; stroke-linecap: round"/>
   </g>
   <g id="line2d_13">
    <path d="M 86.686719 34.38 
L 86.686719 34.38 
" clip-path="url(#p833fafdd0c)" style="fill: none; stroke: #000000; stroke-linecap: round"/>
   </g>
   <g id="patch_2">
    <path d="M 84.526719 34.38 
L 86.686719 25.38 
L 88.846719 34.38 
z
" clip-path="url(#p833fafdd0c)"/>
   </g>
   <g id="line2d_14">
    <path d="M 158.686719 34.38 
L 158.686719 34.38 
" clip-path="url(#p833fafdd0c)" style="fill: none; stroke: #000000; stroke-linecap: round"/>
   </g>
   <g id="patch_3">
    <path d="M 156.526719 34.38 
L 158.686719 25.38 
L 160.846719 34.38 
z
" clip-path="url(#p833fafdd0c)"/>
   </g>
   <g id="line2d_15">
    <path d="M 230.686719 34.38 
L 230.686719 34.38 
" clip-path="url(#p833fafdd0c)" style="fill: none; stroke: #000000; stroke-linecap: round"/>
   </g>
   <g id="patch_4">
    <path d="M 228.526719 34.38 
L 230.686719 25.38 
L 232.846719 34.38 
z
" clip-path="url(#p833fafdd0c)"/>
   </g>
   <g id="line2d_16">
    <path d="M 302.686719 34.38 
L 302.686719 34.38 
" clip-path="url(#p833fafdd0c)" style="fill: none; stroke: #000000; stroke-linecap: round"/>
   </g>
   <g id="patch_5">
    <path d="M 300.526719 34.38 
L 302.686719 25.38 
L 304.846719 34.38 
z
" clip-path="url(#p833fafdd0c)"/>
   </g>
   <g id="line2d_17">
    <path d="M 374.686719 34.38 
L 374.686719 34.38 
" clip-path="url(#p833fafdd0c)" style="fill: none; stroke: #000000; stroke-linecap: round"/>
   </g>
   <g id="patch_6">
    <path d="M 372.526719 34.38 
L 374.686719 25.38 
L 376.846719 34.38 
z
" clip-path="url(#p833fafdd0c)"/>
   </g>
   <g id="line2d_18">
    <path d="M 446.686719 34.38 
L 446.686719 34.38 
" clip-path="url(#p833fafdd0c)" style="fill: none; stroke: #000000; stroke-linecap: round"/>
   </g>
   <g id="patch_7">
    <path d="M 444.526719 34.38 
L 446.686719 25.38 
L 448.846719 34.38 
z
" clip-path="url(#p833fafdd0c)"/>
   </g>
   <g id="line2d_19">
    <path d="M 518.686719 34.38 
L 518.686719 34.38 
" clip-path="url(#p833fafdd0c)" style="fill: none; stroke: #000000; stroke-linecap: round"/>
   </g>
   <g id="patch_8">
    <path d="M 516.526719 34.38 
L 518.686719 25.38 
L 520.846719 34.38 
z
" clip-path="url(#p833fafdd0c)"/>
   </g>
   <g id="line2d_20">
    <path d="M 590.686719 34.38 
L 590.686719 34.38 
" clip-path="url(#p833fafdd0c)" style="fill: none; stroke: #000000; stroke-linecap: round"/>
   </g>
   <g id="patch_9">
    <path d="M 588.526719 34.38 
L 590.686719 25.38 
L 592.846719 34.38 
z
" clip-path="url(#p833fafdd0c)"/>
   </g>
   <g id="line2d_21">
    <path d="M 662.686719 34.38 
L 662.686719 34.38 
" clip-path="url(#p833fafdd0c)" style="fill: none; stroke: #000000; stroke-linecap: round"/>
   </g>
   <g id="patch_10">
    <path d="M 660.526719 34.38 
L 662.686719 25.38 
L 664.846719 34.38 
z
" clip-path="url(#p833fafdd0c)"/>
   </g>
   <g id="line2d_22">
    <path d="M 734.686719 34.38 
L 734.686719 34.38 
" clip-path="url(#p833fafdd0c)" style="fill: none; stroke: #000000; stroke-linecap: round"/>
   </g>
   <g id="patch_11">
    <path d="M 732.526719 34.38 
L 734.686719 25.38 
L 736.846719 34.38 
z
" clip-path="url(#p833fafdd0c)"/>
   </g>
   <g id="line2d_23">
    <path d="M 122.686719 53.28 
L 194.686719 53.28 
" clip-path="url(#p833fafdd0c)" style="fill: none; stroke: #000000; stroke-linecap: round"/>
   </g>
   <g id="line2d_24">
    <path d="M 194.686719 53.28 
L 200.086719 71.28 
L 554.686719 71.28 
" clip-path="url(#p833fafdd0c)" style="fill: none; stroke: #000000; stroke-linecap: round"/>
   </g>
   <g id="line2d_25">
    <path d="M 554.686719 71.28 
L 560.086719 53.28 
L 842.686719 53.28 
" clip-path="url(#p833fafdd0c)" style="fill: none; stroke: #000000; stroke-linecap: round"/>
   </g>
   <g id="line2d_26">
    <path d="M 86.686719 85.68 
L 230.686719 85.68 
" clip-path="url(#p833fafdd0c)" style="fill: none; stroke: #000000; stroke-linecap: round"/>
   </g>
   <g id="line2d_27">
    <path d="M 230.686719 85.68 
L 236.086719 103.68 
L 590.686719 103.68 
" clip-path="url(#p833fafdd0c)" style="fill: none; stroke: #000000; stroke-linecap: round"/>
   </g>
   <g id="line2d_28">
    <path d="M 590.686719 103.68 
L 596.086719 85.68 
L 806.686719 85.68 
" clip-path="url(#p833fafdd0c)" style="fill: none; stroke: #000000; stroke-linecap: round"/>
   </g>
   <g id="line2d_29">
    <path d="M 86.686719 118.08 
L 302.686719 118.08 
" clip-path="url(#p833fafdd0c)" style="fill: none; stroke: #000000; stroke-linecap: round"/>
   </g>
   <g id="line2d_30">
    <path d="M 302.686719 118.08 
L 308.086719 136.08 
L 590.686719 136.08 
" clip-path="url(#p833fafdd0c)" style="fill: none; stroke: #000000; stroke-linecap: round"/>
   </g>
   <g id="line2d_31">
    <path d="M 590.686719 136.08 
L 596.086719 118.08 
L 806.686719 118.08 
" clip-path="url(#p833fafdd0c)" style="fill: none; stroke: #000000; stroke-linecap: round"/>
   </g>
   <g id="line2d_32">
    <path d="M 86.686719 150.48 
L 374.686719 150.48 
" clip-path="url(#p833fafdd0c)" style="fill: none; stroke: #000000; stroke-linecap: round"/>
   </g>
   <g id="line2d_33">
    <path d="M 374.686719 150.48 
L 380.086719 168.48 
L 590.686719 168.48 
" clip-path="url(#p833fafdd0c)" style="fill: none; stroke: #000000; stroke-linecap: round"/>
   </g>
   <g id="line2d_34">
    <path d="M 590.686719 168.48 
L 596.086719 150.48 
L 806.686719 150.48 
" clip-path="url(#p833fafdd0c)" style="fill: none; stroke: #000000; stroke-linecap: round"/>
   </g>
   <g id="line2d_35">
    <path d="M 86.686719 200.88 
L 302.686719 200.88 
" clip-path="url(#p833fafdd0c)" style="fill: none; stroke: #000000; stroke-linecap: round"/>
   </g>
   <g id="line2d_36">
    <path d="M 302.686719 200.88 
L 308.086719 182.88 
L 374.686719 182.88 
" clip-path="url(#p833fafdd0c)" style="fill: none; stroke: #000000; stroke-linecap: round"/>
   </g>
   <g id="line2d_37">
    <path d="M 374.686719 182.88 
L 380.086719 200.88 
L 806.686719 200.88 
" clip-path="url(#p833fafdd0c)" style="fill: none; stroke: #000000; stroke-linecap: round"/>
   </g>
   <g id="text_1">
    <!-- enable_n -->
    <g style="fill: #0000ff" transform="translate(22.941797 68.332734) scale(0.125 -0.125)">
     <defs>
      <path id="DejaVuSans-65" d="M 3597 1894 
L 3597 1613 
L 953 1613 
Q 991 1019 1311 708 
Q 1631 397 2203 397 
Q 2534 397 2845 478 
Q 3156 559 3463 722 
L 3463 178 
Q 3153 47 2828 -22 
Q 2503 -91 2169 -91 
Q 1331 -91 842 396 
Q 353 884 353 1716 
Q 353 2575 817 3079 
Q 1281 3584 2069 3584 
Q 2775 3584 3186 3129 
Q 3597 2675 3597 1894 
z
M 3022 2063 
Q 3016 2534 2758 2815 
Q 2500 3097 2075 3097 
Q 1594 3097 1305 2825 
Q 1016 2553 972 2059 
L 3022 2063 
z
" transform="scale(0.015625)"/>
      <path id="DejaVuSans-6e" d="M 3513 2113 
L 3513 0 
L 2938 0 
L 2938 2094 
Q 2938 2591 2744 2837 
Q 2550 3084 2163 3084 
Q 1697 3084 1428 2787 
Q 1159 2491 1159 1978 
L 1159 0 
L 581 0 
L 581 3500 
L 1159 3500 
L 1159 2956 
Q 1366 3272 1645 3428 
Q 1925 3584 2291 3584 
Q 2894 3584 3203 3211 
Q 3513 2838 3513 2113 
z
" transform="scale(0.015625)"/>
      <path id="DejaVuSans-61" d="M 2194 1759 
Q 1497 1759 1228 1600 
Q 959 1441 959 1056 
Q 959 750 1161 570 
Q 1363 391 1709 391 
Q 2188 391 2477 730 
Q 2766 1069 2766 1631 
L 2766 1759 
L 2194 1759 
z
M 3341 1997 
L 3341 0 
L 2766 0 
L 2766 531 
Q 2569 213 2275 61 
Q 1981 -91 1556 -91 
Q 1019 -91 701 211 
Q 384 513 384 1019 
Q 384 1609 779 1909 
Q 1175 2209 1959 2209 
L 2766 2209 
L 2766 2266 
Q 2766 2663 2505 2880 
Q 2244 3097 1772 3097 
Q 1472 3097 1187 3025 
Q 903 2953 641 2809 
L 641 3341 
Q 956 3463 1253 3523 
Q 1550 3584 1831 3584 
Q 2591 3584 2966 3190 
Q 3341 2797 3341 1997 
z
" transform="scale(0.015625)"/>
      <path id="DejaVuSans-62" d="M 3116 1747 
Q 3116 2381 2855 2742 
Q 2594 3103 2138 3103 
Q 1681 3103 1420 2742 
Q 1159 2381 1159 1747 
Q 1159 1113 1420 752 
Q 1681 391 2138 391 
Q 2594 391 2855 752 
Q 3116 1113 3116 1747 
z
M 1159 2969 
Q 1341 3281 1617 3432 
Q 1894 3584 2278 3584 
Q 2916 3584 3314 3078 
Q 3713 2572 3713 1747 
Q 3713 922 3314 415 
Q 2916 -91 2278 -91 
Q 1894 -91 1617 61 
Q 1341 213 1159 525 
L 1159 0 
L 581 0 
L 581 4863 
L 1159 4863 
L 1159 2969 
z
" transform="scale(0.015625)"/>
      <path id="DejaVuSans-6c" d="M 603 4863 
L 1178 4863 
L 1178 0 
L 603 0 
L 603 4863 
z
" transform="scale(0.015625)"/>
      <path id="DejaVuSans-5f" d="M 3263 -1063 
L 3263 -1509 
L -63 -1509 
L -63 -1063 
L 3263 -1063 
z
" transform="scale(0.015625)"/>
     </defs>
     <use xlink:href="#DejaVuSans-65"/>
     <use xlink:href="#DejaVuSans-6e" x="61.523438"/>
     <use xlink:href="#DejaVuSans-61" x="124.902344"/>
     <use xlink:href="#DejaVuSans-62" x="186.181641"/>
     <use xlink:href="#DejaVuSans-6c" x="249.658203"/>
     <use xlink:href="#DejaVuSans-65" x="277.441406"/>
     <use xlink:href="#DejaVuSans-5f" x="338.964844"/>
     <use xlink:href="#DejaVuSans-6e" x="388.964844"/>
    </g>
   </g>
   <g id="text_2">
    <!-- enable_r1_n -->
    <g style="fill: #0000ff" transform="translate(3.6 100.732734) scale(0.125 -0.125)">
     <defs>
      <path id="DejaVuSans-72" d="M 2631 2963 
Q 2534 3019 2420 3045 
Q 2306 3072 2169 3072 
Q 1681 3072 1420 2755 
Q 1159 2438 1159 1844 
L 1159 0 
L 581 0 
L 581 3500 
L 1159 3500 
L 1159 2956 
Q 1341 3275 1631 3429 
Q 1922 3584 2338 3584 
Q 2397 3584 2469 3576 
Q 2541 3569 2628 3553 
L 2631 2963 
z
" transform="scale(0.015625)"/>
      <path id="DejaVuSans-31" d="M 794 531 
L 1825 531 
L 1825 4091 
L 703 3866 
L 703 4441 
L 1819 4666 
L 2450 4666 
L 2450 531 
L 3481 531 
L 3481 0 
L 794 0 
L 794 531 
z
" transform="scale(0.015625)"/>
     </defs>
     <use xlink:href="#DejaVuSans-65"/>
     <use xlink:href="#DejaVuSans-6e" x="61.523438"/>
     <use xlink:href="#DejaVuSans-61" x="124.902344"/>
     <use xlink:href="#DejaVuSans-62" x="186.181641"/>
     <use xlink:href="#DejaVuSans-6c" x="249.658203"/>
     <use xlink:href="#DejaVuSans-65" x="277.441406"/>
     <use xlink:href="#DejaVuSans-5f" x="338.964844"/>
     <use xlink:href="#DejaVuSans-72" x="388.964844"/>
     <use xlink:href="#DejaVuSans-31" x="430.078125"/>
     <use xlink:href="#DejaVuSans-5f" x="493.701172"/>
     <use xlink:href="#DejaVuSans-6e" x="543.701172"/>
    </g>
   </g>
   <g id="text_3">
    <!-- enable_r2_n -->
    <g style="fill: #0000ff" transform="translate(3.6 133.132734) scale(0.125 -0.125)">
     <defs>
      <path id="DejaVuSans-32" d="M 1228 531 
L 3431 531 
L 3431 0 
L 469 0 
L 469 531 
Q 828 903 1448 1529 
Q 2069 2156 2228 2338 
Q 2531 2678 2651 2914 
Q 2772 3150 2772 3378 
Q 2772 3750 2511 3984 
Q 2250 4219 1831 4219 
Q 1534 4219 1204 4116 
Q 875 4013 500 3803 
L 500 4441 
Q 881 4594 1212 4672 
Q 1544 4750 1819 4750 
Q 2544 4750 2975 4387 
Q 3406 4025 3406 3419 
Q 3406 3131 3298 2873 
Q 3191 2616 2906 2266 
Q 2828 2175 2409 1742 
Q 1991 1309 1228 531 
z
" transform="scale(0.015625)"/>
     </defs>
     <use xlink:href="#DejaVuSans-65"/>
     <use xlink:href="#DejaVuSans-6e" x="61.523438"/>
     <use xlink:href="#DejaVuSans-61" x="124.902344"/>
     <use xlink:href="#DejaVuSans-62" x="186.181641"/>
     <use xlink:href="#DejaVuSans-6c" x="249.658203"/>
     <use xlink:href="#DejaVuSans-65" x="277.441406"/>
     <use xlink:href="#DejaVuSans-5f" x="338.964844"/>
     <use xlink:href="#DejaVuSans-72" x="388.964844"/>
     <use xlink:href="#DejaVuSans-32" x="430.078125"/>
     <use xlink:href="#DejaVuSans-5f" x="493.701172"/>
     <use xlink:href="#DejaVuSans-6e" x="543.701172"/>
    </g>
   </g>
   <g id="text_4">
    <!-- enable_i_n -->
    <g style="fill: #0000ff" transform="translate(13.219141 165.532734) scale(0.125 -0.125)">
     <defs>
      <path id="DejaVuSans-69" d="M 603 3500 
L 1178 3500 
L 1178 0 
L 603 0 
L 603 3500 
z
M 603 4863 
L 1178 4863 
L 1178 4134 
L 603 4134 
L 603 4863 
z
" transform="scale(0.015625)"/>
     </defs>
     <use xlink:href="#DejaVuSans-65"/>
     <use xlink:href="#DejaVuSans-6e" x="61.523438"/>
     <use xlink:href="#DejaVuSans-61" x="124.902344"/>
     <use xlink:href="#DejaVuSans-62" x="186.181641"/>
     <use xlink:href="#DejaVuSans-6c" x="249.658203"/>
     <use xlink:href="#DejaVuSans-65" x="277.441406"/>
     <use xlink:href="#DejaVuSans-5f" x="338.964844"/>
     <use xlink:href="#DejaVuSans-69" x="388.964844"/>
     <use xlink:href="#DejaVuSans-5f" x="416.748047"/>
     <use xlink:href="#DejaVuSans-6e" x="466.748047"/>
    </g>
   </g>
   <g id="text_5">
    <!-- pulse -->
    <g style="fill: #0000ff" transform="translate(45.953516 198.280391) scale(0.125 -0.125)">
     <defs>
      <path id="DejaVuSans-70" d="M 1159 525 
L 1159 -1331 
L 581 -1331 
L 581 3500 
L 1159 3500 
L 1159 2969 
Q 1341 3281 1617 3432 
Q 1894 3584 2278 3584 
Q 2916 3584 3314 3078 
Q 3713 2572 3713 1747 
Q 3713 922 3314 415 
Q 2916 -91 2278 -91 
Q 1894 -91 1617 61 
Q 1341 213 1159 525 
z
M 3116 1747 
Q 3116 2381 2855 2742 
Q 2594 3103 2138 3103 
Q 1681 3103 1420 2742 
Q 1159 2381 1159 1747 
Q 1159 1113 1420 752 
Q 1681 391 2138 391 
Q 2594 391 2855 752 
Q 3116 1113 3116 1747 
z
" transform="scale(0.015625)"/>
      <path id="DejaVuSans-75" d="M 544 1381 
L 544 3500 
L 1119 3500 
L 1119 1403 
Q 1119 906 1312 657 
Q 1506 409 1894 409 
Q 2359 409 2629 706 
Q 2900 1003 2900 1516 
L 2900 3500 
L 3475 3500 
L 3475 0 
L 2900 0 
L 2900 538 
Q 2691 219 2414 64 
Q 2138 -91 1772 -91 
Q 1169 -91 856 284 
Q 544 659 544 1381 
z
M 1991 3584 
L 1991 3584 
z
" transform="scale(0.015625)"/>
      <path id="DejaVuSans-73" d="M 2834 3397 
L 2834 2853 
Q 2591 2978 2328 3040 
Q 2066 3103 1784 3103 
Q 1356 3103 1142 2972 
Q 928 2841 928 2578 
Q 928 2378 1081 2264 
Q 1234 2150 1697 2047 
L 1894 2003 
Q 2506 1872 2764 1633 
Q 3022 1394 3022 966 
Q 3022 478 2636 193 
Q 2250 -91 1575 -91 
Q 1294 -91 989 -36 
Q 684 19 347 128 
L 347 722 
Q 666 556 975 473 
Q 1284 391 1588 391 
Q 1994 391 2212 530 
Q 2431 669 2431 922 
Q 2431 1156 2273 1281 
Q 2116 1406 1581 1522 
L 1381 1569 
Q 847 1681 609 1914 
Q 372 2147 372 2553 
Q 372 3047 722 3315 
Q 1072 3584 1716 3584 
Q 2034 3584 2315 3537 
Q 2597 3491 2834 3397 
z
" transform="scale(0.015625)"/>
     </defs>
     <use xlink:href="#DejaVuSans-70"/>
     <use xlink:href="#DejaVuSans-75" x="63.476562"/>
     <use xlink:href="#DejaVuSans-6c" x="126.855469"/>
     <use xlink:href="#DejaVuSans-73" x="154.638672"/>
     <use xlink:href="#DejaVuSans-65" x="206.738281"/>
    </g>
   </g>
  </g>
 </g>
 <defs>
  <clipPath id="p36b3bf7652">
   <rect x="46.618719" y="3.6" width="833.976" height="221.76"/>
  </clipPath>
  <clipPath id="p833fafdd0c">
   <rect x="86.686719" y="19.08" width="720" height="214.2"/>
  </clipPath>
 </defs>
</svg>
