<svg xmlns="http://www.w3.org/2000/svg" xml:lang="en" height="311.8pt" width="533.74pt" viewBox="-45.74 -31.16 533.74 311.8"><path d="M 0.0,-29.16 L 0.0,278.64" style="stroke:#DDDDDD;fill:none;stroke-width:1;stroke-dasharray:2,3.3;stroke-linecap:round;stroke-linejoin:round;" /><path d="M 16.2,-29.16 L 16.2,278.64" style="stroke:#DDDDDD;fill:none;stroke-width:1;stroke-dasharray:2,3.3;stroke-linecap:round;stroke-linejoin:round;" /><path d="M 32.4,-29.16 L 32.4,278.64" style="stroke:#DDDDDD;fill:none;stroke-width:1;stroke-dasharray:2,3.3;stroke-linecap:round;stroke-linejoin:round;" /><path d="M 48.599999999999994,-29.16 L 48.599999999999994,278.64" style="stroke:#DDDDDD;fill:none;stroke-width:1;stroke-dasharray:2,3.3;stroke-linecap:round;stroke-linejoin:round;" /><path d="M 64.8,-29.16 L 64.8,278.64" style="stroke:#DDDDDD;fill:none;stroke-width:1;stroke-dasharray:2,3.3;stroke-linecap:round;stroke-linejoin:round;" /><path d="M 81.0,-29.16 L 81.0,278.64" style="stroke:#DDDDDD;fill:none;stroke-width:1;stroke-dasharray:2,3.3;stroke-linecap:round;stroke-linejoin:round;" /><path d="M 97.19999999999999,-29.16 L 97.19999999999999,278.64" style="stroke:#DDDDDD;fill:none;stroke-width:1;stroke-dasharray:2,3.3;stroke-linecap:round;stroke-linejoin:round;" /><path d="M 113.39999999999999,-29.16 L 113.39999999999999,278.64" style="stroke:#DDDDDD;fill:none;stroke-width:1;stroke-dasharray:2,3.3;stroke-linecap:round;stroke-linejoin:round;" /><path d="M 129.6,-29.16 L 129.6,278.64" style="stroke:#DDDDDD;fill:none;stroke-width:1;stroke-dasharray:2,3.3;stroke-linecap:round;stroke-linejoin:round;" /><path d="M 145.79999999999998,-29.16 L 145.79999999999998,278.64" style="stroke:#DDDDDD;fill:none;stroke-width:1;stroke-dasharray:2,3.3;stroke-linecap:round;stroke-linejoin:round;" /><path d="M 162.0,-29.16 L 162.0,278.64" style="stroke:#DDDDDD;fill:none;stroke-width:1;stroke-dasharray:2,3.3;stroke-linecap:round;stroke-linejoin:round;" /><path d="M 178.2,-29.16 L 178.2,278.64" style="stroke:#DDDDDD;fill:none;stroke-width:1;stroke-dasharray:2,3.3;stroke-linecap:round;stroke-linejoin:round;" /><path d="M 194.39999999999998,-29.16 L 194.39999999999998,278.64" style="stroke:#DDDDDD;fill:none;stroke-width:1;stroke-dasharray:2,3.3;stroke-linecap:round;stroke-linejoin:round;" /><path d="M 210.6,-29.16 L 210.6,278.64" style="stroke:#DDDDDD;fill:none;stroke-width:1;stroke-dasharray:2,3.3;stroke-linecap:round;stroke-linejoin:round;" /><path d="M 226.79999999999998,-29.16 L 226.79999999999998,278.64" style="stroke:#DDDDDD;fill:none;stroke-width:1;stroke-dasharray:2,3.3;stroke-linecap:round;stroke-linejoin:round;" /><path d="M 243.0,-29.16 L 243.0,278.64" style="stroke:#DDDDDD;fill:none;stroke-width:1;stroke-dasharray:2,3.3;stroke-linecap:round;stroke-linejoin:round;" /><path d="M 259.2,-29.16 L 259.2,278.64" style="stroke:#DDDDDD;fill:none;stroke-width:1;stroke-dasharray:2,3.3;stroke-linecap:round;stroke-linejoin:round;" /><path d="M 275.4,-29.16 L 275.4,278.64" style="stroke:#DDDDDD;fill:none;stroke-width:1;stroke-dasharray:2,3.3;stroke-linecap:round;stroke-linejoin:round;" /><path d="M 291.59999999999997,-29.16 L 291.59999999999997,278.64" style="stroke:#DDDDDD;fill:none;stroke-width:1;stroke-dasharray:2,3.3;stroke-linecap:round;stroke-linejoin:round;" /><path d="M 307.8,-29.16 L 307.8,278.64" style="stroke:#DDDDDD;fill:none;stroke-width:1;stroke-dasharray:2,3.3;stroke-linecap:round;stroke-linejoin:round;" /><path d="M 324.0,-29.16 L 324.0,278.64" style="stroke:#DDDDDD;fill:none;stroke-width:1;stroke-dasharray:2,3.3;stroke-linecap:round;stroke-linejoin:round;" /><path d="M 340.2,-29.16 L 340.2,278.64" style="stroke:#DDDDDD;fill:none;stroke-width:1;stroke-dasharray:2,3.3;stroke-linecap:round;stroke-linejoin:round;" /><path d="M 356.4,-29.16 L 356.4,278.64" style="stroke:#DDDDDD;fill:none;stroke-width:1;stroke-dasharray:2,3.3;stroke-linecap:round;stroke-linejoin:round;" /><path d="M 372.59999999999997,-29.16 L 372.59999999999997,278.64" style="stroke:#DDDDDD;fill:none;stroke-width:1;stroke-dasharray:2,3.3;stroke-linecap:round;stroke-linejoin:round;" /><path d="M 388.79999999999995,-29.16 L 388.79999999999995,278.64" style="stroke:#DDDDDD;fill:none;stroke-width:1;stroke-dasharray:2,3.3;stroke-linecap:round;stroke-linejoin:round;" /><path d="M 405.0,-29.16 L 405.0,278.64" style="stroke:#DDDDDD;fill:none;stroke-width:1;stroke-dasharray:2,3.3;stroke-linecap:round;stroke-linejoin:round;" /><path d="M 421.2,-29.16 L 421.2,278.64" style="stroke:#DDDDDD;fill:none;stroke-width:1;stroke-dasharray:2,3.3;stroke-linecap:round;stroke-linejoin:round;" /><path d="M 437.4,-29.16 L 437.4,278.64" style="stroke:#DDDDDD;fill:none;stroke-width:1;stroke-dasharray:2,3.3;stroke-linecap:round;stroke-linejoin:round;" /><path d="M 453.59999999999997,-29.16 L 453.59999999999997,278.64" style="stroke:#DDDDDD;fill:none;stroke-width:1;stroke-dasharray:2,3.3;stroke-linecap:round;stroke-linejoin:round;" /><path d="M 469.79999999999995,-29.16 L 469.79999999999995,278.64" style="stroke:#DDDDDD;fill:none;stroke-width:1;stroke-dasharray:2,3.3;stroke-linecap:round;stroke-linejoin:round;" /><path d="M 486.0,-29.16 L 486.0,278.64" style="stroke:#DDDDDD;fill:none;stroke-width:1;stroke-dasharray:2,3.3;stroke-linecap:round;stroke-linejoin:round;" /><defs>
    <clipPath id="clip0"><rect x="-1.0" y="-17.2" width="488.0" height="313.03999999999996" /></clipPath></defs><path d="M -14.58,42.12 L 439.02,42.12" style="stroke:black;fill:none;stroke-width:1;stroke-linecap:round;stroke-linejoin:round;" clip-path="url(#clip0)" /><path d="M 439.02,42.12 L 443.88,25.92 L 471.42,25.92" style="stroke:black;fill:none;stroke-width:1;stroke-linecap:round;stroke-linejoin:round;" clip-path="url(#clip0)" /><path d="M 0.0,84.24 L 291.59999999999997,84.24" style="stroke:black;fill:none;stroke-width:1;stroke-linecap:round;stroke-linejoin:round;" clip-path="url(#clip0)" /><path d="M 291.59999999999997,84.24 L 296.46,68.04 L 469.79999999999995,68.04" style="stroke:black;fill:none;stroke-width:1;stroke-linecap:round;stroke-linejoin:round;" clip-path="url(#clip0)" /><path d="M 0.0,126.36 L 178.2,126.36" style="stroke:black;fill:none;stroke-width:1;stroke-linecap:round;stroke-linejoin:round;" clip-path="url(#clip0)" /><path d="M 178.2,126.36 L 183.06,110.16000000000001 L 469.79999999999995,110.16000000000001" style="stroke:black;fill:none;stroke-width:1;stroke-linecap:round;stroke-linejoin:round;" clip-path="url(#clip0)" /><path d="M 0.0,168.48 L 81.0,168.48" style="stroke:black;fill:none;stroke-width:1;stroke-linecap:round;stroke-linejoin:round;" clip-path="url(#clip0)" /><path d="M 81.0,168.48 L 85.86,152.28 L 469.79999999999995,152.28" style="stroke:black;fill:none;stroke-width:1;stroke-linecap:round;stroke-linejoin:round;" clip-path="url(#clip0)" /><path d="M 0.0,210.6 L 129.6,210.6" style="stroke:black;fill:none;stroke-width:1;stroke-linecap:round;stroke-linejoin:round;" clip-path="url(#clip0)" /><path d="M 129.6,210.6 L 129.6,194.39999999999998 L 259.2,194.39999999999998" style="stroke:black;fill:none;stroke-width:1;stroke-linecap:round;stroke-linejoin:round;" clip-path="url(#clip0)" /><path d="M 259.2,194.39999999999998 L 259.2,210.6 L 388.79999999999995,210.6" style="stroke:black;fill:none;stroke-width:1;stroke-linecap:round;stroke-linejoin:round;" clip-path="url(#clip0)" /><path d="M 388.79999999999995,210.6 L 388.79999999999995,194.39999999999998 L 469.79999999999995,194.39999999999998" style="stroke:black;fill:none;stroke-width:1;stroke-linecap:round;stroke-linejoin:round;" clip-path="url(#clip0)" /><path d="M 358.83,34.02 L 391.22999999999996,34.02" style="stroke:blue;fill:none;stroke-width:1;stroke-linecap:round;stroke-linejoin:round;" /><path d="M 358.83,37.260000000000005 L 358.83,30.78" style="stroke:blue;fill:none;stroke-width:1;stroke-linecap:round;stroke-linejoin:round;" /><path d="M 391.22999999999996,37.260000000000005 L 391.22999999999996,30.78" style="stroke:blue;fill:none;stroke-width:1;stroke-linecap:round;stroke-linejoin:round;" /><path d="M 294.03,61.56 L 358.83,61.56" style="stroke:blue;fill:none;stroke-width:1;stroke-linecap:round;stroke-linejoin:round;" /><path d="M 294.03,64.8 L 294.03,58.32" style="stroke:blue;fill:none;stroke-width:1;stroke-linecap:round;stroke-linejoin:round;" /><path d="M 358.83,64.8 L 358.83,58.32" style="stroke:blue;fill:none;stroke-width:1;stroke-linecap:round;stroke-linejoin:round;" /><text x="-6.48" y="30.72" fill="blue" font-size="12" font-family="sans-serif" text-anchor="end" transform="rotate(0 -6.48 40.32)"><tspan x="-6.48" dy="9.600000000000001">FF2.Q</tspan></text><text x="-6.48" y="72.84" fill="blue" font-size="12" font-family="sans-serif" text-anchor="end" transform="rotate(0 -6.48 82.44000000000001)"><tspan x="-6.48" dy="9.600000000000001">FF2.D</tspan></text><text x="-6.48" y="114.96000000000001" fill="blue" font-size="12" font-family="sans-serif" text-anchor="end" transform="rotate(0 -6.48 124.56000000000002)"><tspan x="-6.48" dy="9.600000000000001">FF1.Q</tspan></text><text x="-6.48" y="157.08" fill="blue" font-size="12" font-family="sans-serif" text-anchor="end" transform="rotate(0 -6.48 166.68)"><tspan x="-6.48" dy="9.600000000000001">FF1.D</tspan></text><text x="-6.48" y="199.20000000000002" fill="blue" font-size="12" font-family="sans-serif" text-anchor="end" transform="rotate(0 -6.48 208.8)"><tspan x="-6.48" dy="9.600000000000001">clk</tspan></text><path d="M 181.98000000000002 118.26 C 150.39000000000001 118.26 162.27 160.38 126.63000000000001 160.38" style="stroke:blue;fill:none;stroke-width:1;stroke-linecap:round;" /><path d="M 184.03 118.26 L 177.92999999999998 120.69 L 177.92999999999998 115.83000000000001 Z" style="stroke:blue;fill:blue;stroke-linecap:butt;stroke-linejoin:miter;" /><path d="M 186.03 118.26 C 247.58999999999997 118.26 227.07 76.14 284.58 76.14" style="stroke:blue;fill:none;stroke-width:1;stroke-linecap:round;" /><path d="M 286.63 76.14 L 280.53 78.57 L 280.53 73.71000000000001 Z" style="stroke:blue;fill:blue;stroke-linecap:butt;stroke-linejoin:miter;" /><path d="M 294.03,48.06 L 294.03,-17.279999999999998" style="stroke:blue;fill:none;stroke-width:1;stroke-linecap:round;stroke-linejoin:round;" /><path d="M 294.03 54.16 L 291.59999999999997 48.06 L 296.46 48.06 Z" style="stroke:blue;fill:blue;stroke-linecap:butt;stroke-linejoin:miter;" /><path d="M 358.83,20.520000000000003 L 358.83,-17.279999999999998" style="stroke:blue;fill:none;stroke-width:1;stroke-linecap:round;stroke-linejoin:round;" /><path d="M 358.83 26.62 L 356.4 20.52 L 361.26 20.52 Z" style="stroke:blue;fill:blue;stroke-linecap:butt;stroke-linejoin:miter;" /><path d="M 132.03,216.0 L 132.03,266.76" style="stroke:blue;fill:none;stroke-width:1;stroke-linecap:round;stroke-linejoin:round;" /><path d="M 132.03 209.9 L 134.46 216.00000000000003 L 129.6 216.00000000000003 Z" style="stroke:blue;fill:blue;stroke-linecap:butt;stroke-linejoin:miter;" /><path d="M 391.22999999999996,216.0 L 391.22999999999996,266.76" style="stroke:blue;fill:none;stroke-width:1;stroke-linecap:round;stroke-linejoin:round;" /><path d="M 391.22999999999996 209.9 L 393.65999999999997 216.00000000000003 L 388.79999999999995 216.00000000000003 Z" style="stroke:blue;fill:blue;stroke-linecap:butt;stroke-linejoin:miter;" /><polygon points="113.56200000000001,144.72000000000003 113.56200000000001,133.92000000000002 199.09799999999998,133.92000000000002 199.09799999999998,144.72000000000003 " style="stroke:none;fill:white;stroke-width:2;stroke-linecap:round;stroke-linejoin:round;" /><text x="156.33" y="133.82" fill="black" font-size="10" font-family="sans-serif" text-anchor="middle" transform="rotate(0 156.33 137.82)"><tspan x="156.33" dy="8.0">clk-to-Q delay</tspan></text><polygon points="176.78249999999997,102.6 176.78249999999997,91.8 297.8775,91.8 297.8775,102.6 " style="stroke:none;fill:white;stroke-width:2;stroke-linecap:round;stroke-linejoin:round;" /><text x="237.32999999999996" y="91.7" fill="black" font-size="10" font-family="sans-serif" text-anchor="middle" transform="rotate(0 237.32999999999996 95.7)"><tspan x="237.32999999999996" dy="8.0">combinational delay</tspan></text><polygon points="368.06399999999996,39.42 368.06399999999996,28.62 381.996,28.62 381.996,39.42 " style="stroke:none;fill:white;stroke-width:2;stroke-linecap:round;stroke-linejoin:round;" /><text x="375.03" y="28.520000000000003" fill="black" font-size="10" font-family="sans-serif" text-anchor="middle" transform="rotate(0 375.03 32.52)"><tspan x="375.03" dy="8.0">t<tspan baseline-shift="sub" font-size="smaller">s</tspan></tspan></text><polygon points="310.75649999999996,66.96000000000001 310.75649999999996,56.16 342.1035,56.16 342.1035,66.96000000000001 " style="stroke:none;fill:white;stroke-width:2;stroke-linecap:round;stroke-linejoin:round;" /><text x="326.42999999999995" y="56.06" fill="black" font-size="10" font-family="sans-serif" text-anchor="middle" transform="rotate(0 326.42999999999995 60.06)"><tspan x="326.42999999999995" dy="8.0">slack</tspan></text><polygon points="259.80749999999995,24.84 259.80749999999995,14.040000000000003 328.2525,14.040000000000003 328.2525,24.84 " style="stroke:none;fill:white;stroke-width:2;stroke-linecap:round;stroke-linejoin:round;" /><text x="294.03" y="13.940000000000001" fill="black" font-size="10" font-family="sans-serif" text-anchor="middle" transform="rotate(0 294.03 17.94)"><tspan x="294.03" dy="8.0">Arrival time</tspan></text><polygon points="316.58849999999995,11.07 316.58849999999995,0.27000000000000174 401.0715,0.27000000000000174 401.0715,11.07 " style="stroke:none;fill:white;stroke-width:2;stroke-linecap:round;stroke-linejoin:round;" /><text x="358.83" y="0.1700000000000017" fill="black" font-size="10" font-family="sans-serif" text-anchor="middle" transform="rotate(0 358.83 4.170000000000001)"><tspan x="358.83" dy="8.0">Required time</tspan></text><polygon points="92.4615,242.73000000000002 92.4615,231.92999999999998 171.5985,231.92999999999998 171.5985,242.73000000000002 " style="stroke:none;fill:white;stroke-width:2;stroke-linecap:round;stroke-linejoin:round;" /><text x="132.03" y="231.82999999999998" fill="black" font-size="10" font-family="sans-serif" text-anchor="middle" transform="rotate(0 132.03 235.82999999999998)"><tspan x="132.03" dy="8.0">Launch edge</tspan></text><polygon points="349.96049999999997,242.73000000000002 349.96049999999997,231.92999999999998 432.49949999999995,231.92999999999998 432.49949999999995,242.73000000000002 " style="stroke:none;fill:white;stroke-width:2;stroke-linecap:round;stroke-linejoin:round;" /><text x="391.22999999999996" y="231.82999999999998" fill="black" font-size="10" font-family="sans-serif" text-anchor="middle" transform="rotate(0 391.22999999999996 235.82999999999998)"><tspan x="391.22999999999996" dy="8.0">Capture edge</tspan></text></svg>