<?xml version="1.0" encoding="utf-8" standalone="no"?>
<!DOCTYPE svg PUBLIC "-//W3C//DTD SVG 1.1//EN"
  "http://www.w3.org/Graphics/SVG/1.1/DTD/svg11.dtd">
<svg xmlns:xlink="http://www.w3.org/1999/xlink" width="619.02pt" height="383.4pt" viewBox="0 0 619.02 383.4" xmlns="http://www.w3.org/2000/svg" version="1.1">
 <metadata>
  <rdf:RDF xmlns:dc="http://purl.org/dc/elements/1.1/" xmlns:cc="http://creativecommons.org/ns#" xmlns:rdf="http://www.w3.org/1999/02/22-rdf-syntax-ns#">
   <cc:Work>
    <dc:type rdf:resource="http://purl.org/dc/dcmitype/StillImage"/>
    <dc:date>2024-09-09T15:10:37.939233</dc:date>
    <dc:format>image/svg+xml</dc:format>
    <dc:creator>
     <cc:Agent>
      <dc:title>Matplotlib v3.7.2, https://matplotlib.org/</dc:title>
     </cc:Agent>
    </dc:creator>
   </cc:Work>
  </rdf:RDF>
 </metadata>
 <defs>
  <style type="text/css">*{stroke-linejoin: round; stroke-linecap: butt}</style>
 </defs>
 <g id="figure_1">
  <g id="patch_1">
   <path d="M 0 383.4 
L 619.02 383.4 
L 619.02 0 
L 0 0 
L 0 383.4 
z
" style="fill: none"/>
  </g>
  <g id="axes_1">
   <g id="line2d_1">
    <path d="M 47.61 20.7 
L 47.61 362.7 
" clip-path="url(#pd60410287a)" style="fill: none; stroke-dasharray: 1,1.65; stroke-dashoffset: 0; stroke: #dddddd"/>
   </g>
   <g id="line2d_2">
    <path d="M 65.61 20.7 
L 65.61 362.7 
" clip-path="url(#pd60410287a)" style="fill: none; stroke-dasharray: 1,1.65; stroke-dashoffset: 0; stroke: #dddddd"/>
   </g>
   <g id="line2d_3">
    <path d="M 83.61 20.7 
L 83.61 362.7 
" clip-path="url(#pd60410287a)" style="fill: none; stroke-dasharray: 1,1.65; stroke-dashoffset: 0; stroke: #dddddd"/>
   </g>
   <g id="line2d_4">
    <path d="M 101.61 20.7 
L 101.61 362.7 
" clip-path="url(#pd60410287a)" style="fill: none; stroke-dasharray: 1,1.65; stroke-dashoffset: 0; stroke: #dddddd"/>
   </g>
   <g id="line2d_5">
    <path d="M 119.61 20.7 
L 119.61 362.7 
" clip-path="url(#pd60410287a)" style="fill: none; stroke-dasharray: 1,1.65; stroke-dashoffset: 0; stroke: #dddddd"/>
   </g>
   <g id="line2d_6">
    <path d="M 137.61 20.7 
L 137.61 362.7 
" clip-path="url(#pd60410287a)" style="fill: none; stroke-dasharray: 1,1.65; stroke-dashoffset: 0; stroke: #dddddd"/>
   </g>
   <g id="line2d_7">
    <path d="M 155.61 20.7 
L 155.61 362.7 
" clip-path="url(#pd60410287a)" style="fill: none; stroke-dasharray: 1,1.65; stroke-dashoffset: 0; stroke: #dddddd"/>
   </g>
   <g id="line2d_8">
    <path d="M 173.61 20.7 
L 173.61 362.7 
" clip-path="url(#pd60410287a)" style="fill: none; stroke-dasharray: 1,1.65; stroke-dashoffset: 0; stroke: #dddddd"/>
   </g>
   <g id="line2d_9">
    <path d="M 191.61 20.7 
L 191.61 362.7 
" clip-path="url(#pd60410287a)" style="fill: none; stroke-dasharray: 1,1.65; stroke-dashoffset: 0; stroke: #dddddd"/>
   </g>
   <g id="line2d_10">
    <path d="M 209.61 20.7 
L 209.61 362.7 
" clip-path="url(#pd60410287a)" style="fill: none; stroke-dasharray: 1,1.65; stroke-dashoffset: 0; stroke: #dddddd"/>
   </g>
   <g id="line2d_11">
    <path d="M 227.61 20.7 
L 227.61 362.7 
" clip-path="url(#pd60410287a)" style="fill: none; stroke-dasharray: 1,1.65; stroke-dashoffset: 0; stroke: #dddddd"/>
   </g>
   <g id="line2d_12">
    <path d="M 245.61 20.7 
L 245.61 362.7 
" clip-path="url(#pd60410287a)" style="fill: none; stroke-dasharray: 1,1.65; stroke-dashoffset: 0; stroke: #dddddd"/>
   </g>
   <g id="line2d_13">
    <path d="M 263.61 20.7 
L 263.61 362.7 
" clip-path="url(#pd60410287a)" style="fill: none; stroke-dasharray: 1,1.65; stroke-dashoffset: 0; stroke: #dddddd"/>
   </g>
   <g id="line2d_14">
    <path d="M 281.61 20.7 
L 281.61 362.7 
" clip-path="url(#pd60410287a)" style="fill: none; stroke-dasharray: 1,1.65; stroke-dashoffset: 0; stroke: #dddddd"/>
   </g>
   <g id="line2d_15">
    <path d="M 299.61 20.7 
L 299.61 362.7 
" clip-path="url(#pd60410287a)" style="fill: none; stroke-dasharray: 1,1.65; stroke-dashoffset: 0; stroke: #dddddd"/>
   </g>
   <g id="line2d_16">
    <path d="M 317.61 20.7 
L 317.61 362.7 
" clip-path="url(#pd60410287a)" style="fill: none; stroke-dasharray: 1,1.65; stroke-dashoffset: 0; stroke: #dddddd"/>
   </g>
   <g id="line2d_17">
    <path d="M 335.61 20.7 
L 335.61 362.7 
" clip-path="url(#pd60410287a)" style="fill: none; stroke-dasharray: 1,1.65; stroke-dashoffset: 0; stroke: #dddddd"/>
   </g>
   <g id="line2d_18">
    <path d="M 353.61 20.7 
L 353.61 362.7 
" clip-path="url(#pd60410287a)" style="fill: none; stroke-dasharray: 1,1.65; stroke-dashoffset: 0; stroke: #dddddd"/>
   </g>
   <g id="line2d_19">
    <path d="M 371.61 20.7 
L 371.61 362.7 
" clip-path="url(#pd60410287a)" style="fill: none; stroke-dasharray: 1,1.65; stroke-dashoffset: 0; stroke: #dddddd"/>
   </g>
   <g id="line2d_20">
    <path d="M 389.61 20.7 
L 389.61 362.7 
" clip-path="url(#pd60410287a)" style="fill: none; stroke-dasharray: 1,1.65; stroke-dashoffset: 0; stroke: #dddddd"/>
   </g>
   <g id="line2d_21">
    <path d="M 407.61 20.7 
L 407.61 362.7 
" clip-path="url(#pd60410287a)" style="fill: none; stroke-dasharray: 1,1.65; stroke-dashoffset: 0; stroke: #dddddd"/>
   </g>
   <g id="line2d_22">
    <path d="M 425.61 20.7 
L 425.61 362.7 
" clip-path="url(#pd60410287a)" style="fill: none; stroke-dasharray: 1,1.65; stroke-dashoffset: 0; stroke: #dddddd"/>
   </g>
   <g id="line2d_23">
    <path d="M 443.61 20.7 
L 443.61 362.7 
" clip-path="url(#pd60410287a)" style="fill: none; stroke-dasharray: 1,1.65; stroke-dashoffset: 0; stroke: #dddddd"/>
   </g>
   <g id="line2d_24">
    <path d="M 461.61 20.7 
L 461.61 362.7 
" clip-path="url(#pd60410287a)" style="fill: none; stroke-dasharray: 1,1.65; stroke-dashoffset: 0; stroke: #dddddd"/>
   </g>
   <g id="line2d_25">
    <path d="M 479.61 20.7 
L 479.61 362.7 
" clip-path="url(#pd60410287a)" style="fill: none; stroke-dasharray: 1,1.65; stroke-dashoffset: 0; stroke: #dddddd"/>
   </g>
   <g id="line2d_26">
    <path d="M 497.61 20.7 
L 497.61 362.7 
" clip-path="url(#pd60410287a)" style="fill: none; stroke-dasharray: 1,1.65; stroke-dashoffset: 0; stroke: #dddddd"/>
   </g>
   <g id="line2d_27">
    <path d="M 515.61 20.7 
L 515.61 362.7 
" clip-path="url(#pd60410287a)" style="fill: none; stroke-dasharray: 1,1.65; stroke-dashoffset: 0; stroke: #dddddd"/>
   </g>
   <g id="line2d_28">
    <path d="M 533.61 20.7 
L 533.61 362.7 
" clip-path="url(#pd60410287a)" style="fill: none; stroke-dasharray: 1,1.65; stroke-dashoffset: 0; stroke: #dddddd"/>
   </g>
   <g id="line2d_29">
    <path d="M 551.61 20.7 
L 551.61 362.7 
" clip-path="url(#pd60410287a)" style="fill: none; stroke-dasharray: 1,1.65; stroke-dashoffset: 0; stroke: #dddddd"/>
   </g>
   <g id="line2d_30">
    <path d="M 569.61 20.7 
L 569.61 362.7 
" clip-path="url(#pd60410287a)" style="fill: none; stroke-dasharray: 1,1.65; stroke-dashoffset: 0; stroke: #dddddd"/>
   </g>
   <g id="line2d_31">
    <path d="M 587.61 20.7 
L 587.61 362.7 
" clip-path="url(#pd60410287a)" style="fill: none; stroke-dasharray: 1,1.65; stroke-dashoffset: 0; stroke: #dddddd"/>
   </g>
   <g id="patch_2">
    <path d="M 249.81 184.5 
C 214.71 184.5 227.91 231.3 188.31 231.3 
" clip-path="url(#pd60410287a)" style="fill: none; stroke: #0000ff; stroke-linejoin: miter; stroke-linecap: round"/>
   </g>
   <g id="patch_3">
    <path d="M 254.31 184.5 
C 322.71 184.5 299.91 137.7 363.81 137.7 
" clip-path="url(#pd60410287a)" style="fill: none; stroke: #0000ff; stroke-linejoin: miter; stroke-linecap: round"/>
   </g>
   <g id="line2d_32">
    <path d="M 31.41 99.9 
L 535.41 99.9 
" clip-path="url(#p6609be90a1)" style="fill: none; stroke: #000000; stroke-linecap: round"/>
   </g>
   <g id="line2d_33">
    <path d="M 535.41 99.9 
L 540.81 81.9 
L 571.41 81.9 
" clip-path="url(#p6609be90a1)" style="fill: none; stroke: #000000; stroke-linecap: round"/>
   </g>
   <g id="line2d_34">
    <path d="M 47.61 146.7 
L 371.61 146.7 
" clip-path="url(#p6609be90a1)" style="fill: none; stroke: #000000; stroke-linecap: round"/>
   </g>
   <g id="line2d_35">
    <path d="M 371.61 146.7 
L 377.01 128.7 
L 569.61 128.7 
" clip-path="url(#p6609be90a1)" style="fill: none; stroke: #000000; stroke-linecap: round"/>
   </g>
   <g id="line2d_36">
    <path d="M 47.61 193.5 
L 245.61 193.5 
" clip-path="url(#p6609be90a1)" style="fill: none; stroke: #000000; stroke-linecap: round"/>
   </g>
   <g id="line2d_37">
    <path d="M 245.61 193.5 
L 251.01 175.5 
L 569.61 175.5 
" clip-path="url(#p6609be90a1)" style="fill: none; stroke: #000000; stroke-linecap: round"/>
   </g>
   <g id="line2d_38">
    <path d="M 47.61 240.3 
L 137.61 240.3 
" clip-path="url(#p6609be90a1)" style="fill: none; stroke: #000000; stroke-linecap: round"/>
   </g>
   <g id="line2d_39">
    <path d="M 137.61 240.3 
L 143.01 222.3 
L 569.61 222.3 
" clip-path="url(#p6609be90a1)" style="fill: none; stroke: #000000; stroke-linecap: round"/>
   </g>
   <g id="line2d_40">
    <path d="M 47.61 287.1 
L 191.61 287.1 
" clip-path="url(#p6609be90a1)" style="fill: none; stroke: #000000; stroke-linecap: round"/>
   </g>
   <g id="line2d_41">
    <path d="M 191.61 287.1 
L 191.61 269.1 
L 335.61 269.1 
" clip-path="url(#p6609be90a1)" style="fill: none; stroke: #000000; stroke-linecap: round"/>
   </g>
   <g id="line2d_42">
    <path d="M 335.61 269.1 
L 335.61 287.1 
L 479.61 287.1 
" clip-path="url(#p6609be90a1)" style="fill: none; stroke: #000000; stroke-linecap: round"/>
   </g>
   <g id="line2d_43">
    <path d="M 479.61 287.1 
L 479.61 269.1 
L 569.61 269.1 
" clip-path="url(#p6609be90a1)" style="fill: none; stroke: #000000; stroke-linecap: round"/>
   </g>
   <g id="line2d_44">
    <path d="M 446.31 90.9 
L 482.31 90.9 
" clip-path="url(#pd60410287a)" style="fill: none; stroke: #0000ff; stroke-linecap: round"/>
   </g>
   <g id="line2d_45">
    <path d="M 446.31 94.5 
L 446.31 87.3 
" clip-path="url(#pd60410287a)" style="fill: none; stroke: #0000ff; stroke-linecap: round"/>
   </g>
   <g id="line2d_46">
    <path d="M 482.31 94.5 
L 482.31 87.3 
" clip-path="url(#pd60410287a)" style="fill: none; stroke: #0000ff; stroke-linecap: round"/>
   </g>
   <g id="line2d_47">
    <path d="M 374.31 121.5 
L 446.31 121.5 
" clip-path="url(#pd60410287a)" style="fill: none; stroke: #0000ff; stroke-linecap: round"/>
   </g>
   <g id="line2d_48">
    <path d="M 374.31 125.1 
L 374.31 117.9 
" clip-path="url(#pd60410287a)" style="fill: none; stroke: #0000ff; stroke-linecap: round"/>
   </g>
   <g id="line2d_49">
    <path d="M 446.31 125.1 
L 446.31 117.9 
" clip-path="url(#pd60410287a)" style="fill: none; stroke: #0000ff; stroke-linecap: round"/>
   </g>
   <g id="text_1">
    <!-- FF2.Q -->
    <g style="fill: #0000ff" transform="translate(10.048594 97.716328) scale(0.105 -0.105)">
     <defs>
      <path id="DejaVuSans-46" d="M 628 4666 
L 3309 4666 
L 3309 4134 
L 1259 4134 
L 1259 2759 
L 3109 2759 
L 3109 2228 
L 1259 2228 
L 1259 0 
L 628 0 
L 628 4666 
z
" transform="scale(0.015625)"/>
      <path id="DejaVuSans-32" d="M 1228 531 
L 3431 531 
L 3431 0 
L 469 0 
L 469 531 
Q 828 903 1448 1529 
Q 2069 2156 2228 2338 
Q 2531 2678 2651 2914 
Q 2772 3150 2772 3378 
Q 2772 3750 2511 3984 
Q 2250 4219 1831 4219 
Q 1534 4219 1204 4116 
Q 875 4013 500 3803 
L 500 4441 
Q 881 4594 1212 4672 
Q 1544 4750 1819 4750 
Q 2544 4750 2975 4387 
Q 3406 4025 3406 3419 
Q 3406 3131 3298 2873 
Q 3191 2616 2906 2266 
Q 2828 2175 2409 1742 
Q 1991 1309 1228 531 
z
" transform="scale(0.015625)"/>
      <path id="DejaVuSans-2e" d="M 684 794 
L 1344 794 
L 1344 0 
L 684 0 
L 684 794 
z
" transform="scale(0.015625)"/>
      <path id="DejaVuSans-51" d="M 2522 4238 
Q 1834 4238 1429 3725 
Q 1025 3213 1025 2328 
Q 1025 1447 1429 934 
Q 1834 422 2522 422 
Q 3209 422 3611 934 
Q 4013 1447 4013 2328 
Q 4013 3213 3611 3725 
Q 3209 4238 2522 4238 
z
M 3406 84 
L 4238 -825 
L 3475 -825 
L 2784 -78 
Q 2681 -84 2626 -87 
Q 2572 -91 2522 -91 
Q 1538 -91 948 567 
Q 359 1225 359 2328 
Q 359 3434 948 4092 
Q 1538 4750 2522 4750 
Q 3503 4750 4090 4092 
Q 4678 3434 4678 2328 
Q 4678 1516 4351 937 
Q 4025 359 3406 84 
z
" transform="scale(0.015625)"/>
     </defs>
     <use xlink:href="#DejaVuSans-46"/>
     <use xlink:href="#DejaVuSans-46" x="57.519531"/>
     <use xlink:href="#DejaVuSans-32" x="115.039062"/>
     <use xlink:href="#DejaVuSans-2e" x="178.662109"/>
     <use xlink:href="#DejaVuSans-51" x="210.449219"/>
    </g>
   </g>
   <g id="text_2">
    <!-- FF2.D -->
    <g style="fill: #0000ff" transform="translate(10.229062 144.516328) scale(0.105 -0.105)">
     <defs>
      <path id="DejaVuSans-44" d="M 1259 4147 
L 1259 519 
L 2022 519 
Q 2988 519 3436 956 
Q 3884 1394 3884 2338 
Q 3884 3275 3436 3711 
Q 2988 4147 2022 4147 
L 1259 4147 
z
M 628 4666 
L 1925 4666 
Q 3281 4666 3915 4102 
Q 4550 3538 4550 2338 
Q 4550 1131 3912 565 
Q 3275 0 1925 0 
L 628 0 
L 628 4666 
z
" transform="scale(0.015625)"/>
     </defs>
     <use xlink:href="#DejaVuSans-46"/>
     <use xlink:href="#DejaVuSans-46" x="57.519531"/>
     <use xlink:href="#DejaVuSans-32" x="115.039062"/>
     <use xlink:href="#DejaVuSans-2e" x="178.662109"/>
     <use xlink:href="#DejaVuSans-44" x="210.449219"/>
    </g>
   </g>
   <g id="text_3">
    <!-- FF1.Q -->
    <g style="fill: #0000ff" transform="translate(10.048594 191.316328) scale(0.105 -0.105)">
     <defs>
      <path id="DejaVuSans-31" d="M 794 531 
L 1825 531 
L 1825 4091 
L 703 3866 
L 703 4441 
L 1819 4666 
L 2450 4666 
L 2450 531 
L 3481 531 
L 3481 0 
L 794 0 
L 794 531 
z
" transform="scale(0.015625)"/>
     </defs>
     <use xlink:href="#DejaVuSans-46"/>
     <use xlink:href="#DejaVuSans-46" x="57.519531"/>
     <use xlink:href="#DejaVuSans-31" x="115.039062"/>
     <use xlink:href="#DejaVuSans-2e" x="178.662109"/>
     <use xlink:href="#DejaVuSans-51" x="210.449219"/>
    </g>
   </g>
   <g id="text_4">
    <!-- FF1.D -->
    <g style="fill: #0000ff" transform="translate(10.229062 238.116328) scale(0.105 -0.105)">
     <use xlink:href="#DejaVuSans-46"/>
     <use xlink:href="#DejaVuSans-46" x="57.519531"/>
     <use xlink:href="#DejaVuSans-31" x="115.039062"/>
     <use xlink:href="#DejaVuSans-2e" x="178.662109"/>
     <use xlink:href="#DejaVuSans-44" x="210.449219"/>
    </g>
   </g>
   <g id="text_5">
    <!-- clk -->
    <g style="fill: #0000ff" transform="translate(25.639453 284.916328) scale(0.105 -0.105)">
     <defs>
      <path id="DejaVuSans-63" d="M 3122 3366 
L 3122 2828 
Q 2878 2963 2633 3030 
Q 2388 3097 2138 3097 
Q 1578 3097 1268 2742 
Q 959 2388 959 1747 
Q 959 1106 1268 751 
Q 1578 397 2138 397 
Q 2388 397 2633 464 
Q 2878 531 3122 666 
L 3122 134 
Q 2881 22 2623 -34 
Q 2366 -91 2075 -91 
Q 1284 -91 818 406 
Q 353 903 353 1747 
Q 353 2603 823 3093 
Q 1294 3584 2113 3584 
Q 2378 3584 2631 3529 
Q 2884 3475 3122 3366 
z
" transform="scale(0.015625)"/>
      <path id="DejaVuSans-6c" d="M 603 4863 
L 1178 4863 
L 1178 0 
L 603 0 
L 603 4863 
z
" transform="scale(0.015625)"/>
      <path id="DejaVuSans-6b" d="M 581 4863 
L 1159 4863 
L 1159 1991 
L 2875 3500 
L 3609 3500 
L 1753 1863 
L 3688 0 
L 2938 0 
L 1159 1709 
L 1159 0 
L 581 0 
L 581 4863 
z
" transform="scale(0.015625)"/>
     </defs>
     <use xlink:href="#DejaVuSans-63"/>
     <use xlink:href="#DejaVuSans-6c" x="54.980469"/>
     <use xlink:href="#DejaVuSans-6b" x="82.763672"/>
    </g>
   </g>
   <g id="patch_4">
    <path d="M 245.31 181.8 
L 254.31 184.5 
L 245.31 187.2 
z
" clip-path="url(#pd60410287a)" style="fill: #0000ff"/>
   </g>
   <g id="patch_5">
    <path d="M 359.31 135 
L 368.31 137.7 
L 359.31 140.4 
z
" clip-path="url(#pd60410287a)" style="fill: #0000ff"/>
   </g>
   <g id="line2d_50">
    <path d="M 374.31 106.5 
L 374.31 33.9 
" clip-path="url(#pd60410287a)" style="fill: none; stroke: #0000ff; stroke-linecap: round"/>
   </g>
   <g id="patch_6">
    <path d="M 377.01 106.5 
L 374.31 115.5 
L 371.61 106.5 
z
" clip-path="url(#pd60410287a)" style="fill: #0000ff"/>
   </g>
   <g id="line2d_51">
    <path d="M 446.31 75.9 
L 446.31 33.9 
" clip-path="url(#pd60410287a)" style="fill: none; stroke: #0000ff; stroke-linecap: round"/>
   </g>
   <g id="patch_7">
    <path d="M 449.01 75.9 
L 446.31 84.9 
L 443.61 75.9 
z
" clip-path="url(#pd60410287a)" style="fill: #0000ff"/>
   </g>
   <g id="line2d_52">
    <path d="M 194.31 293.1 
L 194.31 349.5 
" clip-path="url(#pd60410287a)" style="fill: none; stroke: #0000ff; stroke-linecap: round"/>
   </g>
   <g id="patch_8">
    <path d="M 191.61 293.1 
L 194.31 284.1 
L 197.01 293.1 
z
" clip-path="url(#pd60410287a)" style="fill: #0000ff"/>
   </g>
   <g id="line2d_53">
    <path d="M 482.31 293.1 
L 482.31 349.5 
" clip-path="url(#pd60410287a)" style="fill: none; stroke: #0000ff; stroke-linecap: round"/>
   </g>
   <g id="patch_9">
    <path d="M 479.61 293.1 
L 482.31 284.1 
L 485.01 293.1 
z
" clip-path="url(#pd60410287a)" style="fill: #0000ff"/>
   </g>
   <g id="patch_10">
    <path d="M 173.79 213.9 
L 173.79 201.9 
L 268.83 201.9 
L 268.83 213.9 
z
" clip-path="url(#pd60410287a)" style="fill: #ffffff"/>
   </g>
   <g id="text_6">
    <!-- clk-to-Q delay -->
    <g transform="translate(191.454414 210.245469) scale(0.085 -0.085)">
     <defs>
      <path id="DejaVuSans-2d" d="M 313 2009 
L 1997 2009 
L 1997 1497 
L 313 1497 
L 313 2009 
z
" transform="scale(0.015625)"/>
      <path id="DejaVuSans-74" d="M 1172 4494 
L 1172 3500 
L 2356 3500 
L 2356 3053 
L 1172 3053 
L 1172 1153 
Q 1172 725 1289 603 
Q 1406 481 1766 481 
L 2356 481 
L 2356 0 
L 1766 0 
Q 1100 0 847 248 
Q 594 497 594 1153 
L 594 3053 
L 172 3053 
L 172 3500 
L 594 3500 
L 594 4494 
L 1172 4494 
z
" transform="scale(0.015625)"/>
      <path id="DejaVuSans-6f" d="M 1959 3097 
Q 1497 3097 1228 2736 
Q 959 2375 959 1747 
Q 959 1119 1226 758 
Q 1494 397 1959 397 
Q 2419 397 2687 759 
Q 2956 1122 2956 1747 
Q 2956 2369 2687 2733 
Q 2419 3097 1959 3097 
z
M 1959 3584 
Q 2709 3584 3137 3096 
Q 3566 2609 3566 1747 
Q 3566 888 3137 398 
Q 2709 -91 1959 -91 
Q 1206 -91 779 398 
Q 353 888 353 1747 
Q 353 2609 779 3096 
Q 1206 3584 1959 3584 
z
" transform="scale(0.015625)"/>
      <path id="DejaVuSans-20" transform="scale(0.015625)"/>
      <path id="DejaVuSans-64" d="M 2906 2969 
L 2906 4863 
L 3481 4863 
L 3481 0 
L 2906 0 
L 2906 525 
Q 2725 213 2448 61 
Q 2172 -91 1784 -91 
Q 1150 -91 751 415 
Q 353 922 353 1747 
Q 353 2572 751 3078 
Q 1150 3584 1784 3584 
Q 2172 3584 2448 3432 
Q 2725 3281 2906 2969 
z
M 947 1747 
Q 947 1113 1208 752 
Q 1469 391 1925 391 
Q 2381 391 2643 752 
Q 2906 1113 2906 1747 
Q 2906 2381 2643 2742 
Q 2381 3103 1925 3103 
Q 1469 3103 1208 2742 
Q 947 2381 947 1747 
z
" transform="scale(0.015625)"/>
      <path id="DejaVuSans-65" d="M 3597 1894 
L 3597 1613 
L 953 1613 
Q 991 1019 1311 708 
Q 1631 397 2203 397 
Q 2534 397 2845 478 
Q 3156 559 3463 722 
L 3463 178 
Q 3153 47 2828 -22 
Q 2503 -91 2169 -91 
Q 1331 -91 842 396 
Q 353 884 353 1716 
Q 353 2575 817 3079 
Q 1281 3584 2069 3584 
Q 2775 3584 3186 3129 
Q 3597 2675 3597 1894 
z
M 3022 2063 
Q 3016 2534 2758 2815 
Q 2500 3097 2075 3097 
Q 1594 3097 1305 2825 
Q 1016 2553 972 2059 
L 3022 2063 
z
" transform="scale(0.015625)"/>
      <path id="DejaVuSans-61" d="M 2194 1759 
Q 1497 1759 1228 1600 
Q 959 1441 959 1056 
Q 959 750 1161 570 
Q 1363 391 1709 391 
Q 2188 391 2477 730 
Q 2766 1069 2766 1631 
L 2766 1759 
L 2194 1759 
z
M 3341 1997 
L 3341 0 
L 2766 0 
L 2766 531 
Q 2569 213 2275 61 
Q 1981 -91 1556 -91 
Q 1019 -91 701 211 
Q 384 513 384 1019 
Q 384 1609 779 1909 
Q 1175 2209 1959 2209 
L 2766 2209 
L 2766 2266 
Q 2766 2663 2505 2880 
Q 2244 3097 1772 3097 
Q 1472 3097 1187 3025 
Q 903 2953 641 2809 
L 641 3341 
Q 956 3463 1253 3523 
Q 1550 3584 1831 3584 
Q 2591 3584 2966 3190 
Q 3341 2797 3341 1997 
z
" transform="scale(0.015625)"/>
      <path id="DejaVuSans-79" d="M 2059 -325 
Q 1816 -950 1584 -1140 
Q 1353 -1331 966 -1331 
L 506 -1331 
L 506 -850 
L 844 -850 
Q 1081 -850 1212 -737 
Q 1344 -625 1503 -206 
L 1606 56 
L 191 3500 
L 800 3500 
L 1894 763 
L 2988 3500 
L 3597 3500 
L 2059 -325 
z
" transform="scale(0.015625)"/>
     </defs>
     <use xlink:href="#DejaVuSans-63"/>
     <use xlink:href="#DejaVuSans-6c" x="54.980469"/>
     <use xlink:href="#DejaVuSans-6b" x="82.763672"/>
     <use xlink:href="#DejaVuSans-2d" x="140.673828"/>
     <use xlink:href="#DejaVuSans-74" x="176.757812"/>
     <use xlink:href="#DejaVuSans-6f" x="215.966797"/>
     <use xlink:href="#DejaVuSans-2d" x="279.023438"/>
     <use xlink:href="#DejaVuSans-51" x="318.732422"/>
     <use xlink:href="#DejaVuSans-20" x="397.443359"/>
     <use xlink:href="#DejaVuSans-64" x="429.230469"/>
     <use xlink:href="#DejaVuSans-65" x="492.707031"/>
     <use xlink:href="#DejaVuSans-6c" x="554.230469"/>
     <use xlink:href="#DejaVuSans-61" x="582.013672"/>
     <use xlink:href="#DejaVuSans-79" x="643.292969"/>
    </g>
   </g>
   <g id="patch_11">
    <path d="M 244.035 167.1 
L 244.035 155.1 
L 378.585 155.1 
L 378.585 167.1 
z
" clip-path="url(#pd60410287a)" style="fill: #ffffff"/>
   </g>
   <g id="text_7">
    <!-- combinational delay -->
    <g transform="translate(268.165859 163.445469) scale(0.085 -0.085)">
     <defs>
      <path id="DejaVuSans-6d" d="M 3328 2828 
Q 3544 3216 3844 3400 
Q 4144 3584 4550 3584 
Q 5097 3584 5394 3201 
Q 5691 2819 5691 2113 
L 5691 0 
L 5113 0 
L 5113 2094 
Q 5113 2597 4934 2840 
Q 4756 3084 4391 3084 
Q 3944 3084 3684 2787 
Q 3425 2491 3425 1978 
L 3425 0 
L 2847 0 
L 2847 2094 
Q 2847 2600 2669 2842 
Q 2491 3084 2119 3084 
Q 1678 3084 1418 2786 
Q 1159 2488 1159 1978 
L 1159 0 
L 581 0 
L 581 3500 
L 1159 3500 
L 1159 2956 
Q 1356 3278 1631 3431 
Q 1906 3584 2284 3584 
Q 2666 3584 2933 3390 
Q 3200 3197 3328 2828 
z
" transform="scale(0.015625)"/>
      <path id="DejaVuSans-62" d="M 3116 1747 
Q 3116 2381 2855 2742 
Q 2594 3103 2138 3103 
Q 1681 3103 1420 2742 
Q 1159 2381 1159 1747 
Q 1159 1113 1420 752 
Q 1681 391 2138 391 
Q 2594 391 2855 752 
Q 3116 1113 3116 1747 
z
M 1159 2969 
Q 1341 3281 1617 3432 
Q 1894 3584 2278 3584 
Q 2916 3584 3314 3078 
Q 3713 2572 3713 1747 
Q 3713 922 3314 415 
Q 2916 -91 2278 -91 
Q 1894 -91 1617 61 
Q 1341 213 1159 525 
L 1159 0 
L 581 0 
L 581 4863 
L 1159 4863 
L 1159 2969 
z
" transform="scale(0.015625)"/>
      <path id="DejaVuSans-69" d="M 603 3500 
L 1178 3500 
L 1178 0 
L 603 0 
L 603 3500 
z
M 603 4863 
L 1178 4863 
L 1178 4134 
L 603 4134 
L 603 4863 
z
" transform="scale(0.015625)"/>
      <path id="DejaVuSans-6e" d="M 3513 2113 
L 3513 0 
L 2938 0 
L 2938 2094 
Q 2938 2591 2744 2837 
Q 2550 3084 2163 3084 
Q 1697 3084 1428 2787 
Q 1159 2491 1159 1978 
L 1159 0 
L 581 0 
L 581 3500 
L 1159 3500 
L 1159 2956 
Q 1366 3272 1645 3428 
Q 1925 3584 2291 3584 
Q 2894 3584 3203 3211 
Q 3513 2838 3513 2113 
z
" transform="scale(0.015625)"/>
     </defs>
     <use xlink:href="#DejaVuSans-63"/>
     <use xlink:href="#DejaVuSans-6f" x="54.980469"/>
     <use xlink:href="#DejaVuSans-6d" x="116.162109"/>
     <use xlink:href="#DejaVuSans-62" x="213.574219"/>
     <use xlink:href="#DejaVuSans-69" x="277.050781"/>
     <use xlink:href="#DejaVuSans-6e" x="304.833984"/>
     <use xlink:href="#DejaVuSans-61" x="368.212891"/>
     <use xlink:href="#DejaVuSans-74" x="429.492188"/>
     <use xlink:href="#DejaVuSans-69" x="468.701172"/>
     <use xlink:href="#DejaVuSans-6f" x="496.484375"/>
     <use xlink:href="#DejaVuSans-6e" x="557.666016"/>
     <use xlink:href="#DejaVuSans-61" x="621.044922"/>
     <use xlink:href="#DejaVuSans-6c" x="682.324219"/>
     <use xlink:href="#DejaVuSans-20" x="710.107422"/>
     <use xlink:href="#DejaVuSans-64" x="741.894531"/>
     <use xlink:href="#DejaVuSans-65" x="805.371094"/>
     <use xlink:href="#DejaVuSans-6c" x="866.894531"/>
     <use xlink:href="#DejaVuSans-61" x="894.677734"/>
     <use xlink:href="#DejaVuSans-79" x="955.957031"/>
    </g>
   </g>
   <g id="patch_12">
    <path d="M 456.57 96.9 
L 456.57 84.9 
L 472.05 84.9 
L 472.05 96.9 
z
" clip-path="url(#pd60410287a)" style="fill: #ffffff"/>
   </g>
   <g id="text_8">
    <!-- $t_s$ -->
    <g transform="translate(460.9525 93.245469) scale(0.085 -0.085)">
     <defs>
      <path id="DejaVuSans-Oblique-74" d="M 2706 3500 
L 2619 3053 
L 1472 3053 
L 1100 1153 
Q 1081 1047 1072 975 
Q 1063 903 1063 863 
Q 1063 663 1183 572 
Q 1303 481 1569 481 
L 2150 481 
L 2053 0 
L 1503 0 
Q 991 0 739 200 
Q 488 400 488 806 
Q 488 878 497 964 
Q 506 1050 525 1153 
L 897 3053 
L 409 3053 
L 500 3500 
L 978 3500 
L 1172 4494 
L 1747 4494 
L 1556 3500 
L 2706 3500 
z
" transform="scale(0.015625)"/>
      <path id="DejaVuSans-Oblique-73" d="M 3200 3397 
L 3091 2853 
Q 2863 2978 2609 3040 
Q 2356 3103 2088 3103 
Q 1634 3103 1373 2948 
Q 1113 2794 1113 2528 
Q 1113 2219 1719 2053 
Q 1766 2041 1788 2034 
L 1972 1978 
Q 2547 1819 2739 1644 
Q 2931 1469 2931 1166 
Q 2931 609 2489 259 
Q 2047 -91 1331 -91 
Q 1053 -91 747 -37 
Q 441 16 72 128 
L 184 722 
Q 500 559 806 475 
Q 1113 391 1394 391 
Q 1816 391 2080 572 
Q 2344 753 2344 1031 
Q 2344 1331 1650 1516 
L 1591 1531 
L 1394 1581 
Q 956 1697 753 1886 
Q 550 2075 550 2369 
Q 550 2928 970 3256 
Q 1391 3584 2113 3584 
Q 2397 3584 2667 3537 
Q 2938 3491 3200 3397 
z
" transform="scale(0.015625)"/>
     </defs>
     <use xlink:href="#DejaVuSans-Oblique-74" transform="translate(0 0.78125)"/>
     <use xlink:href="#DejaVuSans-Oblique-73" transform="translate(39.208984 -15.625) scale(0.7)"/>
    </g>
   </g>
   <g id="patch_13">
    <path d="M 392.895 127.5 
L 392.895 115.5 
L 427.725 115.5 
L 427.725 127.5 
z
" clip-path="url(#pd60410287a)" style="fill: #ffffff"/>
   </g>
   <g id="text_9">
    <!-- $slack$ -->
    <g transform="translate(399.4725 123.845469) scale(0.085 -0.085)">
     <defs>
      <path id="DejaVuSans-Oblique-6c" d="M 1172 4863 
L 1747 4863 
L 800 0 
L 225 0 
L 1172 4863 
z
" transform="scale(0.015625)"/>
      <path id="DejaVuSans-Oblique-61" d="M 3438 1997 
L 3047 0 
L 2472 0 
L 2578 531 
Q 2325 219 2001 64 
Q 1678 -91 1281 -91 
Q 834 -91 548 182 
Q 263 456 263 884 
Q 263 1497 752 1853 
Q 1241 2209 2100 2209 
L 2900 2209 
L 2931 2363 
Q 2938 2388 2941 2417 
Q 2944 2447 2944 2509 
Q 2944 2788 2717 2942 
Q 2491 3097 2081 3097 
Q 1800 3097 1504 3025 
Q 1209 2953 897 2809 
L 997 3341 
Q 1322 3463 1633 3523 
Q 1944 3584 2234 3584 
Q 2853 3584 3176 3315 
Q 3500 3047 3500 2534 
Q 3500 2431 3484 2292 
Q 3469 2153 3438 1997 
z
M 2816 1759 
L 2241 1759 
Q 1534 1759 1195 1570 
Q 856 1381 856 984 
Q 856 709 1029 553 
Q 1203 397 1509 397 
Q 1978 397 2328 733 
Q 2678 1069 2791 1631 
L 2816 1759 
z
" transform="scale(0.015625)"/>
      <path id="DejaVuSans-Oblique-63" d="M 3431 3366 
L 3316 2797 
Q 3109 2947 2876 3022 
Q 2644 3097 2394 3097 
Q 2119 3097 1870 3000 
Q 1622 2903 1453 2725 
Q 1184 2453 1037 2087 
Q 891 1722 891 1331 
Q 891 859 1127 628 
Q 1363 397 1844 397 
Q 2081 397 2348 469 
Q 2616 541 2906 684 
L 2797 116 
Q 2547 13 2283 -39 
Q 2019 -91 1741 -91 
Q 1044 -91 669 257 
Q 294 606 294 1253 
Q 294 1797 489 2255 
Q 684 2713 1069 3078 
Q 1331 3328 1684 3456 
Q 2038 3584 2456 3584 
Q 2700 3584 2940 3529 
Q 3181 3475 3431 3366 
z
" transform="scale(0.015625)"/>
      <path id="DejaVuSans-Oblique-6b" d="M 1172 4863 
L 1747 4863 
L 1197 2028 
L 3169 3500 
L 3916 3500 
L 1716 1825 
L 3322 0 
L 2625 0 
L 1131 1709 
L 800 0 
L 225 0 
L 1172 4863 
z
" transform="scale(0.015625)"/>
     </defs>
     <use xlink:href="#DejaVuSans-Oblique-73" transform="translate(0 0.015625)"/>
     <use xlink:href="#DejaVuSans-Oblique-6c" transform="translate(52.099609 0.015625)"/>
     <use xlink:href="#DejaVuSans-Oblique-61" transform="translate(79.882812 0.015625)"/>
     <use xlink:href="#DejaVuSans-Oblique-63" transform="translate(141.162109 0.015625)"/>
     <use xlink:href="#DejaVuSans-Oblique-6b" transform="translate(196.142578 0.015625)"/>
    </g>
   </g>
   <g id="patch_14">
    <path d="M 336.285 80.7 
L 336.285 68.7 
L 412.335 68.7 
L 412.335 80.7 
z
" clip-path="url(#pd60410287a)" style="fill: #ffffff"/>
   </g>
   <g id="text_10">
    <!-- Arrival time -->
    <g transform="translate(349.549102 77.045469) scale(0.085 -0.085)">
     <defs>
      <path id="DejaVuSans-41" d="M 2188 4044 
L 1331 1722 
L 3047 1722 
L 2188 4044 
z
M 1831 4666 
L 2547 4666 
L 4325 0 
L 3669 0 
L 3244 1197 
L 1141 1197 
L 716 0 
L 50 0 
L 1831 4666 
z
" transform="scale(0.015625)"/>
      <path id="DejaVuSans-72" d="M 2631 2963 
Q 2534 3019 2420 3045 
Q 2306 3072 2169 3072 
Q 1681 3072 1420 2755 
Q 1159 2438 1159 1844 
L 1159 0 
L 581 0 
L 581 3500 
L 1159 3500 
L 1159 2956 
Q 1341 3275 1631 3429 
Q 1922 3584 2338 3584 
Q 2397 3584 2469 3576 
Q 2541 3569 2628 3553 
L 2631 2963 
z
" transform="scale(0.015625)"/>
      <path id="DejaVuSans-76" d="M 191 3500 
L 800 3500 
L 1894 563 
L 2988 3500 
L 3597 3500 
L 2284 0 
L 1503 0 
L 191 3500 
z
" transform="scale(0.015625)"/>
     </defs>
     <use xlink:href="#DejaVuSans-41"/>
     <use xlink:href="#DejaVuSans-72" x="68.408203"/>
     <use xlink:href="#DejaVuSans-72" x="107.771484"/>
     <use xlink:href="#DejaVuSans-69" x="148.884766"/>
     <use xlink:href="#DejaVuSans-76" x="176.667969"/>
     <use xlink:href="#DejaVuSans-61" x="235.847656"/>
     <use xlink:href="#DejaVuSans-6c" x="297.126953"/>
     <use xlink:href="#DejaVuSans-20" x="324.910156"/>
     <use xlink:href="#DejaVuSans-74" x="356.697266"/>
     <use xlink:href="#DejaVuSans-69" x="395.90625"/>
     <use xlink:href="#DejaVuSans-6d" x="423.689453"/>
     <use xlink:href="#DejaVuSans-65" x="521.101562"/>
    </g>
   </g>
   <g id="patch_15">
    <path d="M 399.375 65.4 
L 399.375 53.4 
L 493.245 53.4 
L 493.245 65.4 
z
" clip-path="url(#pd60410287a)" style="fill: #ffffff"/>
   </g>
   <g id="text_11">
    <!-- Required time -->
    <g transform="translate(416.443789 61.745469) scale(0.085 -0.085)">
     <defs>
      <path id="DejaVuSans-52" d="M 2841 2188 
Q 3044 2119 3236 1894 
Q 3428 1669 3622 1275 
L 4263 0 
L 3584 0 
L 2988 1197 
Q 2756 1666 2539 1819 
Q 2322 1972 1947 1972 
L 1259 1972 
L 1259 0 
L 628 0 
L 628 4666 
L 2053 4666 
Q 2853 4666 3247 4331 
Q 3641 3997 3641 3322 
Q 3641 2881 3436 2590 
Q 3231 2300 2841 2188 
z
M 1259 4147 
L 1259 2491 
L 2053 2491 
Q 2509 2491 2742 2702 
Q 2975 2913 2975 3322 
Q 2975 3731 2742 3939 
Q 2509 4147 2053 4147 
L 1259 4147 
z
" transform="scale(0.015625)"/>
      <path id="DejaVuSans-71" d="M 947 1747 
Q 947 1113 1208 752 
Q 1469 391 1925 391 
Q 2381 391 2643 752 
Q 2906 1113 2906 1747 
Q 2906 2381 2643 2742 
Q 2381 3103 1925 3103 
Q 1469 3103 1208 2742 
Q 947 2381 947 1747 
z
M 2906 525 
Q 2725 213 2448 61 
Q 2172 -91 1784 -91 
Q 1150 -91 751 415 
Q 353 922 353 1747 
Q 353 2572 751 3078 
Q 1150 3584 1784 3584 
Q 2172 3584 2448 3432 
Q 2725 3281 2906 2969 
L 2906 3500 
L 3481 3500 
L 3481 -1331 
L 2906 -1331 
L 2906 525 
z
" transform="scale(0.015625)"/>
      <path id="DejaVuSans-75" d="M 544 1381 
L 544 3500 
L 1119 3500 
L 1119 1403 
Q 1119 906 1312 657 
Q 1506 409 1894 409 
Q 2359 409 2629 706 
Q 2900 1003 2900 1516 
L 2900 3500 
L 3475 3500 
L 3475 0 
L 2900 0 
L 2900 538 
Q 2691 219 2414 64 
Q 2138 -91 1772 -91 
Q 1169 -91 856 284 
Q 544 659 544 1381 
z
M 1991 3584 
L 1991 3584 
z
" transform="scale(0.015625)"/>
     </defs>
     <use xlink:href="#DejaVuSans-52"/>
     <use xlink:href="#DejaVuSans-65" x="64.982422"/>
     <use xlink:href="#DejaVuSans-71" x="126.505859"/>
     <use xlink:href="#DejaVuSans-75" x="189.982422"/>
     <use xlink:href="#DejaVuSans-69" x="253.361328"/>
     <use xlink:href="#DejaVuSans-72" x="281.144531"/>
     <use xlink:href="#DejaVuSans-65" x="320.007812"/>
     <use xlink:href="#DejaVuSans-64" x="381.53125"/>
     <use xlink:href="#DejaVuSans-20" x="445.007812"/>
     <use xlink:href="#DejaVuSans-74" x="476.794922"/>
     <use xlink:href="#DejaVuSans-69" x="516.003906"/>
     <use xlink:href="#DejaVuSans-6d" x="543.787109"/>
     <use xlink:href="#DejaVuSans-65" x="641.199219"/>
    </g>
   </g>
   <g id="patch_16">
    <path d="M 150.345 322.8 
L 150.345 310.8 
L 238.275 310.8 
L 238.275 322.8 
z
" clip-path="url(#pd60410287a)" style="fill: #ffffff"/>
   </g>
   <g id="text_12">
    <!-- Launch edge -->
    <g transform="translate(166.94332 319.145469) scale(0.085 -0.085)">
     <defs>
      <path id="DejaVuSans-4c" d="M 628 4666 
L 1259 4666 
L 1259 531 
L 3531 531 
L 3531 0 
L 628 0 
L 628 4666 
z
" transform="scale(0.015625)"/>
      <path id="DejaVuSans-68" d="M 3513 2113 
L 3513 0 
L 2938 0 
L 2938 2094 
Q 2938 2591 2744 2837 
Q 2550 3084 2163 3084 
Q 1697 3084 1428 2787 
Q 1159 2491 1159 1978 
L 1159 0 
L 581 0 
L 581 4863 
L 1159 4863 
L 1159 2956 
Q 1366 3272 1645 3428 
Q 1925 3584 2291 3584 
Q 2894 3584 3203 3211 
Q 3513 2838 3513 2113 
z
" transform="scale(0.015625)"/>
      <path id="DejaVuSans-67" d="M 2906 1791 
Q 2906 2416 2648 2759 
Q 2391 3103 1925 3103 
Q 1463 3103 1205 2759 
Q 947 2416 947 1791 
Q 947 1169 1205 825 
Q 1463 481 1925 481 
Q 2391 481 2648 825 
Q 2906 1169 2906 1791 
z
M 3481 434 
Q 3481 -459 3084 -895 
Q 2688 -1331 1869 -1331 
Q 1566 -1331 1297 -1286 
Q 1028 -1241 775 -1147 
L 775 -588 
Q 1028 -725 1275 -790 
Q 1522 -856 1778 -856 
Q 2344 -856 2625 -561 
Q 2906 -266 2906 331 
L 2906 616 
Q 2728 306 2450 153 
Q 2172 0 1784 0 
Q 1141 0 747 490 
Q 353 981 353 1791 
Q 353 2603 747 3093 
Q 1141 3584 1784 3584 
Q 2172 3584 2450 3431 
Q 2728 3278 2906 2969 
L 2906 3500 
L 3481 3500 
L 3481 434 
z
" transform="scale(0.015625)"/>
     </defs>
     <use xlink:href="#DejaVuSans-4c"/>
     <use xlink:href="#DejaVuSans-61" x="55.712891"/>
     <use xlink:href="#DejaVuSans-75" x="116.992188"/>
     <use xlink:href="#DejaVuSans-6e" x="180.371094"/>
     <use xlink:href="#DejaVuSans-63" x="243.75"/>
     <use xlink:href="#DejaVuSans-68" x="298.730469"/>
     <use xlink:href="#DejaVuSans-20" x="362.109375"/>
     <use xlink:href="#DejaVuSans-65" x="393.896484"/>
     <use xlink:href="#DejaVuSans-64" x="455.419922"/>
     <use xlink:href="#DejaVuSans-67" x="518.896484"/>
     <use xlink:href="#DejaVuSans-65" x="582.373047"/>
    </g>
   </g>
   <g id="patch_17">
    <path d="M 436.455 322.8 
L 436.455 310.8 
L 528.165 310.8 
L 528.165 322.8 
z
" clip-path="url(#pd60410287a)" style="fill: #ffffff"/>
   </g>
   <g id="text_13">
    <!-- Capture edge -->
    <g transform="translate(453.436562 319.145469) scale(0.085 -0.085)">
     <defs>
      <path id="DejaVuSans-43" d="M 4122 4306 
L 4122 3641 
Q 3803 3938 3442 4084 
Q 3081 4231 2675 4231 
Q 1875 4231 1450 3742 
Q 1025 3253 1025 2328 
Q 1025 1406 1450 917 
Q 1875 428 2675 428 
Q 3081 428 3442 575 
Q 3803 722 4122 1019 
L 4122 359 
Q 3791 134 3420 21 
Q 3050 -91 2638 -91 
Q 1578 -91 968 557 
Q 359 1206 359 2328 
Q 359 3453 968 4101 
Q 1578 4750 2638 4750 
Q 3056 4750 3426 4639 
Q 3797 4528 4122 4306 
z
" transform="scale(0.015625)"/>
      <path id="DejaVuSans-70" d="M 1159 525 
L 1159 -1331 
L 581 -1331 
L 581 3500 
L 1159 3500 
L 1159 2969 
Q 1341 3281 1617 3432 
Q 1894 3584 2278 3584 
Q 2916 3584 3314 3078 
Q 3713 2572 3713 1747 
Q 3713 922 3314 415 
Q 2916 -91 2278 -91 
Q 1894 -91 1617 61 
Q 1341 213 1159 525 
z
M 3116 1747 
Q 3116 2381 2855 2742 
Q 2594 3103 2138 3103 
Q 1681 3103 1420 2742 
Q 1159 2381 1159 1747 
Q 1159 1113 1420 752 
Q 1681 391 2138 391 
Q 2594 391 2855 752 
Q 3116 1113 3116 1747 
z
" transform="scale(0.015625)"/>
     </defs>
     <use xlink:href="#DejaVuSans-43"/>
     <use xlink:href="#DejaVuSans-61" x="69.824219"/>
     <use xlink:href="#DejaVuSans-70" x="131.103516"/>
     <use xlink:href="#DejaVuSans-74" x="194.580078"/>
     <use xlink:href="#DejaVuSans-75" x="233.789062"/>
     <use xlink:href="#DejaVuSans-72" x="297.167969"/>
     <use xlink:href="#DejaVuSans-65" x="336.03125"/>
     <use xlink:href="#DejaVuSans-20" x="397.554688"/>
     <use xlink:href="#DejaVuSans-65" x="429.341797"/>
     <use xlink:href="#DejaVuSans-64" x="490.865234"/>
     <use xlink:href="#DejaVuSans-67" x="554.341797"/>
     <use xlink:href="#DejaVuSans-65" x="617.818359"/>
    </g>
   </g>
  </g>
 </g>
 <defs>
  <clipPath id="pd60410287a">
   <rect x="3.6" y="3.6" width="611.82" height="376.2"/>
  </clipPath>
  <clipPath id="p6609be90a1">
   <rect x="47.61" y="33.3" width="540" height="347.4"/>
  </clipPath>
 </defs>
</svg>
