<svg xmlns="http://www.w3.org/2000/svg" xml:lang="en" height="114.7pt" width="217.408pt" viewBox="-21.008 -25.22 217.408 114.7"><path d="M 0.0,-21.06 L 0.0,87.48" style="stroke:#DDDDDD;fill:none;stroke-width:1;stroke-dasharray:2,3.3;stroke-linecap:round;stroke-linejoin:round;" /><path d="M 32.4,-21.06 L 32.4,87.48" style="stroke:#DDDDDD;fill:none;stroke-width:1;stroke-dasharray:2,3.3;stroke-linecap:round;stroke-linejoin:round;" /><path d="M 64.8,-21.06 L 64.8,87.48" style="stroke:#DDDDDD;fill:none;stroke-width:1;stroke-dasharray:2,3.3;stroke-linecap:round;stroke-linejoin:round;" /><path d="M 97.19999999999999,-21.06 L 97.19999999999999,87.48" style="stroke:#DDDDDD;fill:none;stroke-width:1;stroke-dasharray:2,3.3;stroke-linecap:round;stroke-linejoin:round;" /><path d="M 129.6,-21.06 L 129.6,87.48" style="stroke:#DDDDDD;fill:none;stroke-width:1;stroke-dasharray:2,3.3;stroke-linecap:round;stroke-linejoin:round;" /><path d="M 162.0,-21.06 L 162.0,87.48" style="stroke:#DDDDDD;fill:none;stroke-width:1;stroke-dasharray:2,3.3;stroke-linecap:round;stroke-linejoin:round;" /><path d="M 194.39999999999998,-21.06 L 194.39999999999998,87.48" style="stroke:#DDDDDD;fill:none;stroke-width:1;stroke-dasharray:2,3.3;stroke-linecap:round;stroke-linejoin:round;" /><defs>
    <clipPath id="clip0"><rect x="-1.0" y="-17.2" width="196.39999999999998" height="121.88000000000001" /></clipPath></defs><path d="M 0.0,-16.2 L 64.8,-16.2" style="stroke:black;fill:none;stroke-width:1;stroke-linecap:round;stroke-linejoin:round;" clip-path="url(#clip0)" /><path d="M 64.8,-16.2 L 69.66,-0.0 L 194.39999999999998,-0.0" style="stroke:black;fill:none;stroke-width:1;stroke-linecap:round;stroke-linejoin:round;" clip-path="url(#clip0)" /><path d="M 0.0,25.92 L 97.19999999999999,25.92" style="stroke:black;fill:none;stroke-width:1;stroke-linecap:round;stroke-linejoin:round;" clip-path="url(#clip0)" /><path d="M 97.19999999999999,25.92 L 102.05999999999999,9.72 L 194.39999999999998,9.72" style="stroke:black;fill:none;stroke-width:1;stroke-linecap:round;stroke-linejoin:round;" clip-path="url(#clip0)" /><path d="M 0.0,35.64 L 194.39999999999998,35.64" style="stroke:black;fill:none;stroke-width:1;stroke-linecap:round;stroke-linejoin:round;" clip-path="url(#clip0)" /><path d="M 0.0,77.76 L 129.6,77.76" style="stroke:black;fill:none;stroke-width:1;stroke-linecap:round;stroke-linejoin:round;" clip-path="url(#clip0)" /><path d="M 129.6,77.76 L 134.46,61.56000000000001 L 194.39999999999998,61.56000000000001" style="stroke:black;fill:none;stroke-width:1;stroke-linecap:round;stroke-linejoin:round;" clip-path="url(#clip0)" /><text x="-6.48" y="-9.5" fill="blue" font-size="10" font-family="sans-serif" text-anchor="end" transform="rotate(0 -6.48 -1.5)"><tspan x="-6.48" dy="8.0">A</tspan></text><polygon points="63.38250000000001,-2.6999999999999993 63.38250000000001,-13.5 71.0775,-13.5 71.0775,-2.6999999999999993 " style="stroke:none;fill:white;stroke-width:2;stroke-linecap:round;stroke-linejoin:round;" /><text x="67.23" y="-11.4" fill="black" font-size="6" font-family="sans-serif" text-anchor="middle" transform="rotate(0 67.23 -9.0)"><tspan x="67.23" dy="4.800000000000001">a</tspan></text><text x="-6.48" y="16.42" fill="blue" font-size="10" font-family="sans-serif" text-anchor="end" transform="rotate(0 -6.48 24.42)"><tspan x="-6.48" dy="8.0">C</tspan></text><polygon points="96.1875,23.220000000000002 96.1875,12.42 103.0725,12.42 103.0725,23.220000000000002 " style="stroke:none;fill:white;stroke-width:2;stroke-linecap:round;stroke-linejoin:round;" /><text x="99.63" y="14.52" fill="black" font-size="6" font-family="sans-serif" text-anchor="middle" transform="rotate(0 99.63 16.92)"><tspan x="99.63" dy="4.800000000000001">c</tspan></text><text x="-6.48" y="42.34" fill="blue" font-size="10" font-family="sans-serif" text-anchor="end" transform="rotate(0 -6.48 50.34)"><tspan x="-6.48" dy="8.0">B</tspan></text><text x="-6.48" y="68.26" fill="blue" font-size="10" font-family="sans-serif" text-anchor="end" transform="rotate(0 -6.48 76.26)"><tspan x="-6.48" dy="8.0">Y</tspan></text><polygon points="128.5875,75.06 128.5875,64.26 135.4725,64.26 135.4725,75.06 " style="stroke:none;fill:white;stroke-width:2;stroke-linecap:round;stroke-linejoin:round;" /><text x="132.03" y="66.36000000000001" fill="black" font-size="6" font-family="sans-serif" text-anchor="middle" transform="rotate(0 132.03 68.76)"><tspan x="132.03" dy="4.800000000000001">y</tspan></text><path d="M 70.47 -8.1 C 86.022 -8.1 80.838 17.82 96.39 17.82" style="stroke:blue;fill:none;stroke-width:1;stroke-linecap:round;" /><path d="M 102.87 17.82 C 118.422 17.82 113.238 69.66000000000001 128.79 69.66000000000001" style="stroke:blue;fill:none;stroke-width:1;stroke-linecap:round;" /><polygon points="79.9065,8.100000000000001 79.9065,1.62 86.9535,1.62 86.9535,8.100000000000001 " style="stroke:none;fill:white;stroke-width:2;stroke-linecap:round;stroke-linejoin:round;" /><text x="83.43" y="1.5600000000000005" fill="black" font-size="6" font-family="sans-serif" text-anchor="middle" transform="rotate(0 83.43 3.9600000000000004)"><tspan x="83.43" dy="4.800000000000001">t1</tspan></text><polygon points="112.3065,46.980000000000004 112.3065,40.5 119.35350000000001,40.5 119.35350000000001,46.980000000000004 " style="stroke:none;fill:white;stroke-width:2;stroke-linecap:round;stroke-linejoin:round;" /><text x="115.83" y="40.44" fill="black" font-size="6" font-family="sans-serif" text-anchor="middle" transform="rotate(0 115.83 42.84)"><tspan x="115.83" dy="4.800000000000001">t2</tspan></text></svg>