<svg xmlns="http://www.w3.org/2000/svg" xml:lang="en" height="74.38pt" width="430.83759999999995pt" viewBox="-40.0376 -27.02 430.83759999999995 74.38"><defs><pattern id="hatch" patternUnits="userSpaceOnUse" width="4" height="4">
<path d="M-1,1 l2,-2 M0,4 l4,-4 M3,5 l2,-2" style="stroke:black; stroke-width:.5" /></pattern></defs><defs>
    <clipPath id="clip0"><rect x="-1.0" y="-17.2" width="390.79999999999995" height="95.96" /></clipPath></defs><polyline points="0.0,-0.0 32.4,-0.0 34.83,-8.1 32.4,-16.2 0.0,-16.2 " style="stroke:black;fill:url(#hatch);stroke-width:1;stroke-linecap:round;stroke-linejoin:round;" clip-path="url(#clip0)" /><polygon points="37.26,-16.2 34.83,-8.1 37.26,-0.0 226.79999999999998,-0.0 229.23,-8.1 226.79999999999998,-16.2 " style="stroke:black;fill:#feffc2;stroke-width:1;stroke-linecap:round;stroke-linejoin:round;" clip-path="url(#clip0)" /><polyline points="388.79999999999995,-16.2 231.66,-16.2 229.23,-8.1 231.66,-0.0 388.79999999999995,-0.0 " style="stroke:black;fill:url(#hatch);stroke-width:1;stroke-linecap:round;stroke-linejoin:round;" clip-path="url(#clip0)" /><path d="M 0.0,38.879999999999995 L 129.6,38.879999999999995" style="stroke:black;fill:none;stroke-width:1;stroke-linecap:round;stroke-linejoin:round;" clip-path="url(#clip0)" /><path d="M 129.6,38.879999999999995 L 134.46,22.679999999999996 L 324.0,22.679999999999996" style="stroke:black;fill:none;stroke-width:1;stroke-linecap:round;stroke-linejoin:round;" clip-path="url(#clip0)" /><path d="M 324.0,22.679999999999996 L 328.86,38.879999999999995 L 388.79999999999995,38.879999999999995" style="stroke:black;fill:none;stroke-width:1;stroke-linecap:round;stroke-linejoin:round;" clip-path="url(#clip0)" /><path d="M 34.83,6.48 L 132.03,6.48" style="stroke:blue;fill:none;stroke-width:1;stroke-linecap:round;stroke-linejoin:round;" /><path d="M 34.83,9.72 L 34.83,3.24" style="stroke:blue;fill:none;stroke-width:1;stroke-linecap:round;stroke-linejoin:round;" /><path d="M 132.03,9.72 L 132.03,3.24" style="stroke:blue;fill:none;stroke-width:1;stroke-linecap:round;stroke-linejoin:round;" /><path d="M 132.03,16.2 L 229.23,16.2" style="stroke:blue;fill:none;stroke-width:1;stroke-linecap:round;stroke-linejoin:round;" /><path d="M 132.03,19.439999999999998 L 132.03,12.96" style="stroke:blue;fill:none;stroke-width:1;stroke-linecap:round;stroke-linejoin:round;" /><path d="M 229.23,19.439999999999998 L 229.23,12.96" style="stroke:blue;fill:none;stroke-width:1;stroke-linecap:round;stroke-linejoin:round;" /><text x="-6.48" y="-11.400000000000002" fill="blue" font-size="12" font-family="sans-serif" text-anchor="end" transform="rotate(0 -6.48 -1.7999999999999998)"><tspan x="-6.48" dy="9.600000000000001">data</tspan></text><text x="132.03" y="-14.15" fill="black" font-size="11" font-family="sans-serif" text-anchor="middle" transform="rotate(0 132.03 -9.75)"><tspan x="132.03" dy="8.8">data must be stable</tspan></text><text x="-6.48" y="27.479999999999997" fill="blue" font-size="12" font-family="sans-serif" text-anchor="end" transform="rotate(0 -6.48 37.08)"><tspan x="-6.48" dy="9.600000000000001">clock</tspan></text><polygon points="51.880500000000005,11.88 51.880500000000005,1.0800000000000005 114.9795,1.0800000000000005 114.9795,11.88 " style="stroke:none;fill:white;stroke-width:2;stroke-linecap:round;stroke-linejoin:round;" /><text x="83.43" y="0.9800000000000004" fill="black" font-size="10" font-family="sans-serif" text-anchor="middle" transform="rotate(0 83.43 4.9799999999999995)"><tspan x="83.43" dy="8.0">setup time</tspan></text><polygon points="149.0805,21.599999999999998 149.0805,10.8 212.1795,10.8 212.1795,21.599999999999998 " style="stroke:none;fill:white;stroke-width:2;stroke-linecap:round;stroke-linejoin:round;" /><text x="180.63" y="10.7" fill="black" font-size="10" font-family="sans-serif" text-anchor="middle" transform="rotate(0 180.63 14.7)"><tspan x="180.63" dy="8.0">setup time</tspan></text></svg>